<svg width="20" height="19" viewBox="0 0 20 19" fill="none" xmlns="http://www.w3.org/2000/svg">
<path fill-rule="evenodd" clip-rule="evenodd" d="M12.018 17.5977C12.018 16.9064 11.4576 16.346 10.7663 16.346H9.23367C8.90172 16.346 8.58336 16.4779 8.34863 16.7126C8.11391 16.9473 7.98203 17.2657 7.98203 17.5977C7.98203 18.2889 8.54242 18.8493 9.23367 18.8493H10.7663C11.4576 18.8493 12.018 18.2889 12.018 17.5977ZM2.63129 14.3702C2.84035 14.3862 3.09328 14.3954 3.34734 14.3805C3.4827 15.0669 3.81895 15.7035 4.32086 16.2055C4.98719 16.8718 5.8909 17.2461 6.8332 17.2461H7.31078C7.28973 17.3613 7.27891 17.4789 7.27891 17.5977C7.27891 17.7177 7.28973 17.8352 7.31047 17.9492H6.8332C5.70441 17.9492 4.62184 17.5008 3.82367 16.7027C3.18691 16.0659 2.77273 15.2481 2.63129 14.3702ZM2.27363 13.622C1.71852 13.5284 1.20195 13.2645 0.798711 12.8612C0.287305 12.3498 0 11.6562 0 10.933V9.27113C0 8.54789 0.287305 7.85426 0.798711 7.34285C1.31012 6.83144 2.00375 6.5441 2.72699 6.5441H2.90852C3.19867 2.88176 6.26281 0 10 0C13.7372 0 16.8013 2.88176 17.0915 6.5441H17.273C17.9963 6.5441 18.6899 6.83144 19.2013 7.34285C19.7127 7.85426 20 8.54789 20 9.27113V10.933C20 11.6562 19.7127 12.3498 19.2013 12.8612C18.6899 13.3727 17.9963 13.66 17.273 13.66H16.4683C16.1345 13.66 15.864 13.3894 15.864 13.0557V7.11398C15.864 3.87539 13.2386 1.25 10 1.25C6.76141 1.25 4.13602 3.87539 4.13602 7.11398V13.0557C4.13602 13.2913 4.00113 13.4955 3.80434 13.5952C3.26262 13.7831 2.4225 13.6471 2.27363 13.622Z" fill="#6D6D6D"/>
</svg>
