<svg width="20" height="20" viewBox="0 0 20 20" fill="none" xmlns="http://www.w3.org/2000/svg">
<path d="M19.5273 3.98519C19.5273 1.78777 17.7398 0 15.5425 0C14.4656 0 13.4873 0.42953 12.7694 1.12605C11.7789 0.79367 10.744 0.624999 9.68705 0.624999C4.28843 0.624999 0 5.00468 0 10.3128C0 15.661 4.34003 20 9.68416 20C15.0074 19.9999 19.3748 15.6942 19.3748 10.3128C19.3748 9.10756 19.1564 7.9353 18.7262 6.82354C19.2575 5.84776 19.5273 4.89413 19.5273 3.98519ZM7.51456 11.2858L6.80245 14.3721C6.71983 14.7302 6.43077 14.9684 6.07968 15.0028C5.71897 15.0383 5.39948 14.8551 5.25136 14.5251C5.08187 14.1491 3.82171 11.3531 3.65222 10.977L4.71944 7.84397C4.81444 7.56506 4.68757 7.25901 4.42312 7.12913L2.29421 6.08354C3.12163 4.63585 4.34519 3.47191 5.82487 2.72035V4.09613C5.82487 4.37292 6.01858 4.61198 6.28936 4.66933C6.71014 4.75847 8.76924 5.19468 9.18979 5.28378C9.57897 5.36616 9.88061 5.65772 9.97986 6.03753C10.0729 6.39292 10.0083 6.14608 10.254 7.08424C10.3367 7.40002 10.2637 7.74163 10.0618 7.99514C9.77608 8.35393 7.91366 10.6926 7.62709 11.0525C7.57268 11.1208 7.5342 11.2006 7.51456 11.2858ZM9.08908 18.8075L9.40229 18.1468C9.46846 18.0074 9.5433 17.9493 9.6915 17.8662C9.77623 17.8193 10.2877 17.5645 10.3392 17.5456C10.5712 17.46 10.8363 17.534 10.9893 17.7349C10.9893 17.7349 10.9893 17.7349 10.9894 17.7349L11.6489 18.6007C10.8136 18.7973 9.94838 18.8673 9.08908 18.8075ZM15.1868 16.814L14.4638 16.3451L14.132 13.2689C14.0997 12.9702 14.1772 12.6698 14.35 12.4235L14.8347 11.7336L15.9756 10.11C16.5907 9.60096 17.3334 8.83483 17.9075 8.07948C18.1038 8.80264 18.203 9.55014 18.203 10.3128C18.203 12.9126 17.0399 15.2428 15.1868 16.814ZM15.542 8.93108C14.1968 7.7003 12.7299 5.8064 12.7292 3.98624C12.7292 3.98589 12.7292 3.98554 12.7292 3.98519C12.7292 2.44418 13.9814 1.17187 15.5425 1.17187C17.0936 1.17187 18.3555 2.43394 18.3555 3.98519C18.3555 5.81382 16.8918 7.68635 15.542 8.93108Z" fill="#6D6D6D"/>
</svg>
