<svg width="24" height="20" viewBox="0 0 24 20" fill="none" xmlns="http://www.w3.org/2000/svg">
<path d="M6.62133 0H1.62867C0.730594 0 0 0.730594 0 1.62867V6.62133C0 7.51941 0.730594 8.25 1.62867 8.25H6.62133C7.51941 8.25 8.25 7.51941 8.25 6.62133V1.62867C8.25 0.730594 7.51941 0 6.62133 0Z" fill="url(#paint0_linear_1482_24414)"/>
<path d="M6.62133 10.875H1.62867C0.730594 10.875 0 11.6056 0 12.5037V17.4963C0 18.3944 0.730594 19.125 1.62867 19.125H6.62133C7.51941 19.125 8.25 18.3944 8.25 17.4963V12.5037C8.25 11.6056 7.51941 10.875 6.62133 10.875Z" fill="url(#paint1_linear_1482_24414)"/>
<path d="M23.25 3.75H11.25C10.8358 3.75 10.5 3.41419 10.5 3C10.5 2.58581 10.8358 2.25 11.25 2.25H23.25C23.6642 2.25 24 2.58581 24 3C24 3.41419 23.6642 3.75 23.25 3.75Z" fill="url(#paint2_linear_1482_24414)"/>
<path d="M19.125 6.5625H11.25C10.8358 6.5625 10.5 6.22669 10.5 5.8125C10.5 5.39831 10.8358 5.0625 11.25 5.0625H19.125C19.5392 5.0625 19.875 5.39831 19.875 5.8125C19.875 6.22669 19.5392 6.5625 19.125 6.5625Z" fill="url(#paint3_linear_1482_24414)"/>
<path d="M23.25 14.4375H11.25C10.8358 14.4375 10.5 14.1017 10.5 13.6875C10.5 13.2733 10.8358 12.9375 11.25 12.9375H23.25C23.6642 12.9375 24 13.2733 24 13.6875C24 14.1017 23.6642 14.4375 23.25 14.4375Z" fill="url(#paint4_linear_1482_24414)"/>
<path d="M19.125 17.4375H11.25C10.8358 17.4375 10.5 17.1017 10.5 16.6875C10.5 16.2733 10.8358 15.9375 11.25 15.9375H19.125C19.5392 15.9375 19.875 16.2733 19.875 16.6875C19.875 17.1017 19.5392 17.4375 19.125 17.4375Z" fill="url(#paint5_linear_1482_24414)"/>
<defs>
<linearGradient id="paint0_linear_1482_24414" x1="4.125" y1="0" x2="4.125" y2="8.25" gradientUnits="userSpaceOnUse">
<stop stop-color="#4285F4"/>
</linearGradient>
<linearGradient id="paint1_linear_1482_24414" x1="4.125" y1="10.875" x2="4.125" y2="19.125" gradientUnits="userSpaceOnUse">
<stop stop-color="#4285F4"/>
</linearGradient>
<linearGradient id="paint2_linear_1482_24414" x1="17.25" y1="2.25" x2="17.25" y2="3.75" gradientUnits="userSpaceOnUse">
<stop stop-color="#4285F4"/>
</linearGradient>
<linearGradient id="paint3_linear_1482_24414" x1="15.1875" y1="5.0625" x2="15.1875" y2="6.5625" gradientUnits="userSpaceOnUse">
<stop stop-color="#4285F4"/>
</linearGradient>
<linearGradient id="paint4_linear_1482_24414" x1="17.25" y1="12.9375" x2="17.25" y2="14.4375" gradientUnits="userSpaceOnUse">
<stop stop-color="#4285F4"/>
</linearGradient>
<linearGradient id="paint5_linear_1482_24414" x1="15.1875" y1="15.9375" x2="15.1875" y2="17.4375" gradientUnits="userSpaceOnUse">
<stop stop-color="#4285F4"/>
</linearGradient>
</defs>
</svg>
