<svg width="20" height="19" viewBox="0 0 20 19" fill="none" xmlns="http://www.w3.org/2000/svg">
<path d="M9.51904 17.4304C7.83264 15.399 6.13144 13.8847 4.63058 12.5488L4.61929 12.5388C2.03857 10.2432 0 8.42987 0 5.55511C0 2.38815 2.28394 0 5.3125 0C6.39771 0 7.39273 0.343933 8.26981 1.02219C9.11057 1.67252 9.67041 2.50061 10 3.10303C10.3296 2.50076 10.8894 1.67252 11.7302 1.02219C12.6073 0.343933 13.6023 0 14.6875 0C17.7161 0 20 2.38815 20 5.55511C20 8.43002 17.9614 10.2432 15.3807 12.5389L15.3694 12.5488C13.8686 13.8847 12.1674 15.399 10.481 17.4304L10 18.0096L9.51904 17.4304Z" fill="#6D6D6D"/>
</svg>
