<svg width="20" height="20" viewBox="0 0 20 20" fill="none" xmlns="http://www.w3.org/2000/svg">
<path d="M10 0C4.48615 0 0 4.48615 0 10C0 15.5138 4.48615 20 10 20C15.5138 20 20 15.5138 20 10C20 4.48615 15.5138 0 10 0ZM10 15.3846C9.57462 15.3846 9.23077 15.04 9.23077 14.6154C9.23077 14.1908 9.57462 13.8462 10 13.8462C10.4254 13.8462 10.7692 14.1908 10.7692 14.6154C10.7692 15.04 10.4254 15.3846 10 15.3846ZM10.7692 10.6723V11.5385C10.7692 11.9631 10.4254 12.3077 10 12.3077C9.57462 12.3077 9.23077 11.9631 9.23077 11.5385V10C9.23077 9.57539 9.57462 9.23077 10 9.23077C10.8485 9.23077 11.5385 8.54077 11.5385 7.69231C11.5385 6.84385 10.8485 6.15385 10 6.15385C9.15154 6.15385 8.46154 6.84385 8.46154 7.69231C8.46154 8.11692 8.11769 8.46154 7.69231 8.46154C7.26692 8.46154 6.92308 8.11692 6.92308 7.69231C6.92308 5.99538 8.30308 4.61538 10 4.61538C11.6969 4.61538 13.0769 5.99538 13.0769 7.69231C13.0769 9.12308 12.0954 10.3292 10.7692 10.6723Z" fill="#6D6D6D"/>
</svg>
