<svg width="23" height="20" viewBox="0 0 23 20" fill="none" xmlns="http://www.w3.org/2000/svg">
<path d="M21.9556 4.0986C21.6065 3.29655 21.1032 2.56975 20.4737 1.95886C19.8438 1.34616 19.101 0.85925 18.2859 0.524616C17.4407 0.176245 16.5342 -0.002072 15.619 1.81642e-05C14.335 1.81642e-05 13.0822 0.348889 11.9936 1.00787C11.7331 1.1655 11.4857 1.33865 11.2513 1.5273C11.0169 1.33865 10.7695 1.1655 10.509 1.00787C9.42035 0.348889 8.1676 1.81642e-05 6.8836 1.81642e-05C5.95902 1.81642e-05 5.06308 0.175746 4.21663 0.524616C3.39883 0.860566 2.66176 1.34382 2.02888 1.95886C1.39859 2.56906 0.895097 3.29604 0.546938 4.0986C0.184917 4.93331 0 5.8197 0 6.73193C0 7.59248 0.177104 8.4892 0.528706 9.40144C0.823011 10.1638 1.24493 10.9546 1.78406 11.7531C2.63832 13.0168 3.81294 14.3347 5.27144 15.6708C7.68838 17.8855 10.0819 19.4153 10.1835 19.4773L10.8007 19.8701C11.0742 20.0433 11.4258 20.0433 11.6993 19.8701L12.3165 19.4773C12.4181 19.4127 14.809 17.8855 17.2285 15.6708C18.687 14.3347 19.8617 13.0168 20.7159 11.7531C21.255 10.9546 21.6796 10.1638 21.9713 9.40144C22.3229 8.4892 22.5 7.59248 22.5 6.73193C22.5026 5.8197 22.3177 4.93331 21.9556 4.0986V4.0986Z" fill="#EB5757"/>
</svg>
