<svg width="24" height="20" viewBox="0 0 24 20" fill="none" xmlns="http://www.w3.org/2000/svg">
<path d="M15.387 0H7.95021C5.84232 0.0020595 3.82135 0.84033 2.33084 2.33084C0.84033 3.82135 0.0020595 5.84232 0 7.95021V9.16375C0.0020595 11.2716 0.84033 13.2926 2.33084 14.7831C3.82135 16.2736 5.84232 17.1119 7.95021 17.114H10.8907L12.3765 19.4477C12.4815 19.6171 12.6281 19.7569 12.8024 19.8535C12.9767 19.9502 13.1729 20.0006 13.3722 20C13.5729 19.9983 13.7698 19.9452 13.9441 19.8458C14.1184 19.7464 14.2643 19.6039 14.3679 19.4321L15.7993 17.0984C17.8073 17.0578 19.7198 16.2336 21.1283 14.8019C22.5367 13.3701 23.3295 11.4444 23.3372 9.43602V7.95021C23.3352 5.84232 22.4969 3.82135 21.0064 2.33084C19.5159 0.84033 17.4949 0.0020595 15.387 0Z" fill="#6D6D6D"/>
</svg>
