<svg width="83" height="100" viewBox="0 0 83 100" fill="none" xmlns="http://www.w3.org/2000/svg">
<path d="M51.7258 82.7585H31.0361C30.0827 82.7585 29.312 83.531 29.312 84.4827V91.3792C29.312 92.331 30.0827 93.1034 31.0361 93.1034H51.7258C52.6793 93.1034 53.4499 92.331 53.4499 91.3792V84.4827C53.4499 83.531 52.6775 82.7585 51.7258 82.7585Z" fill="url(#paint0_linear_1482_26882)"/>
<path d="M51.7259 89.655H31.0362C26.2828 89.655 22.4155 93.5223 22.4155 98.2757C22.4155 99.2274 23.1862 99.9999 24.1397 99.9999H58.6224C59.5759 99.9999 60.3466 99.2274 60.3466 98.2757C60.3466 93.5223 56.4776 89.655 51.7259 89.655Z" fill="url(#paint1_linear_1482_26882)"/>
<path d="M63.7954 100H18.9678C18.0143 100 17.2437 99.2276 17.2437 98.2759C17.2437 97.3242 18.0143 96.5518 18.9678 96.5518H63.7954C64.7488 96.5518 65.5195 97.3242 65.5195 98.2759C65.5195 99.2276 64.7471 100 63.7954 100Z" fill="url(#paint2_linear_1482_26882)"/>
<path d="M74.1466 27.5862H8.62931C3.87586 27.5862 0.00862007 31.4534 0.00862007 36.2069V50.8724C0.00517179 50.8707 0.00344828 50.8689 0 50.8672V77.5862C0 82.3396 3.86724 86.2069 8.62069 86.2069H74.1466C78.9 86.2069 82.7672 82.3396 82.7672 77.5862V70.6896V36.2069C82.7672 31.4534 78.9 27.5862 74.1466 27.5862V27.5862Z" fill="#FAFBFB"/>
<path d="M74.1466 27.5862H8.62931C3.87586 27.5862 0.00862007 31.4534 0.00862007 36.2069V50.8724C0.00517179 50.8707 0.00344828 50.8689 0 50.8672V77.5862C0 82.3396 3.86724 86.2069 8.62069 86.2069H74.1466C78.9 86.2069 82.7672 82.3396 82.7672 77.5862V70.6896V36.2069C82.7672 31.4534 78.9 27.5862 74.1466 27.5862V27.5862ZM3.4569 36.2069C3.4569 33.3551 5.77759 31.0345 8.62931 31.0345H74.1466C76.9983 31.0345 79.319 33.3551 79.319 36.2069V51.5034C79.3155 51.5034 79.3138 51.5017 79.3103 51.5V68.9655H3.4569V36.2069Z" fill="url(#paint3_linear_1482_26882)"/>
<path d="M71.3243 18.164C70.6915 17.5622 69.7105 17.5295 69.0398 18.0829L44.4708 38.3243C44.0743 38.6519 43.8433 39.1398 43.8433 39.6553C43.8433 40.1709 44.0743 40.6588 44.4708 40.9864L69.0398 61.2278C69.3605 61.4898 69.7467 61.6209 70.1364 61.6209C70.5657 61.6209 70.9933 61.4622 71.3243 61.1467C72.0243 60.4795 72.4105 59.5829 72.4105 58.6209V20.6898C72.4105 19.7278 72.0243 18.8312 71.3243 18.164Z" fill="url(#paint4_linear_1482_26882)"/>
<path d="M13.7137 18.0827C13.0396 17.531 12.0603 17.5621 11.4292 18.1638C10.7292 18.831 10.3413 19.7276 10.3413 20.6896V58.6207C10.3413 59.5827 10.7292 60.4793 11.4292 61.1465C11.7603 61.4621 12.1879 61.6207 12.6172 61.6207C13.0068 61.6207 13.393 61.4896 13.7137 61.2276L38.2827 40.9862C38.6792 40.6586 38.9103 40.1707 38.9103 39.6552C38.9103 39.1396 38.6792 38.6517 38.2827 38.3241L13.7137 18.0827Z" fill="url(#paint5_linear_1482_26882)"/>
<path d="M71.231 58.5654L46.662 38.324C46.0258 37.7999 45.1069 37.7999 44.4707 38.324L41.3776 40.8706L38.2827 38.324C37.6465 37.7999 36.7275 37.7999 36.0913 38.324L11.5224 58.5654C11.1327 58.8861 10.9051 59.3602 10.8948 59.8637C10.8862 60.3671 11.0965 60.8499 11.4741 61.1844C12.112 61.755 12.9362 62.0688 13.7896 62.0688H68.962C69.812 62.0688 70.6362 61.7568 71.2776 61.1895C71.6569 60.8551 71.8689 60.3723 71.8603 59.8671C71.85 59.3619 71.6207 58.8861 71.231 58.5654V58.5654Z" fill="url(#paint6_linear_1482_26882)"/>
<path d="M71.2759 18.1208C70.6345 17.5535 69.8103 17.2415 68.9603 17.2415H13.7879C12.9345 17.2415 12.1103 17.5552 11.4707 18.1242C11.0931 18.4587 10.8827 18.9415 10.8914 19.4449C10.9017 19.9484 11.131 20.4225 11.519 20.7432L39.1845 43.5346C39.819 44.057 40.5965 44.3173 41.3759 44.3173C42.1552 44.3173 42.9328 44.057 43.5672 43.5328L71.231 20.7449C71.6207 20.4225 71.85 19.9484 71.8586 19.4432C71.8672 18.938 71.6552 18.4552 71.2759 18.1208V18.1208Z" fill="url(#paint7_linear_1482_26882)"/>
<path d="M41.381 27.5862C48.9987 27.5862 55.1741 21.4108 55.1741 13.7931C55.1741 6.17538 48.9987 0 41.381 0C33.7633 0 27.5879 6.17538 27.5879 13.7931C27.5879 21.4108 33.7633 27.5862 41.381 27.5862Z" fill="url(#paint8_linear_1482_26882)"/>
<path d="M43.819 13.7932L46.0484 11.5639C46.7225 10.8898 46.7225 9.8001 46.0484 9.12596C45.3742 8.45183 44.2846 8.45183 43.6104 9.12596L41.3811 11.3553L39.1518 9.12596C38.4777 8.45183 37.388 8.45183 36.7139 9.12596C36.0397 9.8001 36.0397 10.8898 36.7139 11.5639L38.9415 13.7932L36.7121 16.0225C36.038 16.6967 36.038 17.7863 36.7121 18.4604C37.0501 18.7967 37.4915 18.9656 37.9328 18.9656C38.3742 18.9656 38.8156 18.7967 39.1518 18.4604L41.3811 16.2311L43.6104 18.4604C43.9466 18.7967 44.388 18.9656 44.8294 18.9656C45.2708 18.9656 45.7121 18.7967 46.0484 18.4604C46.7225 17.7863 46.7225 16.6967 46.0484 16.0225L43.819 13.7932Z" fill="#F7F7F7"/>
<defs>
<linearGradient id="paint0_linear_1482_26882" x1="41.381" y1="82.7585" x2="41.381" y2="93.1034" gradientUnits="userSpaceOnUse">
<stop stop-color="#121211"/>
<stop offset="0.541667" stop-color="#333333"/>
<stop offset="1"/>
</linearGradient>
<linearGradient id="paint1_linear_1482_26882" x1="41.381" y1="89.655" x2="41.381" y2="99.9999" gradientUnits="userSpaceOnUse">
<stop stop-color="#121211"/>
<stop offset="0.541667" stop-color="#333333"/>
<stop offset="1"/>
</linearGradient>
<linearGradient id="paint2_linear_1482_26882" x1="41.3816" y1="96.5518" x2="41.3816" y2="100" gradientUnits="userSpaceOnUse">
<stop stop-color="#121211"/>
<stop offset="0.541667" stop-color="#333333"/>
<stop offset="1"/>
</linearGradient>
<linearGradient id="paint3_linear_1482_26882" x1="41.3836" y1="27.5862" x2="41.3836" y2="86.2069" gradientUnits="userSpaceOnUse">
<stop stop-color="#121211"/>
<stop offset="0.541667" stop-color="#333333"/>
<stop offset="1"/>
</linearGradient>
<linearGradient id="paint4_linear_1482_26882" x1="58.1269" y1="17.6892" x2="58.1269" y2="61.6209" gradientUnits="userSpaceOnUse">
<stop stop-color="#D5D5D7"/>
<stop offset="0.489583" stop-color="#F5F5F5"/>
<stop offset="1" stop-color="#A2A2A4"/>
</linearGradient>
<linearGradient id="paint5_linear_1482_26882" x1="24.6258" y1="17.6897" x2="24.6258" y2="61.6207" gradientUnits="userSpaceOnUse">
<stop stop-color="#D5D5D7"/>
<stop offset="0.489583" stop-color="#F5F5F5"/>
<stop offset="1" stop-color="#A2A2A4"/>
</linearGradient>
<linearGradient id="paint6_linear_1482_26882" x1="41.3775" y1="37.9309" x2="41.3775" y2="62.0688" gradientUnits="userSpaceOnUse">
<stop stop-color="#D5D5D7"/>
<stop offset="0.489583" stop-color="#F5F5F5"/>
<stop offset="1" stop-color="#A2A2A4"/>
</linearGradient>
<linearGradient id="paint7_linear_1482_26882" x1="41.375" y1="17.2415" x2="41.375" y2="44.3173" gradientUnits="userSpaceOnUse">
<stop stop-color="#D5D5D7"/>
<stop offset="0.489583" stop-color="#F5F5F5"/>
<stop offset="1" stop-color="#A2A2A4"/>
</linearGradient>
<linearGradient id="paint8_linear_1482_26882" x1="41.381" y1="0" x2="41.381" y2="27.5862" gradientUnits="userSpaceOnUse">
<stop stop-color="#121211"/>
<stop offset="0.541667" stop-color="#333333"/>
<stop offset="1"/>
</linearGradient>
</defs>
</svg>
