<svg width="41" height="14" viewBox="0 0 41 14" fill="none" xmlns="http://www.w3.org/2000/svg">
<path d="M40.315 8.03675L35.2794 2.8223C34.0928 1.59349 32.1256 1.56132 30.8942 2.75053L30.4713 3.15889L30.0486 2.72119C28.862 1.49239 26.8948 1.46021 25.6634 2.64942L25.2405 3.05778L24.833 2.63584C23.6464 1.40704 21.6792 1.37482 20.4478 2.56399L20.0217 2.97549C19.2051 2.22671 18.1563 1.80679 17.0378 1.78847C15.825 1.76863 14.6762 2.22223 13.8027 3.06571L13.5973 3.26406C12.5001 2.50233 11.1976 2.07938 9.83905 2.05712L9.01187 2.0436C8.87707 2.04141 8.74468 2.00358 8.62907 1.93419L6.79696 0.834692C6.36394 0.574856 5.80586 0.659288 5.47009 1.03539C5.31218 1.21214 5.16453 1.40584 5.03105 1.61117C4.86336 1.86954 4.9128 2.21473 5.14738 2.41469L5.44204 2.66621L4.72174 2.92199C4.515 2.9954 4.36154 3.17413 4.32124 3.38869C4.26888 3.66847 4.2396 3.95837 4.23413 4.25035C4.22028 4.99855 4.36446 5.6371 4.56583 6.15917C4.49568 6.16795 4.42452 6.16775 4.35422 6.15701L2.07306 5.80863C1.57851 5.73307 1.09761 6.01978 0.929629 6.49033C0.776807 6.9184 0.683082 7.39017 0.658646 7.85479C0.643163 8.14925 0.839512 8.41422 1.12525 8.48468L1.8919 8.67398L1.18144 9.41143C1.01013 9.58927 0.960836 9.85024 1.05588 10.0763C1.32969 10.7279 1.6953 11.2317 2.06616 11.6157C2.51059 12.0759 2.96267 12.3642 3.27324 12.5282C3.71428 12.7612 4.26208 12.6468 4.5756 12.2562L5.81856 10.708C5.88735 10.6222 5.9741 10.5526 6.07176 10.503C6.26473 11.1068 6.61533 11.802 7.24708 12.4562C7.41576 12.6309 7.69434 12.6354 7.86935 12.4664C8.04436 12.2974 8.04956 12.0189 7.88088 11.8442C6.94661 10.8767 6.75739 9.80782 6.72775 9.25684C6.72354 9.17909 6.77616 9.10885 6.8528 9.08962L9.09317 8.52879C9.37384 8.45855 9.63224 8.31509 9.8405 8.11397L10.9785 7.01497C11.1014 7.09945 11.2168 7.19672 11.3228 7.30645L12.8747 8.91354C12.9033 8.9432 12.9323 8.97237 12.9615 9.00117L11.5872 10.3283C11.3789 10.5295 11.2266 10.7827 11.1466 11.0607L10.5978 12.9678C10.576 13.0437 10.5039 13.0938 10.4264 13.0869C10.1903 13.0659 9.82186 13.0085 9.40712 12.8538C9.17959 12.769 8.92587 12.8848 8.84056 13.1125C8.77899 13.2768 8.8218 13.4544 8.93584 13.5725C8.97995 13.6182 9.03468 13.6549 9.09812 13.6786C9.50477 13.8302 9.9249 13.9261 10.3467 13.9636C10.8439 14.0077 11.3053 13.6906 11.4437 13.2094L11.9925 11.3023C12.0298 11.1726 12.1009 11.0545 12.1981 10.9606L13.6424 9.56592C15.4951 10.85 18.0225 10.777 19.8074 9.32384C20.9965 10.5274 22.9445 10.5515 24.1673 9.37074L24.5866 8.96585L25.0022 9.3962C26.1888 10.625 28.156 10.6572 29.3874 9.46801L29.8103 9.05965L30.2177 9.48158C31.4044 10.7104 33.3716 10.7426 34.603 9.5534L35.0259 9.14504L35.4486 9.58274C36.6352 10.8115 38.6024 10.8437 39.8338 9.6545L40.2931 9.21097C40.6229 8.89254 40.6327 8.36577 40.315 8.03675ZM9.22992 7.48153C9.13278 7.57533 9.01223 7.64227 8.8813 7.67504L6.64093 8.23587C6.15528 8.35742 5.82216 8.80739 5.84897 9.30597C5.85415 9.40182 5.86343 9.51086 5.87846 9.63009L5.82187 9.65216C5.55226 9.75728 5.31396 9.93221 5.13277 10.1579L3.8898 11.7062C3.84037 11.7678 3.75448 11.7861 3.68578 11.7498C3.24112 11.5149 2.4417 10.9679 1.93825 9.8931L3.05457 8.73424C3.16381 8.62091 3.20433 8.45799 3.16094 8.30702C3.11759 8.15593 2.99691 8.03975 2.84432 8.00207L1.55488 7.68371C1.59591 7.30162 1.68509 6.99029 1.75855 6.78462C1.78471 6.71126 1.86035 6.66672 1.93836 6.67859L4.21956 7.02702C4.46988 7.0652 4.72617 7.04496 4.96702 6.96874C5.10199 7.18765 5.23603 7.36678 5.34991 7.50374C5.36664 7.52384 5.38399 7.54317 5.40191 7.56172C5.72903 7.90046 6.24934 7.98062 6.66873 7.74784L8.54041 6.709C8.65841 6.64348 8.79222 6.61004 8.92706 6.61219L9.75432 6.6258C9.86624 6.62763 9.97681 6.63762 10.0853 6.65546L9.22988 7.48148L9.22992 7.48153ZM23.5566 8.7383C22.6746 9.58994 21.2657 9.56685 20.4158 8.68684L17.5666 5.7364C17.4088 5.573 17.1968 5.48095 16.9691 5.47714C16.7417 5.47354 16.5264 5.55856 16.3628 5.71663L16.2612 5.81472C16.2271 5.79232 16.1949 5.76625 16.1654 5.73574L15.8416 5.40046C15.6729 5.22579 15.3944 5.22126 15.2194 5.39027C15.0443 5.55927 15.0391 5.83784 15.2078 6.01251L15.5316 6.34779C15.9784 6.8105 16.6628 6.90923 17.212 6.63804L19.1932 8.68972C17.4985 10.0194 15.0338 9.88062 13.5086 8.30137L11.9567 6.69423C11.3791 6.09623 10.6027 5.75936 9.77063 5.74579L8.94334 5.73222C8.65413 5.72751 8.36753 5.79923 8.11451 5.93971L6.24286 6.9785C6.17004 7.01894 6.07954 7.00361 6.02719 6.94009C5.67549 6.51713 5.08916 5.60717 5.11409 4.26467C5.11763 4.0736 5.1334 3.88395 5.16106 3.69908L6.45372 3.24006C6.60194 3.1874 6.71105 3.05974 6.73984 2.90513C6.76871 2.75052 6.71306 2.59244 6.59338 2.49049L5.90046 1.89902C5.97215 1.80153 6.0476 1.70843 6.12602 1.62061C6.18034 1.55974 6.2715 1.54667 6.34279 1.58945L8.17486 2.68891C8.42259 2.83763 8.7064 2.91868 8.99556 2.92344L9.82273 2.93697C11.3116 2.96133 12.7232 3.53772 13.7977 4.55985C13.9735 4.72717 14.2521 4.71995 14.4198 4.54371C14.5876 4.36747 14.5816 4.08904 14.405 3.92158C14.3674 3.88583 14.3295 3.85064 14.2912 3.81587L14.4133 3.69795C15.1175 3.01796 16.0437 2.65224 17.0214 2.66831C17.9991 2.6843 18.9111 3.08007 19.5896 3.78273L19.6401 3.83031C19.6559 3.85526 19.6744 3.87901 19.6957 3.90106L23.9759 8.33337L23.5566 8.7383ZM33.9923 8.92099C33.1103 9.77272 31.7014 9.74963 30.8515 8.86954L30.1509 8.14401C30.147 8.13962 30.1435 8.13503 30.1393 8.13076L27.8568 5.76713C27.6881 5.59245 27.4095 5.58792 27.2345 5.75693C27.0595 5.92594 27.0543 6.2045 27.223 6.37918L29.2002 8.42663L28.7767 8.83561C27.8948 9.68729 26.4859 9.6642 25.636 8.78415L20.6349 3.60536L21.0584 3.19639C21.9404 2.3447 23.3493 2.3678 24.1992 3.24789L25.7765 4.88131C25.9452 5.05598 26.2238 5.06051 26.3988 4.8915C26.5738 4.7225 26.579 4.44393 26.4103 4.26926L25.8511 3.69018L26.274 3.28178C27.156 2.43005 28.5649 2.45315 29.4148 3.3332L30.1302 4.07406C30.1343 4.07857 30.1379 4.08338 30.1422 4.08777L30.1461 4.0905L34.4158 8.51194L33.9923 8.92095L33.9923 8.92099ZM39.2231 9.0221C38.3411 9.87383 36.9322 9.85073 36.0824 8.97069L31.0813 3.79194L31.5049 3.38293C32.3869 2.5312 33.7958 2.5543 34.6456 3.43435L39.6467 8.61313L39.2232 9.02214L39.2231 9.0221Z" fill="url(#paint0_linear_1482_21939)"/>
<defs>
<linearGradient id="paint0_linear_1482_21939" x1="30.4456" y1="-2.18328" x2="8.86539" y2="18.6565" gradientUnits="userSpaceOnUse">
<stop stop-color="#121211"/>
<stop offset="0.541667" stop-color="#333333"/>
<stop offset="1"/>
</linearGradient>
</defs>
</svg>
