<svg width="41" height="14" viewBox="0 0 41 14" fill="none" xmlns="http://www.w3.org/2000/svg">
<path d="M0.575675 8.03675L5.61121 2.8223C6.79785 1.59349 8.765 1.56132 9.99646 2.75053L10.4193 3.15889L10.842 2.72119C12.0287 1.49239 13.9958 1.46021 15.2273 2.64942L15.6501 3.05778L16.0576 2.63584C17.2442 1.40704 19.2114 1.37482 20.4428 2.56399L20.869 2.97549C21.6855 2.22671 22.7343 1.80679 23.8528 1.78847C25.0656 1.76863 26.2145 2.22223 27.0879 3.06571L27.2933 3.26406C28.3905 2.50233 29.693 2.07938 31.0516 2.05712L31.8788 2.0436C32.0136 2.04141 32.1459 2.00358 32.2616 1.93419L34.0937 0.834692C34.5267 0.574856 35.0848 0.659288 35.4205 1.03539C35.5784 1.21214 35.7261 1.40584 35.8596 1.61117C36.0273 1.86954 35.9778 2.21473 35.7432 2.41469L35.4486 2.66621L36.1689 2.92199C36.3756 2.9954 36.5291 3.17413 36.5694 3.38869C36.6217 3.66847 36.651 3.95837 36.6565 4.25035C36.6703 4.99855 36.5262 5.6371 36.3248 6.15917C36.3949 6.16795 36.4661 6.16775 36.5364 6.15701L38.8176 5.80863C39.3121 5.73307 39.793 6.01978 39.961 6.49033C40.1138 6.9184 40.2075 7.39017 40.232 7.85479C40.2475 8.14925 40.0511 8.41422 39.7654 8.48468L38.9987 8.67398L39.7092 9.41143C39.8805 9.58927 39.9298 9.85024 39.8347 10.0763C39.5609 10.7279 39.1953 11.2317 38.8245 11.6157C38.38 12.0759 37.928 12.3642 37.6174 12.5282C37.1763 12.7612 36.6285 12.6468 36.315 12.2562L35.0721 10.708C35.0033 10.6222 34.9165 10.5526 34.8189 10.503C34.6259 11.1068 34.2753 11.802 33.6435 12.4562C33.4749 12.6309 33.1963 12.6354 33.0213 12.4664C32.8463 12.2974 32.8411 12.0189 33.0097 11.8442C33.944 10.8767 34.1332 9.80782 34.1629 9.25684C34.1671 9.17909 34.1145 9.10885 34.0378 9.08962L31.7975 8.52879C31.5168 8.45855 31.2584 8.31509 31.0501 8.11397L29.9121 7.01497C29.7892 7.09945 29.6738 7.19672 29.5678 7.30645L28.0159 8.91354C27.9873 8.9432 27.9583 8.97237 27.9291 9.00117L29.3034 10.3283C29.5117 10.5295 29.664 10.7827 29.744 11.0607L30.2928 12.9678C30.3147 13.0437 30.3867 13.0938 30.4643 13.0869C30.7003 13.0659 31.0688 13.0085 31.4835 12.8538C31.711 12.769 31.9648 12.8848 32.0501 13.1125C32.1116 13.2768 32.0688 13.4544 31.9548 13.5725C31.9107 13.6182 31.8559 13.6549 31.7925 13.6786C31.3859 13.8302 30.9657 13.9261 30.5439 13.9636C30.0467 14.0077 29.5854 13.6906 29.4469 13.2094L28.8981 11.3023C28.8608 11.1726 28.7897 11.0545 28.6925 10.9606L27.2483 9.56592C25.3955 10.85 22.8681 10.777 21.0832 9.32384C19.8941 10.5274 17.9461 10.5515 16.7233 9.37074L16.304 8.96585L15.8884 9.3962C14.7018 10.625 12.7346 10.6572 11.5032 9.46801L11.0803 9.05965L10.6729 9.48158C9.48624 10.7104 7.51906 10.7426 6.28759 9.5534L5.86472 9.14504L5.44204 9.58274C4.2554 10.8115 2.28826 10.8437 1.05679 9.6545L0.597501 9.21097C0.267676 8.89254 0.25794 8.36577 0.575675 8.03675ZM31.6607 7.48153C31.7578 7.57533 31.8784 7.64227 32.0093 7.67504L34.2497 8.23587C34.7353 8.35742 35.0685 8.80739 35.0417 9.30597C35.0365 9.40182 35.0272 9.51086 35.0122 9.63009L35.0688 9.65216C35.3384 9.75728 35.5767 9.93221 35.7579 10.1579L37.0008 11.7062C37.0503 11.7678 37.1361 11.7861 37.2048 11.7498C37.6495 11.5149 38.4489 10.9679 38.9524 9.8931L37.8361 8.73424C37.7268 8.62091 37.6863 8.45799 37.7297 8.30702C37.773 8.15593 37.8937 8.03975 38.0463 8.00207L39.3357 7.68371C39.2947 7.30162 39.2055 6.99029 39.1321 6.78462C39.1059 6.71126 39.0303 6.66672 38.9523 6.67859L36.6711 7.02702C36.4207 7.0652 36.1645 7.04496 35.9236 6.96874C35.7886 7.18765 35.6546 7.36678 35.5407 7.50374C35.524 7.52384 35.5066 7.54317 35.4887 7.56172C35.1616 7.90046 34.6413 7.98062 34.2219 7.74784L32.3502 6.709C32.2322 6.64348 32.0984 6.61004 31.9636 6.61219L31.1363 6.6258C31.0244 6.62763 30.9138 6.63762 30.8054 6.65546L31.6607 7.48148L31.6607 7.48153ZM17.334 8.7383C18.216 9.58994 19.6249 9.56685 20.4748 8.68684L23.324 5.7364C23.4818 5.573 23.6939 5.48095 23.9215 5.47714C24.1489 5.47354 24.3642 5.55856 24.5279 5.71663L24.6294 5.81472C24.6635 5.79232 24.6958 5.76625 24.7252 5.73574L25.049 5.40046C25.2177 5.22579 25.4963 5.22126 25.6713 5.39027C25.8463 5.55927 25.8515 5.83784 25.6828 6.01251L25.359 6.34779C24.9122 6.8105 24.2279 6.90923 23.6787 6.63804L21.6975 8.68972C23.3921 10.0194 25.8569 9.88062 27.382 8.30137L28.9339 6.69423C29.5115 6.09623 30.2879 5.75936 31.12 5.74579L31.9473 5.73222C32.2365 5.72751 32.5231 5.79923 32.7761 5.93971L34.6478 6.9785C34.7206 7.01894 34.8111 7.00361 34.8634 6.94009C35.2151 6.51713 35.8015 5.60717 35.7765 4.26467C35.773 4.0736 35.7572 3.88395 35.7296 3.69908L34.4369 3.24006C34.2887 3.1874 34.1796 3.05974 34.1508 2.90513C34.1219 2.75052 34.1776 2.59244 34.2972 2.49049L34.9902 1.89902C34.9185 1.80153 34.843 1.70843 34.7646 1.62061C34.7103 1.55974 34.6191 1.54667 34.5478 1.58945L32.7158 2.68891C32.468 2.83763 32.1842 2.91868 31.8951 2.92344L31.0679 2.93697C29.579 2.96133 28.1674 3.53772 27.093 4.55985C26.9171 4.72717 26.6385 4.71995 26.4708 4.54371C26.303 4.36747 26.3091 4.08904 26.4856 3.92158C26.5232 3.88583 26.5612 3.85064 26.5994 3.81587L26.4773 3.69795C25.7731 3.01796 24.8469 2.65224 23.8692 2.66831C22.8916 2.6843 21.9795 3.08007 21.301 3.78273L21.2505 3.83031C21.2348 3.85526 21.2162 3.87901 21.1949 3.90106L16.9147 8.33337L17.334 8.7383ZM6.89829 8.92099C7.78028 9.77272 9.1892 9.74963 10.0391 8.86954L10.7397 8.14401C10.7436 8.13962 10.7472 8.13503 10.7513 8.13076L13.0338 5.76713C13.2025 5.59245 13.4811 5.58792 13.6561 5.75693C13.8311 5.92594 13.8363 6.2045 13.6676 6.37918L11.6904 8.42663L12.1139 8.83561C12.9959 9.68729 14.4048 9.6642 15.2546 8.78415L20.2557 3.60536L19.8322 3.19639C18.9503 2.3447 17.5414 2.3678 16.6915 3.24789L15.1141 4.88131C14.9454 5.05598 14.6668 5.06051 14.4918 4.8915C14.3168 4.7225 14.3116 4.44393 14.4803 4.26926L15.0395 3.69018L14.6166 3.28178C13.7346 2.43005 12.3257 2.45315 11.4758 3.3332L10.7604 4.07406C10.7564 4.07857 10.7527 4.08338 10.7485 4.08777L10.7445 4.0905L6.47479 8.51194L6.89834 8.92095L6.89829 8.92099ZM1.6675 9.0221C2.54949 9.87383 3.9584 9.85073 4.80825 8.97069L9.8093 3.79194L9.38576 3.38293C8.50377 2.5312 7.09486 2.5543 6.24501 3.43435L1.24391 8.61313L1.66746 9.02214L1.6675 9.0221Z" fill="url(#paint0_linear_1482_21941)"/>
<defs>
<linearGradient id="paint0_linear_1482_21941" x1="10.445" y1="-2.18328" x2="32.0252" y2="18.6565" gradientUnits="userSpaceOnUse">
<stop stop-color="#121211"/>
<stop offset="0.541667" stop-color="#333333"/>
<stop offset="1"/>
</linearGradient>
</defs>
</svg>
