<svg width="16" height="16" viewBox="0 0 16 16" fill="none" xmlns="http://www.w3.org/2000/svg">
<path d="M0.252768 13.598L3.34578 10.5082C3.42492 10.4283 3.51916 10.3647 3.62305 10.3214C3.72694 10.2781 3.8384 10.2557 3.95098 10.2557C4.06357 10.2557 4.17503 10.2781 4.27892 10.3214C4.3828 10.3647 4.47705 10.4283 4.55618 10.5082L4.78805 10.7484L5.72191 9.81761C4.69736 8.67705 4.15847 7.18231 4.21977 5.65109C4.28107 4.11987 4.93773 2.67289 6.05019 1.6177C7.16265 0.562513 8.64318 -0.0176895 10.1771 0.000411129C11.7111 0.0185117 13.1775 0.633488 14.2647 1.71463C15.3519 2.79578 15.9741 4.25784 15.9992 5.79009C16.0243 7.32233 15.4502 8.80394 14.399 9.92C13.3477 11.0361 11.9022 11.6986 10.3697 11.7668C8.83716 11.835 7.33843 11.3034 6.19204 10.2851L5.25817 11.2159L5.49643 11.4539C5.57682 11.533 5.64067 11.6272 5.68425 11.7312C5.72783 11.8352 5.75027 11.9468 5.75027 12.0595C5.75027 12.1722 5.72783 12.2838 5.68425 12.3878C5.64067 12.4918 5.57682 12.586 5.49643 12.6651L2.40554 15.7464C2.32637 15.8267 2.23199 15.8905 2.12791 15.934C2.02382 15.9776 1.91211 16 1.79927 16C1.68644 16 1.57473 15.9776 1.47064 15.934C1.36656 15.8905 1.27219 15.8267 1.19301 15.7464L0.252768 14.8072C0.172693 14.7281 0.109119 14.634 0.0657301 14.5302C0.0223408 14.4264 0 14.3151 0 14.2026C0 14.0901 0.0223408 13.9788 0.0657301 13.875C0.109119 13.7712 0.172693 13.6771 0.252768 13.598ZM13.6374 9.44786C14.5618 8.50735 15.077 7.24027 15.0711 5.92222C15.0651 4.60418 14.5385 3.34179 13.6056 2.40964C12.6728 1.4775 11.4092 0.950993 10.0898 0.944654C8.77039 0.938315 7.50183 1.45265 6.56005 2.37579C5.63566 3.31631 5.1204 4.58339 5.12635 5.90143C5.1323 7.21947 5.65897 8.48186 6.59182 9.41401C7.52466 10.3462 8.78821 10.8727 10.1076 10.879C11.4271 10.8853 12.6956 10.371 13.6374 9.44786Z" fill="#BDBDBD"/>
</svg>
