<svg width="116" height="19" viewBox="0 0 116 19" fill="none" xmlns="http://www.w3.org/2000/svg">
<path d="M33.9911 13.104C33.2231 13.8293 32.2205 14.192 30.9831 14.192C29.7458 14.192 28.7431 13.8293 27.9751 13.104C27.2071 12.3787 26.8231 11.408 26.8231 10.192V2.8H27.9431V10.192C27.9431 11.088 28.2098 11.7973 28.7431 12.32C29.2765 12.8427 30.0231 13.104 30.9831 13.104C31.9431 13.104 32.6898 12.8427 33.2231 12.32C33.7565 11.7973 34.0231 11.088 34.0231 10.192V2.8H35.1431V10.192C35.1431 11.408 34.7591 12.3787 33.9911 13.104ZM41.6736 5.808C42.815 5.808 43.7856 6.21333 44.5856 7.024C45.3963 7.83467 45.8016 8.82667 45.8016 10C45.8016 11.1733 45.3963 12.1653 44.5856 12.976C43.7856 13.7867 42.815 14.192 41.6736 14.192C40.255 14.192 39.1776 13.6053 38.4416 12.432V17.2H37.3856V6H38.4416V7.568C39.1776 6.39467 40.255 5.808 41.6736 5.808ZM39.3536 12.256C39.9616 12.864 40.7083 13.168 41.5936 13.168C42.479 13.168 43.2256 12.864 43.8336 12.256C44.4416 11.6373 44.7456 10.8853 44.7456 10C44.7456 9.11467 44.4416 8.368 43.8336 7.76C43.2256 7.14133 42.479 6.832 41.5936 6.832C40.7083 6.832 39.9616 7.14133 39.3536 7.76C38.7456 8.368 38.4416 9.11467 38.4416 10C38.4416 10.8853 38.7456 11.6373 39.3536 12.256ZM47.5575 14V2.32H48.6135V14H47.5575ZM57.5584 12.992C56.7477 13.792 55.7557 14.192 54.5824 14.192C53.409 14.192 52.4117 13.792 51.5904 12.992C50.7797 12.1813 50.3744 11.184 50.3744 10C50.3744 8.816 50.7797 7.824 51.5904 7.024C52.4117 6.21333 53.409 5.808 54.5824 5.808C55.7557 5.808 56.7477 6.21333 57.5584 7.024C58.3797 7.824 58.7904 8.816 58.7904 10C58.7904 11.184 58.3797 12.1813 57.5584 12.992ZM52.3424 12.256C52.9504 12.864 53.697 13.168 54.5824 13.168C55.4677 13.168 56.2144 12.864 56.8224 12.256C57.4304 11.6373 57.7344 10.8853 57.7344 10C57.7344 9.11467 57.4304 8.368 56.8224 7.76C56.2144 7.14133 55.4677 6.832 54.5824 6.832C53.697 6.832 52.9504 7.14133 52.3424 7.76C51.7344 8.368 51.4304 9.11467 51.4304 10C51.4304 10.8853 51.7344 11.6373 52.3424 12.256ZM67.4375 6H68.4935V14H67.4375V12.432C66.7015 13.6053 65.6242 14.192 64.2055 14.192C63.0642 14.192 62.0882 13.7867 61.2775 12.976C60.4775 12.1653 60.0775 11.1733 60.0775 10C60.0775 8.82667 60.4775 7.83467 61.2775 7.024C62.0882 6.21333 63.0642 5.808 64.2055 5.808C65.6242 5.808 66.7015 6.39467 67.4375 7.568V6ZM62.0455 12.256C62.6535 12.864 63.4002 13.168 64.2855 13.168C65.1708 13.168 65.9175 12.864 66.5255 12.256C67.1335 11.6373 67.4375 10.8853 67.4375 10C67.4375 9.11467 67.1335 8.368 66.5255 7.76C65.9175 7.14133 65.1708 6.832 64.2855 6.832C63.4002 6.832 62.6535 7.14133 62.0455 7.76C61.4375 8.368 61.1335 9.11467 61.1335 10C61.1335 10.8853 61.4375 11.6373 62.0455 12.256ZM77.6094 2.8H78.6654V14H77.6094V12.432C76.8734 13.6053 75.796 14.192 74.3774 14.192C73.236 14.192 72.26 13.7867 71.4494 12.976C70.6494 12.1653 70.2494 11.1733 70.2494 10C70.2494 8.82667 70.6494 7.83467 71.4494 7.024C72.26 6.21333 73.236 5.808 74.3774 5.808C75.796 5.808 76.8734 6.39467 77.6094 7.568V2.8ZM72.2174 12.256C72.8254 12.864 73.572 13.168 74.4574 13.168C75.3427 13.168 76.0894 12.864 76.6974 12.256C77.3054 11.6373 77.6094 10.8853 77.6094 10C77.6094 9.11467 77.3054 8.368 76.6974 7.76C76.0894 7.14133 75.3427 6.832 74.4574 6.832C73.572 6.832 72.8254 7.14133 72.2174 7.76C71.6094 8.368 71.3054 9.11467 71.3054 10C71.3054 10.8853 71.6094 11.6373 72.2174 12.256ZM92.2613 2.8H93.3813V14H92.4213L86.1813 4.88V14H85.0613V2.8H86.0213L92.2613 11.92V2.8ZM99.4723 5.808C100.656 5.808 101.611 6.22933 102.336 7.072C103.072 7.904 103.44 8.89067 103.44 10.032C103.44 10.1493 103.43 10.3147 103.408 10.528H96.3843C96.4909 11.3387 96.8323 11.984 97.4083 12.464C97.9949 12.9333 98.7149 13.168 99.5683 13.168C100.176 13.168 100.699 13.0453 101.136 12.8C101.584 12.544 101.92 12.2133 102.144 11.808L103.072 12.352C102.72 12.9173 102.24 13.3653 101.632 13.696C101.024 14.0267 100.331 14.192 99.5523 14.192C98.2936 14.192 97.2696 13.7973 96.4803 13.008C95.6909 12.2187 95.2963 11.216 95.2963 10C95.2963 8.80533 95.6856 7.808 96.4643 7.008C97.2429 6.208 98.2456 5.808 99.4723 5.808ZM99.4723 6.832C98.6403 6.832 97.9416 7.08267 97.3763 7.584C96.8216 8.07467 96.4909 8.71467 96.3843 9.504H102.352C102.246 8.66133 101.92 8.00533 101.376 7.536C100.832 7.06667 100.198 6.832 99.4723 6.832ZM114.44 6H115.528L113.064 14H111.911L109.848 7.552L107.784 14H106.632L104.168 6H105.256L107.224 12.64L109.32 6H110.376L112.472 12.64L114.44 6Z" fill="url(#paint0_linear_54_5)"/>
<path d="M14.3183 8.18175C14.1375 8.18175 13.9641 8.25359 13.8362 8.38145C13.7083 8.50932 13.6365 8.68275 13.6365 8.86358V11.7361C13.636 12.2399 13.4356 12.7229 13.0793 13.0792C12.7231 13.4354 12.2401 13.6358 11.7362 13.6364H3.26389C2.76008 13.6358 2.27706 13.4354 1.92082 13.0792C1.56457 12.7229 1.36419 12.2399 1.36365 11.7361V8.86358C1.36365 8.68275 1.29181 8.50932 1.16395 8.38145C1.03608 8.25359 0.862656 8.18175 0.681825 8.18175C0.500994 8.18175 0.327569 8.25359 0.199702 8.38145C0.0718349 8.50932 0 8.68275 0 8.86358V11.7361C0.000902453 12.6015 0.345066 13.4311 0.956969 14.043C1.56887 14.6549 2.39853 14.9991 3.26389 15H11.7362C12.6016 14.9991 13.4313 14.6549 14.0432 14.043C14.6551 13.4311 14.9992 12.6015 15.0001 11.7361V8.86358C15.0001 8.68275 14.9283 8.50932 14.8004 8.38145C14.6726 8.25359 14.4991 8.18175 14.3183 8.18175Z" fill="url(#paint1_linear_54_5)"/>
<path d="M3.89117 5.25468L6.81825 2.3276V10.9091C6.81825 11.0899 6.89008 11.2633 7.01795 11.3912C7.14582 11.519 7.31924 11.5909 7.50007 11.5909C7.6809 11.5909 7.85433 11.519 7.9822 11.3912C8.11006 11.2633 8.1819 11.0899 8.1819 10.9091V2.3276L11.109 5.25468C11.2376 5.37888 11.4098 5.4476 11.5886 5.44605C11.7673 5.44449 11.9383 5.37279 12.0648 5.24637C12.1912 5.11996 12.2629 4.94895 12.2644 4.77017C12.266 4.5914 12.1973 4.41917 12.0731 4.29058L7.98212 0.199629C7.85426 0.0718067 7.68087 0 7.50007 0C7.31928 0 7.14588 0.0718067 7.01802 0.199629L2.92707 4.29058C2.80287 4.41917 2.73415 4.5914 2.7357 4.77017C2.73726 4.94895 2.80896 5.11996 2.93538 5.24637C3.0618 5.37279 3.23281 5.44449 3.41158 5.44605C3.59035 5.4476 3.76258 5.37888 3.89117 5.25468Z" fill="url(#paint2_linear_54_5)"/>
<defs>
<linearGradient id="paint0_linear_54_5" x1="70.5" y1="0" x2="70.5" y2="19" gradientUnits="userSpaceOnUse">
<stop stop-color="#4285F4"/>
</linearGradient>
<linearGradient id="paint1_linear_54_5" x1="7.50007" y1="0" x2="7.50007" y2="15" gradientUnits="userSpaceOnUse">
<stop stop-color="#4285F4"/>
</linearGradient>
<linearGradient id="paint2_linear_54_5" x1="7.50007" y1="0" x2="7.50007" y2="15" gradientUnits="userSpaceOnUse">
<stop stop-color="#4285F4"/>
</linearGradient>
</defs>
</svg>
