<svg width="30" height="22" viewBox="0 0 30 22" fill="none" xmlns="http://www.w3.org/2000/svg">
<path d="M3.12497 7.56302H6.24995C6.05747 7.56302 5.87618 7.4735 5.75747 7.321C5.6387 7.1685 5.59745 6.96932 5.64374 6.78024L6.03251 5.21346C6.24128 4.37018 6.98998 3.78151 7.85125 3.78151H11.875C12.9088 3.78151 13.75 4.62981 13.75 5.67226V6.93274C13.75 7.28064 13.47 7.56302 13.125 7.56302H16.875C16.53 7.56302 16.2499 7.28064 16.2499 6.93274V5.67226C16.2499 4.62981 17.0912 3.78151 18.1249 3.78151H22.1487C23.01 3.78151 23.7587 4.37018 23.9674 5.21346L24.3562 6.78024C24.4037 6.96808 24.3612 7.1685 24.2425 7.321C24.1237 7.4735 23.9425 7.56302 23.75 7.56302H26.875C27.22 7.56302 27.5 7.28064 27.5 6.93274V3.15124C27.5 1.41428 26.0975 0 24.375 0H5.62499C3.90251 0 2.50001 1.41428 2.50001 3.15124V6.93274C2.50001 7.28064 2.77997 7.56302 3.12497 7.56302Z" fill="url(#paint0_linear_1482_23692)"/>
<path d="M26.875 8.82356H3.12497C1.4025 8.82356 0 10.2378 0 11.9748V20.7983C0 21.1462 0.280019 21.4286 0.625018 21.4286C0.970018 21.4286 1.25004 21.1462 1.25004 20.7983V18.9075H28.75V20.7983C28.75 21.1462 29.03 21.4286 29.375 21.4286C29.72 21.4286 30 21.1462 30 20.7983V11.9748C29.9999 10.2378 28.5974 8.82356 26.875 8.82356ZM28.75 17.6471H1.24998V16.3866H28.7499L28.75 17.6471Z" fill="url(#paint1_linear_1482_23692)"/>
<defs>
<linearGradient id="paint0_linear_1482_23692" x1="15" y1="0" x2="15" y2="21.4286" gradientUnits="userSpaceOnUse">
<stop stop-color="#121211"/>
<stop offset="0.541667" stop-color="#333333"/>
<stop offset="1"/>
</linearGradient>
<linearGradient id="paint1_linear_1482_23692" x1="15" y1="0" x2="15" y2="21.4286" gradientUnits="userSpaceOnUse">
<stop stop-color="#121211"/>
<stop offset="0.541667" stop-color="#333333"/>
<stop offset="1"/>
</linearGradient>
</defs>
</svg>
