<svg width="23" height="38" viewBox="0 0 23 38" fill="none" xmlns="http://www.w3.org/2000/svg">
<path d="M0.758569 0.705379C0.252717 1.17511 0 1.73193 0 2.37531L17.25 19L0 35.6248C0 36.2685 0.252717 36.8249 0.758569 37.295C1.26498 37.7651 1.8637 38 2.55583 38C3.24783 38 3.84655 37.7651 4.35254 37.295L22.2409 20.6702C22.7467 20.1995 23 19.6431 23 19C23 18.3569 22.7467 17.7999 22.2409 17.3302L4.3524 0.705379C3.84655 0.235779 3.24783 0 2.5557 0C1.8637 0 1.26498 0.235779 0.758569 0.705379Z" fill="#00C2CB"/>
</svg>
