<svg width="18" height="16" viewBox="0 0 18 16" fill="none" xmlns="http://www.w3.org/2000/svg">
<path d="M16.6292 5.69749L11.396 4.95228L9.05559 0.304958C8.85089 -0.101554 8.25742 -0.101751 8.05256 0.304958L5.71222 4.95228L0.479029 5.69749C0.0213522 5.76269 -0.16246 6.31571 0.169077 6.63236L3.95583 10.2498L3.06186 15.3576C3.02584 15.5633 3.11208 15.771 3.28436 15.8937C3.45658 16.0163 3.68487 16.0325 3.87332 15.9354L8.55407 13.5239C13.65 16.1493 13.2999 15.9984 13.495 15.9984C13.8397 15.9984 14.1051 15.6939 14.0463 15.3576L13.1524 10.2498L16.9391 6.63236C17.2703 6.31594 17.0872 5.76275 16.6292 5.69749Z" fill="url(#paint0_linear_1482_23822)"/>
<defs>
<linearGradient id="paint0_linear_1482_23822" x1="8.55407" y1="0" x2="8.55407" y2="16" gradientUnits="userSpaceOnUse">
<stop stop-color="#F3C63D"/>
<stop offset="0.541667" stop-color="#FFEBAD"/>
<stop offset="1" stop-color="#E2B017" stop-opacity="0.94"/>
</linearGradient>
</defs>
</svg>
