<svg width="30" height="22" viewBox="0 0 30 22" fill="none" xmlns="http://www.w3.org/2000/svg">
<path d="M30 20.4545C30 20.8162 29.8563 21.1631 29.6006 21.4188C29.3449 21.6745 28.998 21.8182 28.6364 21.8182H12.2727C11.9111 21.8182 11.5642 21.6745 11.3085 21.4188C11.0528 21.1631 10.9091 20.8162 10.9091 20.4545C10.9091 18.2846 11.7711 16.2035 13.3055 14.6691C14.8399 13.1347 16.921 12.2727 19.0909 12.2727H21.8182C23.9881 12.2727 26.0692 13.1347 27.6036 14.6691C29.138 16.2035 30 18.2846 30 20.4545ZM20.4545 0C19.3757 0 18.3212 0.319903 17.4242 0.919256C16.5272 1.51861 15.828 2.37049 15.4152 3.36718C15.0024 4.36387 14.8943 5.4606 15.1048 6.51867C15.3153 7.57675 15.8348 8.54866 16.5976 9.31149C17.3604 10.0743 18.3323 10.5938 19.3904 10.8043C20.4485 11.0147 21.5452 10.9067 22.5419 10.4939C23.5386 10.081 24.3905 9.38192 24.9898 8.48493C25.5892 7.58793 25.9091 6.53335 25.9091 5.45455C25.9091 4.00791 25.3344 2.62052 24.3115 1.5976C23.2886 0.574673 21.9012 0 20.4545 0ZM8.18182 0C7.10301 0 6.04843 0.319903 5.15143 0.919256C4.25444 1.51861 3.55532 2.37049 3.14248 3.36718C2.72963 4.36387 2.62162 5.4606 2.83208 6.51867C3.04255 7.57675 3.56204 8.54866 4.32487 9.31149C5.0877 10.0743 6.05961 10.5938 7.11769 10.8043C8.17577 11.0147 9.2725 10.9067 10.2692 10.4939C11.2659 10.081 12.1178 9.38192 12.7171 8.48493C13.3165 7.58793 13.6364 6.53335 13.6364 5.45455C13.6364 4.00791 13.0617 2.62052 12.0388 1.5976C11.0158 0.574673 9.62845 0 8.18182 0ZM8.18182 20.4545C8.17979 19.0222 8.46199 17.6037 9.01206 16.2812C9.56213 14.9586 10.3692 13.7584 11.3864 12.75C10.5539 12.4357 9.67163 12.274 8.78182 12.2727H7.58182C5.5721 12.2763 3.64573 13.0763 2.22464 14.4974C0.803559 15.9185 0.00360488 17.8448 0 19.8545V20.4545C0 20.8162 0.143668 21.1631 0.3994 21.4188C0.655131 21.6745 1.00198 21.8182 1.36364 21.8182H8.42727C8.26851 21.3809 8.18551 20.9197 8.18182 20.4545Z" fill="url(#paint0_linear_1482_23690)"/>
<defs>
<linearGradient id="paint0_linear_1482_23690" x1="15" y1="0" x2="15" y2="21.8182" gradientUnits="userSpaceOnUse">
<stop stop-color="#121211"/>
<stop offset="0.541667" stop-color="#333333"/>
<stop offset="1"/>
</linearGradient>
</defs>
</svg>
