<svg width="20" height="17" viewBox="0 0 20 17" fill="none" xmlns="http://www.w3.org/2000/svg">
<path d="M18.5645 3.77888C18.2852 3.13724 17.8825 2.5558 17.379 2.06709C16.875 1.57693 16.2808 1.1874 15.6288 0.919693C14.9526 0.640996 14.2274 0.498342 13.4952 0.500015C12.468 0.500015 11.4658 0.779111 10.5948 1.30629C10.3865 1.4324 10.1886 1.57092 10.001 1.72184C9.81351 1.57092 9.61557 1.4324 9.40721 1.30629C8.53628 0.779111 7.53408 0.500015 6.50688 0.500015C5.76721 0.500015 5.05046 0.640597 4.3733 0.919693C3.71906 1.18845 3.12941 1.57505 2.6231 2.06709C2.11887 2.55524 1.71608 3.13683 1.43755 3.77888C1.14793 4.44665 1 5.15576 1 5.88554C1 6.57398 1.14168 7.29136 1.42297 8.02115C1.65841 8.63103 1.99595 9.26365 2.42725 9.90247C3.11066 10.9134 4.05035 11.9678 5.21715 13.0366C7.1507 14.8084 9.06551 16.0323 9.14677 16.0819L9.64057 16.3961C9.85935 16.5346 10.1406 16.5346 10.3594 16.3961L10.8532 16.0819C10.9345 16.0302 12.8472 14.8084 14.7828 13.0366C15.9496 11.9678 16.8893 10.9134 17.5727 9.90247C18.004 9.26365 18.3437 8.63103 18.577 8.02115C18.8583 7.29136 19 6.57398 19 5.88554C19.0021 5.15576 18.8541 4.44665 18.5645 3.77888V3.77888Z" stroke="black"/>
</svg>
