<svg width="30" height="30" viewBox="0 0 30 30" fill="none" xmlns="http://www.w3.org/2000/svg">
<path d="M0.880813 14.181H3.57598V17.6965H0.880813C0.395682 17.6965 0.00195312 17.3033 0.00195312 16.8176V15.0599C0.00195312 14.5745 0.395448 14.181 0.880813 14.181Z" fill="url(#paint0_linear_1482_23982)"/>
<path d="M29.1204 14.181C29.6057 14.181 29.9992 14.5745 29.9992 15.0599V16.8176C29.9992 17.3033 29.6055 17.6965 29.1204 17.6965H15.8789V14.181H29.1204Z" fill="url(#paint1_linear_1482_23982)"/>
<path d="M9.19916 12.1284C8.81088 11.8372 8.73213 11.2863 9.02338 10.898C9.9548 9.65609 9.9548 7.92134 9.02338 6.67945C8.33342 5.75952 7.96875 4.66546 7.96875 3.51556C7.96875 2.36566 8.33342 1.27159 9.02338 0.35166C9.31464 -0.0366198 9.86551 -0.115366 10.2538 0.175889C10.6421 0.467084 10.7208 1.01801 10.4296 1.40629C9.49814 2.64818 9.49814 4.38293 10.4296 5.62482C11.1195 6.54475 11.4842 7.63882 11.4842 8.78872C11.4842 9.93862 11.1195 11.0327 10.4296 11.9526C10.1371 12.3425 9.58591 12.4185 9.19916 12.1284Z" fill="url(#paint2_linear_1482_23982)"/>
<path d="M14.4726 12.1284C14.0843 11.8372 14.0056 11.2863 14.2968 10.898C15.2282 9.65609 15.2282 7.92134 14.2968 6.67945C13.6069 5.75952 13.2422 4.66546 13.2422 3.51556C13.2422 2.36566 13.6069 1.27159 14.2968 0.35166C14.588 -0.0366198 15.1389 -0.115366 15.5272 0.175889C15.9155 0.467084 15.9943 1.01801 15.703 1.40629C14.7716 2.64818 14.7716 4.38293 15.703 5.62482C16.3929 6.54475 16.7576 7.63882 16.7576 8.78872C16.7576 9.93862 16.3929 11.0327 15.703 11.9526C15.4106 12.3425 14.8594 12.4185 14.4726 12.1284Z" fill="url(#paint3_linear_1482_23982)"/>
<path d="M19.746 12.1284C19.3578 11.8372 19.279 11.2863 19.5703 10.898C20.5017 9.65609 20.5017 7.92134 19.5703 6.67945C18.8804 5.75952 18.5156 4.66546 18.5156 3.51556C18.5156 2.36566 18.8804 1.27159 19.5703 0.35166C19.8615 -0.0366198 20.4124 -0.115366 20.8007 0.175889C21.1889 0.467084 21.2677 1.01801 20.9764 1.40629C20.045 2.64818 20.045 4.38293 20.9764 5.62482C21.6663 6.54475 22.0311 7.63882 22.0311 8.78872C22.0311 9.93862 21.6663 11.0327 20.9764 11.9526C20.6844 12.3421 20.1333 12.4188 19.746 12.1284Z" fill="url(#paint4_linear_1482_23982)"/>
<path d="M29.1215 28.242H28.1841V19.4534H26.4263V28.242H24.6686C24.6686 25.322 24.6686 19.7986 24.6686 19.4534H22.9109V28.242H21.1532C21.1532 25.322 21.1532 19.7986 21.1532 19.4534H19.3955V28.242H17.6377C17.6377 25.322 17.6377 19.7986 17.6377 19.4534H15.88V28.242H14.1223C14.1223 26.7953 14.1223 24.9613 14.1223 24.5754C13.8475 24.6733 13.5516 24.7266 13.2434 24.7266H12.3646V28.242H10.6069C10.6069 26.8369 10.6069 25.0843 10.6069 24.7266H8.84914V28.242H7.09142C7.09142 26.8369 7.09142 25.0843 7.09142 24.7266H6.21256C5.90438 24.7266 5.60849 24.6733 5.3337 24.5754V28.242H3.57598C3.57598 25.322 3.57598 19.7986 3.57598 19.4534H1.81826V28.242H0.880813C0.395448 28.242 0.00195312 28.6355 0.00195312 29.1209C0.00195312 29.6063 0.395448 29.9997 0.880813 29.9997H29.1215C29.6069 29.9997 30.0004 29.6063 30.0004 29.1209C30.0004 28.6355 29.6069 28.242 29.1215 28.242Z" fill="url(#paint5_linear_1482_23982)"/>
<path d="M13.2418 14.181H6.21089C5.72553 14.181 5.33203 14.5745 5.33203 15.0599V22.0908C5.33203 22.5761 5.72553 22.9696 6.21089 22.9696H13.2418C13.7271 22.9696 14.1206 22.5761 14.1206 22.0908V15.0599C14.1206 14.5745 13.7272 14.181 13.2418 14.181Z" fill="url(#paint6_linear_1482_23982)"/>
<defs>
<linearGradient id="paint0_linear_1482_23982" x1="1.78897" y1="14.181" x2="1.78897" y2="17.6965" gradientUnits="userSpaceOnUse">
<stop stop-color="#121211"/>
<stop offset="0.541667" stop-color="#333333"/>
<stop offset="1"/>
</linearGradient>
<linearGradient id="paint1_linear_1482_23982" x1="22.9391" y1="14.181" x2="22.9391" y2="17.6965" gradientUnits="userSpaceOnUse">
<stop stop-color="#121211"/>
<stop offset="0.541667" stop-color="#333333"/>
<stop offset="1"/>
</linearGradient>
<linearGradient id="paint2_linear_1482_23982" x1="9.72647" y1="6.10352e-05" x2="9.72647" y2="12.3042" gradientUnits="userSpaceOnUse">
<stop stop-color="#121211"/>
<stop offset="0.541667" stop-color="#333333"/>
<stop offset="1"/>
</linearGradient>
<linearGradient id="paint3_linear_1482_23982" x1="14.9999" y1="6.10352e-05" x2="14.9999" y2="12.3042" gradientUnits="userSpaceOnUse">
<stop stop-color="#121211"/>
<stop offset="0.541667" stop-color="#333333"/>
<stop offset="1"/>
</linearGradient>
<linearGradient id="paint4_linear_1482_23982" x1="20.2733" y1="6.10352e-05" x2="20.2733" y2="12.3042" gradientUnits="userSpaceOnUse">
<stop stop-color="#121211"/>
<stop offset="0.541667" stop-color="#333333"/>
<stop offset="1"/>
</linearGradient>
<linearGradient id="paint5_linear_1482_23982" x1="15.0012" y1="19.4534" x2="15.0012" y2="29.9997" gradientUnits="userSpaceOnUse">
<stop stop-color="#121211"/>
<stop offset="0.541667" stop-color="#333333"/>
<stop offset="1"/>
</linearGradient>
<linearGradient id="paint6_linear_1482_23982" x1="9.72633" y1="14.181" x2="9.72633" y2="22.9696" gradientUnits="userSpaceOnUse">
<stop stop-color="#121211"/>
<stop offset="0.541667" stop-color="#333333"/>
<stop offset="1"/>
</linearGradient>
</defs>
</svg>
