<svg width="30" height="19" viewBox="0 0 30 19" fill="none" xmlns="http://www.w3.org/2000/svg">
<path d="M14.1964 6.22192C14.6283 6.46666 15.1765 6.31567 15.4216 5.88641L16.208 4.5081L19.3103 6.2664V4.20657L17.0961 2.95211L17.0959 2.95188L18.0169 1.33796C18.2623 0.908245 18.1114 0.361527 17.6802 0.117249C17.2488 -0.127257 16.7004 0.0230501 16.455 0.452761L13.8595 5.00122C13.6143 5.43093 13.7652 5.97765 14.1964 6.22192Z" fill="url(#paint0_linear_1482_23768)"/>
<path d="M3.17436 17.2117C3.17436 18.1863 3.96973 18.9796 4.9482 18.9796H24.6158C25.5938 18.9796 26.3896 18.1863 26.3896 17.2117V16.9855H3.17436V17.2117Z" fill="url(#paint1_linear_1482_23768)"/>
<path d="M29.9696 13.5167H27.5224C25.1074 13.5167 23.1429 11.5591 23.1429 9.15258C23.1429 8.65787 23.5455 8.25735 24.0413 8.25735H27.9769C26.472 6.26412 24.2715 4.89151 21.8207 4.4155C21.451 4.34365 21.1073 4.62648 21.1073 5.0019V8.87204C21.1073 10.6823 19.6346 12.1498 17.818 12.1498H1.00502C0.449982 12.1498 0 12.5982 0 13.1514V14.3032C0 14.7958 0.400543 15.195 0.894699 15.195H29.1046C29.6024 15.195 30 14.7929 30 14.3032C30 14.0407 29.9899 13.7774 29.9696 13.5167Z" fill="url(#paint2_linear_1482_23768)"/>
<path d="M2.88849 10.3594H11.0621C10.9895 8.52717 9.47136 7.05899 7.61536 7.05899H1.79626C1.5255 7.05899 1.30508 7.27796 1.30508 7.54778V8.78194C1.30508 9.65163 2.0153 10.3594 2.88849 10.3594Z" fill="url(#paint3_linear_1482_23768)"/>
<path d="M27.5224 11.7261H29.6663C29.5139 11.1504 29.3081 10.5856 29.0561 10.0478H25.1008C25.4668 11.0267 26.4143 11.7261 27.5224 11.7261Z" fill="url(#paint4_linear_1482_23768)"/>
<defs>
<linearGradient id="paint0_linear_1482_23768" x1="15" y1="0" x2="15" y2="18.9796" gradientUnits="userSpaceOnUse">
<stop stop-color="#121211"/>
<stop offset="0.541667" stop-color="#333333"/>
<stop offset="1"/>
</linearGradient>
<linearGradient id="paint1_linear_1482_23768" x1="15" y1="0" x2="15" y2="18.9796" gradientUnits="userSpaceOnUse">
<stop stop-color="#121211"/>
<stop offset="0.541667" stop-color="#333333"/>
<stop offset="1"/>
</linearGradient>
<linearGradient id="paint2_linear_1482_23768" x1="15" y1="0" x2="15" y2="18.9796" gradientUnits="userSpaceOnUse">
<stop stop-color="#121211"/>
<stop offset="0.541667" stop-color="#333333"/>
<stop offset="1"/>
</linearGradient>
<linearGradient id="paint3_linear_1482_23768" x1="15" y1="0" x2="15" y2="18.9796" gradientUnits="userSpaceOnUse">
<stop stop-color="#121211"/>
<stop offset="0.541667" stop-color="#333333"/>
<stop offset="1"/>
</linearGradient>
<linearGradient id="paint4_linear_1482_23768" x1="15" y1="0" x2="15" y2="18.9796" gradientUnits="userSpaceOnUse">
<stop stop-color="#121211"/>
<stop offset="0.541667" stop-color="#333333"/>
<stop offset="1"/>
</linearGradient>
</defs>
</svg>
