<svg width="31" height="29" viewBox="0 0 31 29" fill="none" xmlns="http://www.w3.org/2000/svg">
<path d="M19.4745 11.1235L16.9961 13.2878C18.2638 13.2868 19.3092 12.3489 19.4745 11.1235Z" fill="url(#paint0_linear_1482_23735)"/>
<path d="M14.7829 11.9508L18.4462 8.75195C17.9449 8.39473 17.3118 8.22032 16.654 8.3113C15.2863 8.50037 14.3309 9.76238 14.5199 11.1301C14.5607 11.4254 14.6518 11.7013 14.7829 11.9508Z" fill="url(#paint1_linear_1482_23735)"/>
<path d="M5.15828 20.3546L7.62751 18.1985L5.96857 18.6458C5.30569 18.8245 4.91326 19.5068 5.09201 20.1697C5.10936 20.234 5.13191 20.2956 5.15828 20.3546Z" fill="url(#paint2_linear_1482_23735)"/>
<path d="M22.9263 4.10739C22.2416 4.05806 21.6467 4.5737 21.5976 5.25849L21.541 6.04856L23.5278 4.31368C23.3543 4.19756 23.1495 4.12333 22.9263 4.10739Z" fill="url(#paint3_linear_1482_23735)"/>
<path d="M8.77734 20.4648L11.3608 19.7682C11.4915 19.733 11.6156 19.6766 11.7281 19.6014L14.3143 17.8724L14.5945 19.8988C16.044 18.9739 17.2059 18.368 17.2701 18.3347C17.3693 18.2832 17.4779 18.2574 17.5866 18.2574C17.6953 18.2574 17.8039 18.2832 17.9032 18.3347C17.9748 18.3718 19.4118 19.1213 21.0904 20.2311L20.4985 15.9496C20.506 15.9389 20.5139 15.9286 20.5211 15.9175L23.4925 11.4066C23.6096 11.2288 23.6791 11.024 23.6943 10.8116L23.9518 7.21417L21.2931 9.53582L21.2376 10.3102L18.809 13.9971C18.809 13.9971 18.6559 14.0024 15.7232 14.3995L8.77734 20.4648Z" fill="url(#paint4_linear_1482_23735)"/>
<path d="M9.46484 25.8521C10.5024 25.9403 11.1243 26.366 11.5511 26.6586C11.9023 26.8993 12.0206 26.9804 12.4125 26.9804C12.8043 26.9804 12.9227 26.8993 13.2738 26.6586C13.7521 26.3308 14.4749 25.8354 15.7536 25.8354C17.0323 25.8354 17.7551 26.3307 18.2333 26.6586C18.5846 26.8993 18.7029 26.9804 19.0948 26.9804C19.4867 26.9804 19.605 26.8993 19.9562 26.6586C20.4345 26.3308 21.1573 25.8354 22.436 25.8354C23.7148 25.8354 24.4376 26.3308 24.9159 26.6586C25.2566 26.8921 25.3789 26.9751 25.7435 26.98C25.7699 26.7902 25.7838 26.5978 25.7838 26.4031C25.7838 23.2008 17.586 18.9446 17.586 18.9446C17.586 18.9446 10.288 22.7341 9.46484 25.8521Z" fill="url(#paint5_linear_1482_23735)"/>
<path d="M29.8529 1.41027L28.7642 0.192676C28.5515 -0.0451959 28.1862 -0.0656435 27.9483 0.147093L25.4153 2.41203C25.178 2.6243 25.1581 2.99124 25.3697 3.22788L25.5468 3.42597L3.72214 22.4835L3.54157 22.2815C3.33018 22.0451 2.96329 22.0235 2.72571 22.2359L0.192676 24.5009C-0.0451959 24.7136 -0.0656435 25.0789 0.147093 25.3168L1.19045 26.4836C1.44601 26.093 1.88707 25.8347 2.38871 25.8347C2.55452 25.8347 2.71077 25.8432 2.85859 25.8584L4.58474 24.315C4.82115 24.1036 4.84341 23.7374 4.63033 23.4992L4.48544 23.3372L26.3101 4.27961L26.4584 4.44548C26.6708 4.68306 27.0372 4.70303 27.2743 4.49106L29.8074 2.22612C30.0452 2.01345 30.0656 1.6482 29.8529 1.41027Z" fill="url(#paint6_linear_1482_23735)"/>
<path d="M30.3023 26.6943C29.2896 26.6943 28.7452 27.0673 28.3079 27.3671C27.923 27.6309 27.6189 27.8393 26.9609 27.8393C26.3029 27.8393 25.9988 27.6309 25.6138 27.3671C25.1765 27.0673 24.6322 26.6943 23.6195 26.6943C22.6068 26.6943 22.0625 27.0673 21.6252 27.3671C21.2402 27.6309 20.9362 27.8393 20.2782 27.8393C19.6202 27.8393 19.3162 27.6309 18.9312 27.3671C18.4939 27.0673 17.9496 26.6943 16.937 26.6943C15.9243 26.6943 15.3801 27.0673 14.9428 27.3671C14.5579 27.6309 14.2538 27.8393 13.5959 27.8393C12.938 27.8393 12.634 27.6309 12.249 27.3671C11.8117 27.0673 11.2674 26.6943 10.2548 26.6943C9.24207 26.6943 8.69784 27.0673 8.26053 27.3671C7.87554 27.6309 7.57153 27.8393 6.91357 27.8393C6.25567 27.8393 5.9516 27.6309 5.56673 27.3671C5.12942 27.0673 4.58513 26.6943 3.57253 26.6943C3.25633 26.6943 3 26.9506 3 27.2668C3 27.583 3.25633 27.8393 3.57253 27.8393C4.23043 27.8393 4.53451 28.0477 4.91938 28.3116C5.35668 28.6113 5.90098 28.9843 6.91357 28.9843C7.92622 28.9843 8.47052 28.6113 8.90782 28.3116C9.29281 28.0477 9.59683 27.8393 10.2548 27.8393C10.9127 27.8393 11.2168 28.0477 11.6017 28.3116C12.0391 28.6113 12.5833 28.9843 13.5959 28.9843C14.6086 28.9843 15.1528 28.6113 15.5901 28.3116C15.9751 28.0477 16.2791 27.8393 16.937 27.8393C17.5949 27.8393 17.899 28.0477 18.2839 28.3116C18.7213 28.6113 19.2655 28.9843 20.2782 28.9843C21.2908 28.9843 21.8351 28.6113 22.2724 28.3116C22.6574 28.0477 22.9615 27.8393 23.6194 27.8393C24.2774 27.8393 24.5815 28.0477 24.9665 28.3116C25.4039 28.6113 25.9481 28.9843 26.9609 28.9843C27.9736 28.9843 28.5179 28.6113 28.9552 28.3116C29.3402 28.0477 29.6443 27.8393 30.3023 27.8393C30.6185 27.8393 30.8748 27.583 30.8748 27.2668C30.8748 26.9506 30.6185 26.6943 30.3023 26.6943Z" fill="url(#paint7_linear_1482_23735)"/>
<defs>
<linearGradient id="paint0_linear_1482_23735" x1="18.2353" y1="11.1235" x2="18.2353" y2="13.2878" gradientUnits="userSpaceOnUse">
<stop stop-color="#121211"/>
<stop offset="0.541667" stop-color="#333333"/>
<stop offset="1"/>
</linearGradient>
<linearGradient id="paint1_linear_1482_23735" x1="16.4712" y1="8.28748" x2="16.4712" y2="11.9508" gradientUnits="userSpaceOnUse">
<stop stop-color="#121211"/>
<stop offset="0.541667" stop-color="#333333"/>
<stop offset="1"/>
</linearGradient>
<linearGradient id="paint2_linear_1482_23735" x1="6.33817" y1="18.1985" x2="6.33817" y2="20.3546" gradientUnits="userSpaceOnUse">
<stop stop-color="#121211"/>
<stop offset="0.541667" stop-color="#333333"/>
<stop offset="1"/>
</linearGradient>
<linearGradient id="paint3_linear_1482_23735" x1="22.5344" y1="4.10413" x2="22.5344" y2="6.04856" gradientUnits="userSpaceOnUse">
<stop stop-color="#121211"/>
<stop offset="0.541667" stop-color="#333333"/>
<stop offset="1"/>
</linearGradient>
<linearGradient id="paint4_linear_1482_23735" x1="16.3646" y1="7.21417" x2="16.3646" y2="20.4648" gradientUnits="userSpaceOnUse">
<stop stop-color="#121211"/>
<stop offset="0.541667" stop-color="#333333"/>
<stop offset="1"/>
</linearGradient>
<linearGradient id="paint5_linear_1482_23735" x1="17.6243" y1="18.9446" x2="17.6243" y2="26.9804" gradientUnits="userSpaceOnUse">
<stop stop-color="#121211"/>
<stop offset="0.541667" stop-color="#333333"/>
<stop offset="1"/>
</linearGradient>
<linearGradient id="paint6_linear_1482_23735" x1="15" y1="0" x2="15" y2="26.4836" gradientUnits="userSpaceOnUse">
<stop stop-color="#121211"/>
<stop offset="0.541667" stop-color="#333333"/>
<stop offset="1"/>
</linearGradient>
<linearGradient id="paint7_linear_1482_23735" x1="16.9374" y1="26.6943" x2="16.9374" y2="28.9843" gradientUnits="userSpaceOnUse">
<stop stop-color="#121211"/>
<stop offset="0.541667" stop-color="#333333"/>
<stop offset="1"/>
</linearGradient>
</defs>
</svg>
