<svg width="30" height="35" viewBox="0 0 30 35" fill="none" xmlns="http://www.w3.org/2000/svg">
<path d="M27.1114 17.8848C30.4858 13.7325 30.1369 8.35996 29.781 6.04276C29.6829 5.40459 29.2083 4.50692 28.7565 4.04635C26.4434 1.69291 24.6328 0.690615 23.5517 0.265128C22.9509 0.0290385 22.8486 0.277413 23.2367 0.793473C23.9467 1.73728 24.8941 3.57705 25.0765 6.7943C25.2822 10.4265 23.81 14.8616 23.0515 16.8738C22.8236 17.478 23.0205 18.3079 23.6026 18.5873C25.8128 19.6474 27.1114 17.8848 27.1114 17.8848Z" fill="url(#paint0_linear_1482_23748)"/>
<path d="M18.9953 0.106767C15.7459 0.7736 14.0938 3.15509 13.8612 4.88668C13.8296 5.12571 13.8986 5.50615 14.0015 5.7236C14.2751 6.29925 14.8816 7.30558 15.8342 7.42891C16.0721 7.46045 16.4058 7.28395 16.5776 7.1174C17.5273 6.19988 20.5026 3.48817 23.3802 2.57883C23.3802 2.57883 22.5269 -0.617331 18.9953 0.106767Z" fill="url(#paint1_linear_1482_23748)"/>
<path d="M6.00137 15.2463C7.29439 15.2463 8.34259 14.1981 8.34259 12.9051C8.34259 11.612 7.29439 10.5638 6.00137 10.5638C4.70836 10.5638 3.66016 11.612 3.66016 12.9051C3.66016 14.1981 4.70836 15.2463 6.00137 15.2463Z" fill="url(#paint2_linear_1482_23748)"/>
<path d="M3.34091 15.7576L0.230061 21.3487C-0.25147 22.202 0.0483028 23.289 0.892188 23.7688L7.17995 27.5623C7.40143 27.6879 7.72168 27.9842 7.86548 28.1964L8.34005 28.8947H8.33656C4.46886 29.1869 2.82436 29.8988 2.12654 30.4435C1.83435 30.672 1.67594 31.1097 1.67594 31.4054V32.1272C1.67594 32.4235 1.83429 32.8618 2.12654 33.0892C2.84654 33.6513 4.9183 34.6156 10.6959 34.7541C10.9577 34.7606 11.2137 34.7635 11.4638 34.7635C17.3471 34.7635 19.9886 33.0698 20.8507 32.3422C21.0184 32.2008 21.1143 31.991 21.1143 31.7672C21.1143 31.5421 21.0184 31.3329 20.8507 31.1921C20.0314 30.5002 17.5288 28.8807 12.0161 28.7785L11.6122 28.7709L10.6351 26.8271C10.4744 26.5045 10.1279 26.0738 9.84728 25.8464L5.21869 22.0839C5.12457 22.0074 5.10416 21.8595 5.17487 21.7602L5.50452 21.2921C5.7213 21.5142 6.03806 21.6632 6.33496 21.6632H13.22C13.265 21.6632 13.3515 21.6602 13.4368 21.6392L15.7184 24.5542C15.8335 24.7015 16.0053 24.7787 16.1789 24.7787C16.3045 24.7787 16.4319 24.7384 16.5383 24.6542C16.7925 24.4555 16.8375 24.0879 16.6383 23.8342L11.3785 17.1135C11.1792 16.8592 10.8122 16.813 10.5586 17.0135C10.3044 17.2122 10.2594 17.5798 10.4587 17.8335L12.1226 19.9596C11.9326 19.9187 11.7216 19.8965 11.4902 19.8965H7.70432C7.23563 19.8965 6.63076 19.7703 6.57466 19.6703L5.36781 16.9697C5.36604 16.9656 5.24332 16.7435 5.02128 16.5524L5.74422 16.837C5.79507 16.9107 5.82312 16.9615 5.82428 16.9632L6.74945 19.0291L6.95517 18.7364C7.09604 18.5376 7.12232 18.2624 7.02936 18.0263L9.68435 16.7891C9.97892 16.6337 10.2928 16.2643 10.3979 15.9511L12.1354 11.2652C12.3598 10.6604 12.1652 10.031 11.7 9.86032C11.2353 9.68908 10.6737 10.0403 10.4458 10.644L8.83869 14.9021C8.75337 15.1708 8.44596 15.4368 8.15847 15.4859L5.74129 16.2363L4.59409 15.5858C4.08249 15.2463 3.60034 15.2983 3.34091 15.7576Z" fill="url(#paint3_linear_1482_23748)"/>
<defs>
<linearGradient id="paint0_linear_1482_23748" x1="26.4791" y1="0.175415" x2="26.4791" y2="18.9266" gradientUnits="userSpaceOnUse">
<stop stop-color="#121211"/>
<stop offset="0.541667" stop-color="#333333"/>
<stop offset="1"/>
</linearGradient>
<linearGradient id="paint1_linear_1482_23748" x1="18.6169" y1="0" x2="18.6169" y2="7.4326" gradientUnits="userSpaceOnUse">
<stop stop-color="#121211"/>
<stop offset="0.541667" stop-color="#333333"/>
<stop offset="1"/>
</linearGradient>
<linearGradient id="paint2_linear_1482_23748" x1="6.00137" y1="10.5638" x2="6.00137" y2="15.2463" gradientUnits="userSpaceOnUse">
<stop stop-color="#121211"/>
<stop offset="0.541667" stop-color="#333333"/>
<stop offset="1"/>
</linearGradient>
<linearGradient id="paint3_linear_1482_23748" x1="10.5571" y1="9.81696" x2="10.5571" y2="34.7635" gradientUnits="userSpaceOnUse">
<stop stop-color="#121211"/>
<stop offset="0.541667" stop-color="#333333"/>
<stop offset="1"/>
</linearGradient>
</defs>
</svg>
