<svg width="30" height="30" viewBox="0 0 30 30" fill="none" xmlns="http://www.w3.org/2000/svg">
<path d="M29.1211 21.1523H25.5469V24.668C25.5469 25.1534 25.1534 25.5469 24.668 25.5469C24.1826 25.5469 23.7891 25.1534 23.7891 24.668V21.1523H21.1523V24.668C21.1523 25.1534 20.7588 25.5469 20.2734 25.5469C19.788 25.5469 19.3945 25.1534 19.3945 24.668V21.1523H16.7578V24.668C16.7578 25.1534 16.3643 25.5469 15.8789 25.5469C15.3935 25.5469 15 25.1534 15 24.668V21.1523H12.3633V24.668C12.3633 25.1534 11.9698 25.5469 11.4844 25.5469C10.999 25.5469 10.6055 25.1534 10.6055 24.668V21.1523H8.84766V19.3945H5.33203C4.84664 19.3945 4.45312 19.001 4.45312 18.5156C4.45312 18.0302 4.84664 17.6367 5.33203 17.6367H8.84766V15H5.33203C4.84664 15 4.45312 14.6065 4.45312 14.1211C4.45312 13.6357 4.84664 13.2422 5.33203 13.2422H8.84766V10.6055H5.33203C4.84664 10.6055 4.45312 10.212 4.45312 9.72656C4.45312 9.24117 4.84664 8.84766 5.33203 8.84766H8.84766V6.21094H5.33203C4.84664 6.21094 4.45312 5.81742 4.45312 5.33203C4.45312 4.84664 4.84664 4.45312 5.33203 4.45312H8.84766V0.878906C8.84766 0.393516 8.45414 0 7.96875 0H0.878906C0.393516 0 0 0.393516 0 0.878906V29.1211C0 29.6065 0.393516 30 0.878906 30H29.1211C29.6065 30 30 29.6065 30 29.1211V22.0312C30 21.5459 29.6065 21.1523 29.1211 21.1523Z" fill="url(#paint0_linear_1482_23688)"/>
<defs>
<linearGradient id="paint0_linear_1482_23688" x1="15" y1="0" x2="15" y2="30" gradientUnits="userSpaceOnUse">
<stop stop-color="#121211"/>
<stop offset="0.541667" stop-color="#333333"/>
<stop offset="1"/>
</linearGradient>
</defs>
</svg>
