<svg width="30" height="33" viewBox="0 0 30 33" fill="none" xmlns="http://www.w3.org/2000/svg">
<path d="M15 33C7.54575 33 0 31.4543 0 28.5C0 26.3505 3.70575 25.2296 6.8145 24.6682C7.224 24.5906 7.6125 24.8651 7.68563 25.2727C7.75913 25.6804 7.48875 26.0704 7.08112 26.1439C3.01537 26.8789 1.5 27.9788 1.5 28.5C1.5 29.5181 6.26513 31.5 15 31.5C23.7349 31.5 28.5 29.5181 28.5 28.5C28.5 27.9788 26.9846 26.8789 22.9189 26.1443C22.5112 26.0708 22.2405 25.6807 22.3144 25.2731C22.3875 24.8655 22.7783 24.5925 23.1855 24.6686C26.2943 25.2296 30 26.3505 30 28.5C30 31.4543 22.4543 33 15 33ZM27 12C27 21.2944 15.8891 28.8086 15.4159 29.124C15.2899 29.208 15.1451 29.25 15 29.25C14.8549 29.25 14.7101 29.208 14.5841 29.124C14.1109 28.8086 3 21.2944 3 12C3 5.38312 8.38313 0 15 0C21.6169 0 27 5.38312 27 12ZM20.25 12C20.25 9.1005 17.8995 6.75 15 6.75C12.1005 6.75 9.75 9.1005 9.75 12C9.75 14.8995 12.1005 17.25 15 17.25C17.8995 17.25 20.25 14.8995 20.25 12Z" fill="url(#paint0_linear_1482_23696)"/>
<defs>
<linearGradient id="paint0_linear_1482_23696" x1="15" y1="0" x2="15" y2="33" gradientUnits="userSpaceOnUse">
<stop stop-color="#121211"/>
<stop offset="0.541667" stop-color="#333333"/>
<stop offset="1"/>
</linearGradient>
</defs>
</svg>
