<svg width="30" height="31" viewBox="0 0 30 31" fill="none" xmlns="http://www.w3.org/2000/svg">
<path d="M18.6327 27.845C17.5165 27.845 16.5727 26.9835 16.4884 25.8522L16.397 24.6252C16.1911 24.6242 16.2592 24.6243 16.0371 24.6253L17.0597 28.2448C17.2304 28.3454 17.3806 28.4482 17.5173 28.5418C17.9131 28.8132 18.0939 28.937 18.6017 28.937C19.1095 28.937 19.2903 28.8132 19.6862 28.5418C20.203 28.1876 20.9108 27.7024 22.2042 27.7024C23.4011 27.7024 24.0964 28.1177 24.6031 28.4604C28.0495 27.3872 30.0946 25.8789 29.7911 25.112C29.4252 24.0645 25.7064 24.3834 20.7085 24.5517L20.7816 25.5324C20.8746 26.7803 19.888 27.845 18.6327 27.845Z" fill="url(#paint0_linear_1482_23722)"/>
<path d="M6.37157 27.9404C6.75201 27.8004 7.21457 27.7024 7.79561 27.7024C9.08906 27.7024 9.79687 28.1875 10.3137 28.5418C10.7096 28.8131 10.8903 28.9369 11.3981 28.9369C11.9059 28.9369 12.0866 28.8131 12.4825 28.5418C12.8248 28.3071 13.2511 28.0152 13.8757 27.8448C12.7226 27.8424 11.7696 26.9271 11.7301 25.7654L11.6888 24.5497C6.72145 24.3808 3.03079 24.0687 2.66641 25.112C2.40935 25.7612 3.83625 26.9421 6.37157 27.9404Z" fill="url(#paint1_linear_1482_23722)"/>
<path d="M7.53724 6.34463L8.67837 7.03126L7.89679 4.26477C7.59633 4.32571 7.32118 4.50644 7.15066 4.78982C6.82806 5.32592 7.00109 6.02203 7.53724 6.34463Z" fill="url(#paint2_linear_1482_23722)"/>
<path d="M19.9902 25.5909L19.2361 15.4657H19.2403V7.32791C19.2403 6.4519 18.5301 5.74176 17.6541 5.74176H15.4806C15.0601 5.74176 14.6427 5.81434 14.247 5.95639L12.3916 6.62207L10.6552 5.57727L11.3409 8.00444L13.4432 8.70855L15.6875 7.74392L13.4744 9.46537C13.4739 9.46519 13.4729 9.46483 13.4716 9.46441C13.4728 9.46477 13.4737 9.46513 13.4744 9.46537C13.4701 9.46394 13.4667 9.4628 13.4637 9.46179C13.4662 9.46262 13.4687 9.46346 13.4707 9.46412C13.419 9.44681 12.9095 9.27616 9.75801 8.22069C9.22185 8.04151 8.62535 8.28628 8.37718 8.80721C8.37252 8.81694 8.36769 8.82649 8.36333 8.8364C8.08794 9.46012 8.42033 10.1622 9.03897 10.3694L13.3309 11.8068C13.6881 11.9266 14.0868 11.8594 14.3858 11.6271C14.386 11.627 14.3861 11.6269 14.3863 11.6268L16.83 9.72596L14.9369 12.0714C14.7514 12.3011 14.2427 12.5733 13.6905 12.5733C13.5379 12.5733 13.3867 12.554 13.2393 12.5167V14.7245L15.0896 21.2736L15.0353 19.6768L16.0695 15.4659H16.5095L17.2786 25.793C17.3343 26.5401 17.9846 27.1035 18.7353 27.0477C19.4842 26.9918 20.0459 26.3396 19.9902 25.5909ZM13.451 9.45743C13.4503 9.45719 13.4504 9.45725 13.451 9.45743V9.45743ZM13.4582 9.45982C13.4543 9.45856 13.4519 9.45773 13.4511 9.45743C13.4522 9.45785 13.4549 9.45874 13.4582 9.45982Z" fill="url(#paint3_linear_1482_23722)"/>
<path d="M14.3123 26.9816L12.3242 19.9445L12.5211 25.7389C12.5521 26.6519 13.4552 27.2689 14.3123 26.9816Z" fill="url(#paint4_linear_1482_23722)"/>
<path d="M16.602 5.01129C17.8819 4.80381 18.7513 3.59806 18.5438 2.31817C18.3363 1.03828 17.1305 0.16892 15.8507 0.3764C14.5708 0.58388 13.7014 1.78963 13.9089 3.06952C14.1164 4.34941 15.3221 5.21877 16.602 5.01129Z" fill="url(#paint5_linear_1482_23722)"/>
<path d="M16.2524 27.8826L11.7743 12.0323L10.6914 11.6696L15.2225 27.7077C15.6207 27.7257 15.9594 27.791 16.2524 27.8826Z" fill="url(#paint6_linear_1482_23722)"/>
<path d="M9.50257 7.45773C9.66611 7.46692 9.82786 7.4967 9.98453 7.54917L10.5637 7.74314L8.72081 1.22023C8.65002 0.969428 8.3892 0.823676 8.13858 0.894463C7.88784 0.965309 7.74197 1.22602 7.81281 1.47676L9.50257 7.45773Z" fill="url(#paint7_linear_1482_23722)"/>
<path d="M29.4102 28.3805C28.3269 28.3805 27.7439 28.78 27.2755 29.1011C26.8564 29.3883 26.5255 29.6151 25.8074 29.6151C25.0894 29.6151 24.7585 29.3883 24.3395 29.1011C23.871 28.7801 23.2881 28.3805 22.2046 28.3805C21.1213 28.3805 20.5383 28.78 20.0699 29.1011C19.6509 29.3883 19.32 29.6151 18.602 29.6151C17.8841 29.6151 17.5532 29.3883 17.1342 29.1011C16.6658 28.7801 16.0828 28.3806 14.9995 28.3806C13.9162 28.3806 13.3333 28.7801 12.8649 29.1011C12.4459 29.3883 12.115 29.6151 11.3971 29.6151C10.6792 29.6151 10.3483 29.3883 9.92929 29.1011C9.46088 28.7801 8.87793 28.3806 7.79464 28.3806C6.71135 28.3806 6.1284 28.7801 5.65998 29.1011C5.24099 29.3883 4.91009 29.6151 4.19214 29.6151C3.47424 29.6151 3.14334 29.3883 2.72435 29.1011C2.25594 28.7801 1.67305 28.3806 0.589753 28.3806C0.264049 28.3806 0 28.6446 0 28.9703C0 29.296 0.264049 29.5601 0.589753 29.5601C1.30765 29.5601 1.63855 29.7869 2.05754 30.074C2.52595 30.3951 3.10884 30.7946 4.19214 30.7946C5.27543 30.7946 5.85838 30.3951 6.32679 30.074C6.74578 29.7869 7.07668 29.5601 7.79464 29.5601C8.5126 29.5601 8.84349 29.7869 9.26249 30.074C9.7309 30.3951 10.3138 30.7946 11.3971 30.7946C12.4804 30.7946 13.0634 30.3951 13.5317 30.074C13.9507 29.7869 14.2816 29.5601 14.9995 29.5601C15.7175 29.5601 16.0484 29.7869 16.4674 30.074C16.9358 30.3951 17.5187 30.7946 18.602 30.7946C19.6854 30.7946 20.2683 30.3951 20.7367 30.074C21.1557 29.7868 21.4867 29.56 22.2046 29.56C22.9227 29.56 23.2536 29.7868 23.6727 30.074C24.1411 30.395 24.7241 30.7946 25.8074 30.7946C26.8909 30.7946 27.4738 30.3951 27.9423 30.074C28.3613 29.7868 28.6922 29.56 29.4102 29.56C29.736 29.56 30 29.296 30 28.9702C30 28.6445 29.7359 28.3805 29.4102 28.3805Z" fill="url(#paint8_linear_1482_23722)"/>
<defs>
<linearGradient id="paint0_linear_1482_23722" x1="22.9289" y1="24.3712" x2="22.9289" y2="28.937" gradientUnits="userSpaceOnUse">
<stop stop-color="#121211"/>
<stop offset="0.541667" stop-color="#333333"/>
<stop offset="1"/>
</linearGradient>
<linearGradient id="paint1_linear_1482_23722" x1="8.25619" y1="24.3712" x2="8.25619" y2="28.9369" gradientUnits="userSpaceOnUse">
<stop stop-color="#121211"/>
<stop offset="0.541667" stop-color="#333333"/>
<stop offset="1"/>
</linearGradient>
<linearGradient id="paint2_linear_1482_23722" x1="7.83333" y1="4.26477" x2="7.83333" y2="7.03126" gradientUnits="userSpaceOnUse">
<stop stop-color="#121211"/>
<stop offset="0.541667" stop-color="#333333"/>
<stop offset="1"/>
</linearGradient>
<linearGradient id="paint3_linear_1482_23722" x1="14.1298" y1="5.57727" x2="14.1298" y2="27.0515" gradientUnits="userSpaceOnUse">
<stop stop-color="#121211"/>
<stop offset="0.541667" stop-color="#333333"/>
<stop offset="1"/>
</linearGradient>
<linearGradient id="paint4_linear_1482_23722" x1="13.3183" y1="19.9445" x2="13.3183" y2="27.0527" gradientUnits="userSpaceOnUse">
<stop stop-color="#121211"/>
<stop offset="0.541667" stop-color="#333333"/>
<stop offset="1"/>
</linearGradient>
<linearGradient id="paint5_linear_1482_23722" x1="15.8507" y1="0.3764" x2="16.602" y2="5.01129" gradientUnits="userSpaceOnUse">
<stop stop-color="#121211"/>
<stop offset="0.541667" stop-color="#333333"/>
<stop offset="1"/>
</linearGradient>
<linearGradient id="paint6_linear_1482_23722" x1="13.4719" y1="11.6696" x2="13.4719" y2="27.8826" gradientUnits="userSpaceOnUse">
<stop stop-color="#121211"/>
<stop offset="0.541667" stop-color="#333333"/>
<stop offset="1"/>
</linearGradient>
<linearGradient id="paint7_linear_1482_23722" x1="9.17929" y1="0.876587" x2="9.17929" y2="7.74314" gradientUnits="userSpaceOnUse">
<stop stop-color="#121211"/>
<stop offset="0.541667" stop-color="#333333"/>
<stop offset="1"/>
</linearGradient>
<linearGradient id="paint8_linear_1482_23722" x1="15" y1="28.3805" x2="15" y2="30.7946" gradientUnits="userSpaceOnUse">
<stop stop-color="#121211"/>
<stop offset="0.541667" stop-color="#333333"/>
<stop offset="1"/>
</linearGradient>
</defs>
</svg>
