<svg width="16" height="16" viewBox="0 0 16 16" fill="none" xmlns="http://www.w3.org/2000/svg">
<path d="M11.9985 8.9C11.0033 8.9 10.1191 9.37343 9.55199 10.1038L6.98707 8.8249C7.05976 8.56217 7.09919 8.28565 7.09919 8C7.09919 7.71435 7.05976 7.43783 6.98707 7.1751L9.55199 5.89619C10.1191 6.62657 11.0033 7.1 11.9985 7.1C13.7078 7.1 15.0981 5.70947 15.0981 4C15.0981 2.29053 13.7078 0.9 11.9985 0.9C10.2892 0.9 8.89892 2.29053 8.89892 4C8.89892 4.28565 8.93835 4.56217 9.01104 4.8249L6.44612 6.10381C5.87905 5.37343 4.99483 4.9 3.99959 4.9C2.29033 4.9 0.9 6.29053 0.9 8C0.9 9.70947 2.29033 11.1 3.99959 11.1C4.99483 11.1 5.87905 10.6266 6.44612 9.89619L9.01104 11.1751C8.93835 11.4378 8.89892 11.7144 8.89892 12C8.89892 13.7095 10.2892 15.1 11.9985 15.1C13.7078 15.1 15.0981 13.7095 15.0981 12C15.0981 10.2905 13.7078 8.9 11.9985 8.9ZM11.9985 2.1C13.0459 2.1 13.8982 2.95247 13.8982 4C13.8982 5.04753 13.0459 5.9 11.9985 5.9C10.9512 5.9 10.0988 5.04753 10.0988 4C10.0988 2.95247 10.9512 2.1 11.9985 2.1ZM3.99959 9.9C2.95223 9.9 2.09986 9.04753 2.09986 8C2.09986 6.95247 2.95223 6.1 3.99959 6.1C5.04695 6.1 5.89932 6.95247 5.89932 8C5.89932 9.04753 5.04695 9.9 3.99959 9.9ZM11.9985 13.9C10.9512 13.9 10.0988 13.0475 10.0988 12C10.0988 10.9525 10.9512 10.1 11.9985 10.1C13.0459 10.1 13.8982 10.9525 13.8982 12C13.8982 13.0475 13.0459 13.9 11.9985 13.9Z" fill="url(#paint0_linear_2331_303)" stroke="url(#paint1_linear_2331_303)" stroke-width="0.2"/>
<defs>
<linearGradient id="paint0_linear_2331_303" x1="7.99905" y1="1" x2="7.99905" y2="15" gradientUnits="userSpaceOnUse">
<stop stop-color="#4285F4"/>
</linearGradient>
<linearGradient id="paint1_linear_2331_303" x1="7.99905" y1="1" x2="7.99905" y2="15" gradientUnits="userSpaceOnUse">
<stop stop-color="#4285F4"/>
</linearGradient>
</defs>
</svg>
