<svg width="30" height="30" viewBox="0 0 30 30" fill="none" xmlns="http://www.w3.org/2000/svg">
<path d="M30 16.0708V18.8029C29.9998 20.5102 29.5168 22.1827 28.6068 23.6273C27.6969 25.0719 26.397 26.2297 24.8571 26.9672L25.5964 28.4458C25.7235 28.6988 25.7453 28.9919 25.6569 29.2609C25.5686 29.5299 25.3773 29.753 25.125 29.8815C24.9768 29.9608 24.8109 30.0014 24.6429 29.9994C24.445 29.9988 24.2512 29.9434 24.0829 29.8394C23.9145 29.7354 23.7783 29.5868 23.6893 29.4101L23.3036 28.6494L22.8107 27.6636C22.1978 27.7936 21.5729 27.8582 20.9464 27.8565H9.05357C8.42708 27.8582 7.80216 27.7936 7.18929 27.6636L6.69643 28.6494L6.31071 29.4101C6.22168 29.5868 6.08545 29.7354 5.91714 29.8394C5.74883 29.9434 5.555 29.9988 5.35714 29.9994C5.18906 30.0014 5.0232 29.9608 4.875 29.8815C4.62265 29.753 4.43141 29.5299 4.34307 29.2609C4.25474 28.9919 4.27649 28.6988 4.40357 28.4458L5.14286 26.9672C3.60304 26.2297 2.30313 25.0719 1.39315 23.6273C0.483169 22.1827 0.000206814 20.5102 0 18.8029V16.0708C0 15.7866 0.112882 15.5141 0.313814 15.3132C0.514746 15.1122 0.787268 14.9994 1.07143 14.9994H28.9286C29.2127 14.9994 29.4853 15.1122 29.6862 15.3132C29.8871 15.5141 30 15.7866 30 16.0708ZM19.8536 3.54578C19.335 3.326 18.7775 3.21303 18.2143 3.21364C18.0039 3.1973 17.7925 3.1973 17.5821 3.21364C16.5582 3.36627 15.6242 3.88435 14.9526 4.67215C14.281 5.45994 13.9173 6.4642 13.9286 7.49935C13.9286 7.78351 14.0415 8.05603 14.2424 8.25697C14.4433 8.4579 14.7158 8.57078 15 8.57078H21.4286C21.7127 8.57078 21.9853 8.4579 22.1862 8.25697C22.3871 8.05603 22.5 7.78351 22.5 7.49935C22.4988 6.65264 22.2468 5.82526 21.7758 5.12163C21.3048 4.418 20.6359 3.86965 19.8536 3.54578ZM19.2857 11.7851V10.7136C19.2857 10.4295 19.1728 10.157 18.9719 9.95602C18.771 9.75509 18.4984 9.64221 18.2143 9.64221C17.9301 9.64221 17.6576 9.75509 17.4567 9.95602C17.2557 10.157 17.1429 10.4295 17.1429 10.7136V11.7851C17.1429 12.0692 17.2557 12.3417 17.4567 12.5427C17.6576 12.7436 17.9301 12.8565 18.2143 12.8565C18.4984 12.8565 18.771 12.7436 18.9719 12.5427C19.1728 12.3417 19.2857 12.0692 19.2857 11.7851ZM14.3036 12.3851L15.0643 11.6244C15.1764 11.5283 15.2675 11.4101 15.3318 11.2772C15.3962 11.1443 15.4323 10.9995 15.438 10.8519C15.4437 10.7044 15.4188 10.5572 15.365 10.4197C15.3111 10.2822 15.2294 10.1574 15.125 10.0529C15.0206 9.94852 14.8957 9.86682 14.7582 9.81295C14.6207 9.75909 14.4736 9.73423 14.326 9.73993C14.1785 9.74562 14.0337 9.78176 13.9007 9.84607C13.7678 9.91039 13.6496 10.0015 13.5536 10.1136L12.7929 10.8744C12.5933 11.0751 12.4813 11.3467 12.4813 11.6297C12.4813 11.9128 12.5933 12.1843 12.7929 12.3851C12.9936 12.5846 13.2652 12.6966 13.5482 12.6966C13.8313 12.6966 14.1028 12.5846 14.3036 12.3851ZM23.6357 12.3851C23.8353 12.1843 23.9473 11.9128 23.9473 11.6297C23.9473 11.3467 23.8353 11.0751 23.6357 10.8744L22.875 10.1136C22.67 9.93811 22.4064 9.84639 22.1367 9.8568C21.8671 9.86722 21.6113 9.979 21.4205 10.1698C21.2297 10.3606 21.1179 10.6164 21.1075 10.8861C21.097 11.1557 21.1888 11.4194 21.3643 11.6244L22.125 12.3851C22.3257 12.5846 22.5973 12.6966 22.8804 12.6966C23.1634 12.6966 23.435 12.5846 23.6357 12.3851ZM19.2857 11.7851V10.7136C19.2857 10.4295 19.1728 10.157 18.9719 9.95602C18.771 9.75509 18.4984 9.64221 18.2143 9.64221C17.9301 9.64221 17.6576 9.75509 17.4567 9.95602C17.2557 10.157 17.1429 10.4295 17.1429 10.7136V11.7851C17.1429 12.0692 17.2557 12.3417 17.4567 12.5427C17.6576 12.7436 17.9301 12.8565 18.2143 12.8565C18.4984 12.8565 18.771 12.7436 18.9719 12.5427C19.1728 12.3417 19.2857 12.0692 19.2857 11.7851ZM26.2821 1.56364C25.7391 1.0222 25.0862 0.603638 24.3676 0.336249C23.6489 0.0688603 22.8812 -0.0411268 22.1163 0.0137229C21.3515 0.0685726 20.6073 0.28698 19.9341 0.654184C19.261 1.02139 18.6745 1.52883 18.2143 2.14221C18.9176 2.14215 19.6137 2.28428 20.2607 2.56007C20.3907 2.60989 20.5162 2.67083 20.6357 2.74221C21.1766 2.34716 21.8303 2.13678 22.5 2.14221C23.3525 2.14221 24.17 2.48086 24.7728 3.08365C25.3756 3.68645 25.7143 4.50401 25.7143 5.35649V13.9279H27.8571V5.35649C27.857 4.65177 27.7178 3.95399 27.4475 3.30315C27.1773 2.6523 26.7812 2.06118 26.2821 1.56364Z" fill="url(#paint0_linear_1482_23695)"/>
<defs>
<linearGradient id="paint0_linear_1482_23695" x1="15" y1="0" x2="15" y2="29.9994" gradientUnits="userSpaceOnUse">
<stop stop-color="#121211"/>
<stop offset="0.541667" stop-color="#333333"/>
<stop offset="1"/>
</linearGradient>
</defs>
</svg>
