<svg width="30" height="27" viewBox="0 0 30 27" fill="none" xmlns="http://www.w3.org/2000/svg">
<path d="M14.7581 18.75V19.1734C14.7581 19.7079 14.3248 20.1411 13.7903 20.1411H8.95161C8.41712 20.1411 7.98387 19.7079 7.98387 19.1734V18.75C7.98387 18.4828 8.20052 18.2661 8.46774 18.2661H14.2742C14.5414 18.2661 14.7581 18.4828 14.7581 18.75ZM10.9476 23.4677V22.5605C10.9476 22.026 10.5143 21.5927 9.97984 21.5927C9.4454 21.5927 9.0121 22.026 9.0121 22.5605V23.4677C9.0121 24.0022 9.4454 24.4355 9.97984 24.4355C10.5143 24.4355 10.9476 24.0022 10.9476 23.4677ZM14.0323 25.1613V22.5605C14.0323 22.026 13.599 21.5927 13.0645 21.5927C12.5301 21.5927 12.0968 22.026 12.0968 22.5605V25.1613C12.0968 25.6958 12.5301 26.129 13.0645 26.129C13.599 26.129 14.0323 25.6958 14.0323 25.1613ZM20.9274 23.4677V22.5605C20.9274 22.026 20.4941 21.5927 19.9597 21.5927C19.4252 21.5927 18.9919 22.026 18.9919 22.5605V23.4677C18.9919 24.0022 19.4252 24.4355 19.9597 24.4355C20.4941 24.4355 20.9274 24.0022 20.9274 23.4677ZM17.8427 25.1613V22.5605C17.8427 22.026 17.4094 21.5927 16.875 21.5927C16.3406 21.5927 15.9073 22.026 15.9073 22.5605V25.1613C15.9073 25.6958 16.3406 26.129 16.875 26.129C17.4094 26.129 17.8427 25.6958 17.8427 25.1613ZM4.11853 7.17302L0.495363 9.20081C0.189314 9.37197 0 9.69496 0 10.0452V13.4879C0 14.0224 0.433246 14.4556 0.967742 14.4556H4.35484C4.62206 14.4556 4.83871 14.239 4.83871 13.9718V7.59526C4.83871 7.22564 4.44109 6.99254 4.11853 7.17302ZM21.5323 18.2661H15.7258C15.4586 18.2661 15.2419 18.4828 15.2419 18.75V19.1734C15.2419 19.7079 15.6752 20.1411 16.2097 20.1411H21.0484C21.5829 20.1411 22.0161 19.7079 22.0161 19.1734V18.75C22.0161 18.4828 21.7995 18.2661 21.5323 18.2661ZM29.5046 9.20081L25.8815 7.17302C25.5589 6.99248 25.1613 7.22564 25.1613 7.59526V13.9718C25.1613 14.239 25.3779 14.4556 25.6452 14.4556H29.0323C29.5668 14.4556 30 14.0224 30 13.4879V10.0452C30 9.69496 29.8107 9.37197 29.5046 9.20081ZM22.7419 7.74194C23.0092 7.74194 23.2258 7.52528 23.2258 7.25806V4.58891C23.2258 2.09492 21.2179 0 18.6212 0C17.1514 0 15.8407 0.69496 15 1.77339C14.1593 0.69496 12.8486 0 11.3788 0C8.7773 0 6.77419 2.09952 6.77419 4.58891V7.25806C6.77419 7.52528 6.99085 7.74194 7.25806 7.74194C8.3045 7.74194 23.1829 7.74194 22.7419 7.74194ZM7.25806 9.67742C6.99085 9.67742 6.77419 9.89407 6.77419 10.1613V15.3629C6.77419 15.8974 7.20744 16.3306 7.74194 16.3306H22.2581C22.7926 16.3306 23.2258 15.8974 23.2258 15.3629V10.1613C23.2258 9.89407 23.0092 9.67742 22.7419 9.67742C21.8325 9.67742 6.78738 9.67742 7.25806 9.67742Z" fill="url(#paint0_linear_1482_23745)"/>
<defs>
<linearGradient id="paint0_linear_1482_23745" x1="15" y1="0" x2="15" y2="26.129" gradientUnits="userSpaceOnUse">
<stop stop-color="#121211"/>
<stop offset="0.541667" stop-color="#333333"/>
<stop offset="1"/>
</linearGradient>
</defs>
</svg>
