<svg width="56" height="50" viewBox="0 0 56 50" fill="none" xmlns="http://www.w3.org/2000/svg">
<path d="M46.228 17.9245C50.9172 17.9245 54.7185 14.1231 54.7185 9.43392C54.7185 4.74471 50.9172 0.943359 46.228 0.943359H18.8695C14.1803 0.943359 10.3789 4.74471 10.3789 9.43392C10.3789 14.1231 14.1803 17.9245 18.8695 17.9245H46.228Z" fill="#FF5364"/>
<path d="M46.226 18.8679C45.705 18.8679 45.2826 18.4456 45.2826 17.9245C45.2826 17.4035 45.705 16.9811 46.226 16.9811C50.391 16.9733 53.7654 13.5989 53.7732 9.43396C53.7685 5.26771 50.3923 1.89147 46.226 1.88679H18.8676C14.7026 1.89458 11.3282 5.26901 11.3204 9.43396C11.3251 13.6002 14.7013 16.9765 18.8676 16.9811H28.3015C28.8225 16.9811 29.2449 17.4035 29.2449 17.9245C29.2449 18.4456 28.8225 18.8679 28.3015 18.8679H18.8676C13.6597 18.8622 9.43931 14.6418 9.43359 9.43396C9.4419 4.22718 13.6608 0.00831092 18.8676 0H46.226C51.4339 0.00571922 55.6543 4.2261 55.66 9.43396C55.6517 14.6407 51.4328 18.8596 46.226 18.8679Z" fill="#F29C1F"/>
<path d="M23.5842 7.07532C23.5842 5.25174 22.1059 3.77344 20.2824 3.77344H17.9239C17.4028 3.77344 16.9805 4.19581 16.9805 4.71683V14.1508C16.9805 14.6718 17.4028 15.0942 17.9239 15.0942H20.2824C21.625 15.096 22.8347 14.2836 23.3408 13.04C23.8469 11.7964 23.5485 10.3701 22.5861 9.43382C23.2239 8.81487 23.584 7.96408 23.5842 7.07532ZM21.6974 11.7923C21.6974 12.5738 21.0639 13.2074 20.2824 13.2074H18.8673V10.3772H20.2824C21.0639 10.3772 21.6974 11.0108 21.6974 11.7923ZM18.8673 8.49042V5.66023H20.2824C21.0639 5.66023 21.6974 6.29379 21.6974 7.07532C21.6974 7.85686 21.0639 8.49042 20.2824 8.49042H18.8673Z" fill="white"/>
<path d="M28.7745 3.77344C26.951 3.77344 25.4727 5.25174 25.4727 7.07532V11.7923C25.4727 13.6159 26.951 15.0942 28.7745 15.0942C30.5981 15.0942 32.0764 13.6159 32.0764 11.7923V7.07532C32.0764 5.25174 30.5981 3.77344 28.7745 3.77344ZM30.1896 11.7923C30.1896 12.5738 29.5561 13.2074 28.7745 13.2074C27.993 13.2074 27.3594 12.5738 27.3594 11.7923V7.07532C27.3594 6.29379 27.993 5.66023 28.7745 5.66023C29.5561 5.66023 30.1896 6.29379 30.1896 7.07532V11.7923Z" fill="white"/>
<path d="M37.2628 3.77344C35.4392 3.77344 33.9609 5.25174 33.9609 7.07532V11.7923C33.9609 13.6159 35.4392 15.0942 37.2628 15.0942C39.0864 15.0942 40.5647 13.6159 40.5647 11.7923V7.07532C40.5647 5.25174 39.0864 3.77344 37.2628 3.77344ZM38.6779 11.7923C38.6779 12.5738 38.0444 13.2074 37.2628 13.2074C36.4813 13.2074 35.8477 12.5738 35.8477 11.7923V7.07532C35.8477 6.29379 36.4813 5.66023 37.2628 5.66023C38.0444 5.66023 38.6779 6.29379 38.6779 7.07532V11.7923Z" fill="white"/>
<path d="M43.3965 3.77344C42.8755 3.77344 42.4531 4.19581 42.4531 4.71683V14.1508C42.4531 14.6718 42.8755 15.0942 43.3965 15.0942C43.9175 15.0942 44.3399 14.6718 44.3399 14.1508V4.71683C44.3399 4.19581 43.9175 3.77344 43.3965 3.77344Z" fill="white"/>
<path d="M46.3831 9.43399L48.9217 5.20286C49.1787 4.75725 49.0313 4.18794 48.5904 3.92299C48.1495 3.65804 47.5776 3.79512 47.3048 4.23116L44.4746 8.94814C44.2949 9.24713 44.2949 9.62085 44.4746 9.91984L47.3048 14.6368C47.4751 14.9323 47.7918 15.1128 48.1329 15.1089C48.4739 15.105 48.7863 14.9173 48.9499 14.6179C49.1135 14.3186 49.1027 13.9543 48.9217 13.6651L46.3831 9.43399Z" fill="white"/>
<path d="M45.0644 27.4313L41.2908 23.0728L42.8474 21.8096C43.0896 21.6124 43.2128 21.3041 43.173 20.9944C43.1332 20.6846 42.9362 20.4174 42.6521 20.2879L33.3125 16.1162C32.996 15.9787 32.6286 16.0366 32.3698 16.2647C32.111 16.4928 32.0074 16.85 32.104 17.1813L34.771 26.7614C34.8484 27.0493 35.066 27.2785 35.3495 27.3707C35.633 27.4628 35.9438 27.4054 36.1757 27.218L38.5059 25.3313L42.4766 29.8888C42.6371 30.074 42.8678 30.1837 43.1128 30.1912C43.3577 30.1987 43.5947 30.1035 43.7663 29.9284L45.0172 28.6605C45.351 28.3257 45.3716 27.7906 45.0644 27.4313Z" fill="#464F5D"/>
<path d="M43.1472 31.132H43.0934C42.5855 31.1156 42.1072 30.8891 41.7727 30.5066L38.401 26.6386L36.7774 27.9547C36.2985 28.3422 35.6565 28.4619 35.0701 28.273C34.4838 28.084 34.0324 27.612 33.8698 27.0179L31.2029 17.433C31.0067 16.7439 31.2304 16.0037 31.7755 15.5386C32.3081 15.0747 33.0623 14.9641 33.7057 15.2556L43.0453 19.4273C43.6273 19.6914 44.0315 20.2375 44.1139 20.8713C44.1962 21.5051 43.9452 22.1364 43.45 22.5405L42.6491 23.1896L45.7812 26.8122C46.4072 27.5424 46.372 28.6298 45.7 29.3179L44.4453 30.5877C44.1029 30.9356 43.6353 31.1316 43.1472 31.132ZM38.5142 24.3849C38.7869 24.3848 39.0463 24.5028 39.2255 24.7084L43.1962 29.266L44.3283 28.0226L40.5821 23.6896C40.4152 23.4965 40.3337 23.2441 40.3561 22.9899C40.3785 22.7357 40.5029 22.5014 40.701 22.3405L42.2576 21.0773L33.0472 17.0264L35.6623 26.4245L37.917 24.5952C38.0859 24.4584 38.2968 24.3841 38.5142 24.3849Z" fill="#ECF0F1"/>
<path d="M40.3774 40.4529C38.6981 41.7359 35.6792 44.4246 34.434 48.0661C34.0465 49.2175 32.9695 49.9949 31.7547 50.0001H4.27358C3.42358 50.0007 2.67808 49.4329 2.45283 48.6133L0 39.6227L31.1226 39.6133H40.0849C40.2846 39.6144 40.4619 39.7412 40.5276 39.9298C40.5933 40.1184 40.5331 40.3279 40.3774 40.4529Z" fill="#ECF0F1"/>
<path d="M38.6689 39.613H31.1217L24.5273 31.1318L29.7632 31.1318C31.22 31.13 32.5958 31.8022 33.4896 32.9526L38.6689 39.613Z" fill="#67B9CC"/>
<path d="M38.6813 39.6227L38.6719 39.6133L38.6813 39.6227Z" fill="#464F5D"/>
<path d="M31.1226 39.613L0 39.6224L2.39623 32.4243C2.65475 31.6537 3.37587 31.1337 4.18868 31.1318H24.5283L31.1226 39.613Z" fill="#BDC3C7"/>
<path d="M29.2471 31.132H4.71875L5.36026 27.9339C5.53569 27.0515 6.30968 26.4158 7.20932 26.415H23.3603C24.1103 26.4172 24.8291 26.7156 25.3603 27.2452L29.2471 31.132Z" fill="#ECF0F1"/>
<path d="M17.9261 26.4152H10.3789V23.585C10.382 22.5443 11.2249 21.7014 12.2657 21.6982H13.2468C13.8191 21.6996 14.3601 21.9596 14.7185 22.4058L17.9261 26.4152Z" fill="#F3D55B"/>
<path d="M32.0744 44.3394H29.2442C28.7232 44.3394 28.3008 43.9171 28.3008 43.396C28.3008 42.875 28.7232 42.4526 29.2442 42.4526H32.0744C32.5954 42.4526 33.0178 42.875 33.0178 43.396C33.0178 43.9171 32.5954 44.3394 32.0744 44.3394Z" fill="#7F8C8D"/>
<path d="M6.60363 36.7926H4.71683C4.19581 36.7926 3.77344 36.3702 3.77344 35.8492C3.77344 35.3281 4.19581 34.9058 4.71683 34.9058H6.60363C7.12465 34.9058 7.54702 35.3281 7.54702 35.8492C7.54702 36.3702 7.12465 36.7926 6.60363 36.7926Z" fill="#464F5D"/>
<path d="M12.2638 36.7926H10.377C9.85597 36.7926 9.43359 36.3702 9.43359 35.8492C9.43359 35.3281 9.85597 34.9058 10.377 34.9058H12.2638C12.7848 34.9058 13.2072 35.3281 13.2072 35.8492C13.2072 36.3702 12.7848 36.7926 12.2638 36.7926Z" fill="#464F5D"/>
<path d="M17.9239 36.7926H16.0371C15.5161 36.7926 15.0938 36.3702 15.0938 35.8492C15.0938 35.3281 15.5161 34.9058 16.0371 34.9058H17.9239C18.445 34.9058 18.8673 35.3281 18.8673 35.8492C18.8673 36.3702 18.445 36.7926 17.9239 36.7926Z" fill="#464F5D"/>
<path d="M23.5841 36.7926H21.6973C21.1763 36.7926 20.7539 36.3702 20.7539 35.8492C20.7539 35.3281 21.1763 34.9058 21.6973 34.9058H23.5841C24.1051 34.9058 24.5275 35.3281 24.5275 35.8492C24.5275 36.3702 24.1051 36.7926 23.5841 36.7926Z" fill="#464F5D"/>
<path d="M31.1305 39.6227L31.1211 39.6133L31.1305 39.6227Z" fill="#464F5D"/>
</svg>
