<svg width="60" height="60" viewBox="0 0 60 60" fill="none" xmlns="http://www.w3.org/2000/svg">
<path d="M51.1953 42.3326C50.3939 43.7098 47.3697 43.646 46.2996 44.8265C45.2294 46.007 45.5887 49.0105 44.2965 49.9426C43.0043 50.8748 40.2675 49.5865 38.8097 50.2296C37.3519 50.8728 36.4585 53.7627 34.8989 54.0887C33.3392 54.4147 31.3631 52.1246 29.7697 52.1192C28.1764 52.1138 26.1848 54.3906 24.6274 54.054C23.07 53.7175 22.1961 50.8216 20.7427 50.1686C19.2893 49.5156 16.5439 50.7854 15.258 49.8445C13.9721 48.9036 14.3517 45.9026 13.2895 44.715C12.2274 43.5273 9.2028 43.5706 8.41079 42.1881C7.61878 40.8055 9.18616 38.2184 8.69891 36.7013C8.21166 35.1843 5.43092 33.9937 5.26972 32.4086C5.10853 30.8234 7.59269 29.0974 7.76459 27.5134C7.93649 25.9293 5.88041 23.7106 6.3779 22.1969C6.87539 20.6833 9.8468 20.1169 10.6481 18.7397C11.4495 17.3625 10.4736 14.4994 11.5437 13.3189C12.6139 12.1384 15.5587 12.8296 16.8509 11.8974C18.1431 10.9652 18.4162 7.95267 19.8739 7.30952C21.3317 6.66638 23.7409 8.4956 25.3005 8.16959C26.8601 7.84358 28.3349 5.20252 29.9282 5.2079C31.5216 5.21329 32.9784 7.86425 34.5358 8.20079C36.0932 8.53733 38.5147 6.72443 39.9681 7.37742C41.4215 8.03041 41.6741 11.0447 42.96 11.9856C44.2459 12.9265 47.1953 12.2553 48.2575 13.4429C49.3196 14.6306 48.3244 17.4871 49.1164 18.8697C49.9084 20.2522 52.876 20.8387 53.3632 22.3557C53.8504 23.8727 51.7794 26.0775 51.9406 27.6626C52.1018 29.2478 54.5743 30.9905 54.4023 32.5746C54.2304 34.1586 51.4417 35.3304 50.9442 36.8441C50.4467 38.3578 51.9966 40.9555 51.1953 42.3326L51.1953 42.3326Z" fill="#FFD54F"/>
<path d="M45.8873 29.9002C45.8873 34.1437 44.2016 38.2135 41.2009 41.2141C38.2003 44.2148 34.1306 45.9005 29.887 45.9005C25.6435 45.9005 21.5737 44.2148 18.5731 41.2141C15.5725 38.2135 13.8867 34.1437 13.8867 29.9002C13.8867 27.799 14.3006 25.7184 15.1047 23.7772C15.9088 21.8359 17.0873 20.072 18.5731 18.5863C20.0589 17.1005 21.8227 15.9219 23.764 15.1179C25.7052 14.3138 27.7858 13.8999 29.887 13.8999C31.9882 13.8999 34.0688 14.3138 36.0101 15.1179C37.9513 15.9219 39.7152 17.1005 41.2009 18.5863C42.6867 20.072 43.8653 21.8359 44.6694 23.7772C45.4735 25.7184 45.8873 27.799 45.8873 29.9002Z" fill="#F45558"/>
<path d="M39.3029 16.9448C41.7302 19.8325 43.7183 23.4839 43.7183 27.2563C43.7183 39.0645 35.8862 44.0119 27.0357 44.012C23.67 44.012 20.3897 42.222 17.6602 40.253C20.705 43.8754 25.1953 45.9669 29.9274 45.9669C38.778 45.9669 45.9528 38.7921 45.9529 29.9415C45.9528 24.7925 43.4788 19.9572 39.3029 16.9448Z" fill="#DB375B"/>
<path d="M30.3596 17.3721L30.339 17.7671L31.1208 17.8212L31.155 17.4269L30.3596 17.3721ZM29.1501 17.385L28.3554 17.4573L28.3988 17.8501L29.179 17.7793L29.1501 17.385ZM32.3516 17.605L32.2687 17.9917L33.0314 18.1698L33.1288 17.7862L32.3516 17.605ZM27.1641 17.6621L26.3915 17.8592L26.4958 18.2398L27.2547 18.0465L27.1641 17.6621ZM34.2812 18.1538L34.1374 18.5222L34.8613 18.8198L35.0188 18.4575L34.2812 18.1538ZM25.2475 18.2528L24.516 18.5717L24.6811 18.931L25.3982 18.6174L25.2475 18.2528ZM36.0974 19.0048L35.8965 19.3451L36.5633 19.7553L36.7764 19.4227L36.0974 19.0048ZM23.4495 19.1434L22.7797 19.5757L22.9997 19.903L23.6581 19.479L23.4495 19.1434ZM37.753 20.1359L37.5011 20.4404L38.0963 20.9504L38.3582 20.6543L37.753 20.1359ZM21.8176 20.3087L21.2246 20.8416L21.494 21.1308L22.0771 20.6079L21.8176 20.3087ZM39.2099 21.5144L38.9123 21.7748L39.4177 22.3731L39.7245 22.1242L39.2099 21.5144ZM20.3926 21.7192L19.891 22.3388L20.2023 22.5824L20.6948 21.9734L20.3926 21.7192ZM40.4293 23.1069L40.0944 23.3162L40.4971 23.9875L40.8396 23.7904L40.4293 23.1069ZM19.2074 23.3375L18.8116 24.0302L19.1587 24.2197L19.5469 23.54L19.2074 23.3375ZM41.3785 24.8736L41.0147 25.0273L41.3062 25.7543L41.6754 25.6134L41.3785 24.8736ZM18.2955 25.1248L18.0169 25.8715L18.3892 26.0032L18.664 25.2694L18.2955 25.1248ZM42.0332 26.7689L41.6488 26.8626L41.82 27.6268L42.2067 27.5476L42.0332 26.7689ZM17.6835 27.0346L17.5275 27.8163L17.9165 27.8863L18.0695 27.1183L17.6835 27.0346ZM42.3757 28.7465L41.9814 28.7754L42.0271 29.5579L42.4214 29.5419L42.3757 28.7465ZM17.3859 29.0175L17.3555 29.8144L17.7505 29.822L17.7802 29.0395L17.3859 29.0175ZM17.7977 30.9821L17.4042 31.0224L17.5001 31.8141L17.8913 31.76L17.7977 30.9821ZM41.9647 31.1792L41.8596 31.9549L42.2501 32.015L42.3574 31.2249L41.9647 31.1792ZM18.122 32.8972L17.7406 33.0008L17.9629 33.7665L18.3404 33.6493L18.122 32.8972ZM41.6092 33.0883L41.3801 33.8373L41.7561 33.9591L41.989 33.1964L41.6092 33.0883ZM18.7507 34.7348L18.3907 34.8976L18.7325 35.6185L19.0864 35.4426L18.7507 34.7348ZM40.9508 34.9152L40.6044 35.6177L40.9561 35.7989L41.3085 35.0834L40.9508 34.9152ZM19.6657 36.4482L19.3361 36.6659L19.7875 37.3235L20.1094 37.0944L19.6657 36.4482ZM40.0084 36.6134L39.554 37.2512L39.8714 37.4864L40.335 36.8372L40.0084 36.6134ZM20.8417 37.9942L20.5509 38.2621L21.102 38.8391L21.3829 38.5605L20.8417 37.9942ZM38.808 38.1403L38.2577 38.6975L38.534 38.9807L39.0942 38.4128L38.808 38.1403ZM22.2476 39.3346L22.004 39.6452L22.6389 40.127L22.8718 39.8073L22.2476 39.3346ZM37.3793 39.4572L36.7482 39.9215L36.9774 40.2435L37.619 39.7708L37.3793 39.4572ZM23.8499 40.4338L23.6573 40.7786L24.3607 41.1546L24.5411 40.8029L23.8499 40.4338ZM35.761 40.5304L35.0637 40.8874L35.2373 41.2421L35.9475 40.8791L35.761 40.5304ZM25.606 41.2627L25.4712 41.6342L26.2263 41.8922L26.3474 41.5162L25.606 41.2627ZM33.992 41.3312L33.246 41.571L33.3602 41.9493L34.1191 41.7057L33.992 41.3312ZM27.4724 41.8001L27.3993 42.1883L28.1849 42.3215L28.245 41.931L27.4724 41.8001ZM32.1164 41.8374L31.3423 41.9546L31.394 42.3466L32.1826 42.2271L32.1164 41.8374ZM29.4005 42.0315L29.3914 42.4265L30.1883 42.4327L30.1838 42.0368L29.4005 42.0315Z" fill="#BF1D43"/>
<path d="M28.3917 25.5587C28.3917 26.2161 28.1305 26.8467 27.6656 27.3116C27.2007 27.7765 26.5701 28.0377 25.9127 28.0377C25.2552 28.0377 24.6246 27.7765 24.1597 27.3116C23.6948 26.8467 23.4336 26.2161 23.4336 25.5587C23.4336 24.9012 23.6948 24.2706 24.1597 23.8057C24.6246 23.3408 25.2552 23.0796 25.9127 23.0796C26.5701 23.0796 27.2007 23.3408 27.6656 23.8057C28.1305 24.2706 28.3917 24.9012 28.3917 25.5587Z" fill="#D9DEFB"/>
<path d="M37.1027 34.3238C37.1027 34.9813 36.8415 35.6118 36.3766 36.0767C35.9116 36.5417 35.2811 36.8029 34.6236 36.8029C33.9661 36.8029 33.3355 36.5417 32.8706 36.0767C32.4057 35.6118 32.1445 34.9813 32.1445 34.3238C32.1445 33.6663 32.4057 33.0357 32.8706 32.5708C33.3355 32.1059 33.9661 31.8447 34.6236 31.8447C35.2811 31.8447 35.9116 32.1059 36.3766 32.5708C36.8415 33.0357 37.1027 33.6663 37.1027 34.3238Z" fill="#D9DEFB"/>
<path d="M46.4005 12.7222C46.4309 13.9604 46.2406 15.374 46.7295 16.2276C47.1175 16.9049 48.027 17.3915 48.9121 17.8897C48.7399 16.4135 49.1914 14.4195 48.3477 13.476C47.9239 13.0022 47.1992 12.8249 46.4005 12.7222ZM51.0514 20.3827C50.943 21.8357 49.4197 23.667 49.559 25.0368C49.7204 26.625 52.1973 28.3709 52.0251 29.9579C51.8529 31.5449 49.0591 32.7187 48.5607 34.2352C48.0623 35.7517 49.615 38.3542 48.8122 39.734C48.0094 41.1137 44.9795 41.0497 43.9073 42.2324C42.8352 43.4151 43.1951 46.4243 41.9005 47.3582C40.6059 48.2921 37.864 47.0013 36.4035 47.6456C34.943 48.29 34.048 51.1853 32.4854 51.5119C30.9229 51.8385 28.943 49.5441 27.3467 49.5387C25.7505 49.5333 23.7552 51.8142 22.195 51.477C22.1447 51.4661 22.0951 51.4525 22.0463 51.4365C22.8703 52.5235 23.6143 53.9333 24.6736 54.1622C26.2339 54.4994 28.2291 52.2185 29.8254 52.2239C31.4217 52.2293 33.4016 54.5237 34.9641 54.1971C36.5266 53.8705 37.4217 50.9752 38.8822 50.3309C40.3427 49.6865 43.0845 50.9773 44.3791 50.0434C45.6737 49.1095 45.3138 46.1003 46.386 44.9176C47.4581 43.735 50.488 43.7989 51.2909 42.4192C52.0937 41.0395 50.5409 38.437 51.0393 36.9205C51.5378 35.404 54.3316 34.2301 54.5038 32.6431C54.676 31.0561 52.1991 29.3102 52.0376 27.7221C51.8761 26.134 53.9511 23.9251 53.4629 22.4053C53.1829 21.5333 52.0865 20.9676 51.0514 20.3827ZM8.21714 40.9045C8.16975 41.4207 8.20868 41.8932 8.42692 42.2742C8.92877 43.1502 10.3247 43.4553 11.5527 43.8619C11.401 43.1708 11.2065 42.535 10.836 42.1207C10.2907 41.5109 9.22948 41.2247 8.21714 40.9045ZM17.1904 47.3882C16.2672 47.3836 15.1797 47.6216 14.2478 47.6214C14.4404 48.5841 14.6752 49.4975 15.2868 49.945C16.5272 50.8526 19.1225 49.7078 20.6135 50.2052C19.8676 49.2246 19.1938 47.9845 18.3031 47.5843C17.9846 47.4412 17.604 47.3903 17.1904 47.3882Z" fill="#FFBB4F"/>
<path d="M37.1679 22.6099C37.0617 22.6078 36.9534 22.6456 36.8696 22.7294L23.0818 36.5172C22.9206 36.6785 22.9206 36.9398 23.0818 37.1011C23.2431 37.2623 23.5045 37.2623 23.6658 37.1011L37.4536 23.3135C37.6149 23.1522 37.6149 22.8907 37.4536 22.7294C37.3782 22.654 37.2741 22.612 37.1679 22.6099Z" fill="#D9DEFB"/>
<path d="M29.9273 10.4277C19.1552 10.4277 10.4141 19.1696 10.4141 29.9418C10.4141 40.714 19.1552 49.4551 29.9273 49.4551C41.1423 49.4551 49.4414 40.2766 49.4414 29.9414C49.4414 19.604 41.1591 10.4277 29.9273 10.4277ZM29.9273 11.2542C40.253 11.2542 48.615 19.6162 48.615 29.9418C48.615 40.2674 40.253 48.6287 29.9273 48.6287C19.6017 48.6287 11.2405 40.2674 11.2405 29.9418C11.2405 19.6162 19.6017 11.2542 29.9273 11.2542ZM30.1627 18.108C30.1686 18.108 30.1746 18.108 30.1805 18.108C30.1746 18.108 30.1686 18.108 30.1627 18.108Z" fill="#FFA14E"/>
</svg>
