<svg width="41" height="50" viewBox="0 0 41 50" fill="none" xmlns="http://www.w3.org/2000/svg">
<path d="M0.726562 19.3828V48.3873C0.726562 49.278 1.44873 50.0002 2.33945 50.0002H38.7085C39.5992 50.0002 40.3214 49.278 40.3214 48.3873V19.3828H0.726562Z" fill="#FFD064"/>
<path d="M0 19.3828H1.61289V48.3873H0V19.3828Z" fill="#FFC269"/>
<path d="M39.179 16.6998L22.9537 1.12346C21.3934 -0.374487 18.9291 -0.374487 17.3687 1.12346L1.14346 16.6998C0.412988 17.4011 0 18.37 0 19.3826C0 20.3953 0.412988 21.3642 1.14346 22.0655L20.1612 40.3226L39.179 22.0654C39.9095 21.3642 40.3224 20.3952 40.3224 19.3825C40.3225 18.3699 39.9095 17.4011 39.179 16.6998Z" fill="#FFA95F"/>
<path d="M34.6785 4.83887H5.64629C5.20088 4.83887 4.83984 5.1999 4.83984 5.64531V23.3772L16.8021 37.097H23.5226L35.4849 23.3772V5.64531C35.4849 5.1999 35.1239 4.83887 34.6785 4.83887Z" fill="#FFF5D7"/>
<path d="M16.8021 37.0967H23.5226L27.2073 33.5594L35.485 25.6128V23.377L27.1599 31.3691C26.5357 31.9683 25.55 31.9683 24.9259 31.3691L24.1813 30.6544C23.3811 29.8862 22.3973 29.3067 21.3093 29.0904C19.438 28.7183 17.5826 29.2729 16.253 30.5494L15.399 31.3692C14.7749 31.9684 13.7892 31.9684 13.165 31.3692L4.83984 23.3771V25.6129L13.1176 33.5595L16.8021 37.0967Z" fill="#F9EAC7"/>
<path d="M13.71 11.2905H10.3781C9.73399 11.2905 9.34981 12.0084 9.70713 12.5443L10.4842 13.7099L9.70713 14.8754C9.34981 15.4113 9.73399 16.1292 10.3781 16.1292H15.3229V12.9034C15.323 12.0126 14.6008 11.2905 13.71 11.2905Z" fill="#FF8086"/>
<path d="M26.6129 11.2905H29.9447C30.5889 11.2905 30.973 12.0084 30.6157 12.5443L29.8387 13.7099L30.6157 14.8754C30.973 15.4113 30.5889 16.1292 29.9447 16.1292H25V12.9034C24.9999 12.0126 25.7221 11.2905 26.6129 11.2905Z" fill="#FF8086"/>
<path d="M25.8076 27.4195H14.5174C14.0716 27.4195 13.7109 27.0584 13.7109 26.6131C13.7109 26.1678 14.0717 25.8066 14.5174 25.8066H25.8077C26.2535 25.8066 26.6142 26.1678 26.6142 26.6131C26.6142 27.0585 26.2534 27.4195 25.8076 27.4195Z" fill="#FFD064"/>
<path d="M17.3689 31.7132L1.61309 46.839L0.792969 48.8935L37.0559 49.0562L40.3227 48.3873L22.9539 31.7132C21.3935 30.2154 18.9293 30.2154 17.3689 31.7132Z" fill="#FFE07D"/>
<path d="M3.16123 48.3872C2.30605 48.3872 1.61289 47.6939 1.61289 46.8389L0 48.3872C0 49.2779 0.722168 50.0001 1.61289 50.0001H38.7096C39.6004 50.0001 40.3225 49.2779 40.3225 48.3872H3.16123Z" fill="#FFD064"/>
<path d="M6.43887 4.83887L4.83984 8.42129V12.3784L8.20508 4.83887H6.43887Z" fill="#FFF5D7"/>
<path d="M25.0013 18.5481H15.3238C14.433 18.5481 13.7109 17.826 13.7109 16.9353V14.5159C13.7109 14.0705 14.072 13.7095 14.5174 13.7095H25.8077C26.2531 13.7095 26.6142 14.0705 26.6142 14.5159V16.9353C26.6143 17.8261 25.8921 18.5481 25.0013 18.5481Z" fill="#E5646E"/>
<path d="M27.4203 24.1937H12.9041C12.4587 24.1937 12.0977 23.8327 12.0977 23.3873V22.5809C12.0977 22.1354 12.4587 21.7744 12.9041 21.7744H27.4202C27.8656 21.7744 28.2267 22.1354 28.2267 22.5809V23.3873C28.2267 23.8327 27.8656 24.1937 27.4203 24.1937Z" fill="#FFA95F"/>
</svg>
