<svg width="25" height="30" viewBox="0 0 25 30" fill="none" xmlns="http://www.w3.org/2000/svg">
<path d="M1.2652 11.0281C-1.27103 15.4292 0.341301 22.1082 3.14596 26.1579C4.54593 28.1826 5.9633 30 7.90465 30C7.94124 30 7.97793 29.9993 8.0155 29.9978C8.9276 29.9614 9.58671 29.6806 10.224 29.4092C10.9395 29.1043 11.6794 28.789 12.8401 28.789C13.9443 28.789 14.6489 29.0941 15.3304 29.389C16.002 29.6795 16.6938 29.9801 17.7159 29.9609C19.9027 29.9202 21.2453 27.9591 22.4299 26.229C23.666 24.4226 24.286 22.6688 24.4952 21.9985L24.5037 21.9719C24.5435 21.8528 24.4873 21.7227 24.3731 21.6703C24.3699 21.6688 24.3583 21.664 24.3551 21.6626C23.97 21.5051 20.5921 20.0066 20.5566 15.9223C20.5236 12.604 23.0907 10.8468 23.6055 10.5283L23.6295 10.5133C23.6852 10.4774 23.7241 10.4205 23.7373 10.3554C23.7505 10.2904 23.7367 10.2227 23.6993 10.168C21.9274 7.57501 19.2117 7.18422 18.1183 7.13721C17.9597 7.12137 17.7959 7.1134 17.6314 7.1134C16.3472 7.1134 15.117 7.59842 14.1287 7.98812C13.4465 8.25714 12.8572 8.48947 12.4508 8.48947C11.9941 8.48947 11.4015 8.25429 10.7152 7.98203C9.7975 7.6178 8.75734 7.20508 7.65619 7.20508C7.62993 7.20508 7.60406 7.20537 7.57858 7.20586C5.01825 7.24353 2.59897 8.70832 1.2652 11.0281Z" fill="black"/>
<path d="M18.1206 0.000188994C16.5701 0.0633366 14.7102 1.01773 13.5985 2.31983C12.6538 3.41429 11.7309 5.23908 11.974 7.07842C11.9892 7.1935 12.0829 7.28232 12.1987 7.29127C12.3033 7.29944 12.4101 7.30357 12.5166 7.30367C14.0326 7.30367 15.668 6.46495 16.7849 5.11445C17.9604 3.68842 18.5548 1.85832 18.375 0.219042C18.3609 0.0905825 18.2478 -0.0048274 18.1206 0.000188994Z" fill="black"/>
</svg>
