<svg width="44" height="50" viewBox="0 0 44 50" fill="none" xmlns="http://www.w3.org/2000/svg">
<path d="M14.6484 5.85938V1.46484C14.6484 0.655859 13.9926 0 13.1836 0C12.3746 0 11.7188 0.655859 11.7188 1.46484V39.7461C11.7188 40.5551 12.3746 41.2109 13.1836 41.2109C13.9926 41.2109 14.6484 40.5551 14.6484 39.7461V25.6718L15.7227 21.7773V8.10547L14.6484 5.85938Z" fill="url(#paint0_linear_1482_16194)"/>
<path d="M23.2829 42.0207C23.0347 41.5244 22.5275 41.2109 21.9727 41.2109H20.5079V39.7461C20.5079 38.9371 19.852 38.2812 19.043 38.2812H7.32426C6.51528 38.2812 5.85942 38.9371 5.85942 39.7461V41.2109H4.39458C3.83969 41.2109 3.33256 41.5244 3.08432 42.0207L0.154634 47.8801C-0.0724164 48.3341 -0.0480999 48.8734 0.218795 49.3053C0.485689 49.7371 0.957173 50 1.46489 50H24.9024C25.4101 50 25.8816 49.7371 26.1485 49.3053C26.4154 48.8734 26.4396 48.3341 26.2126 47.8801L23.2829 42.0207ZM10.254 2.92969H16.1133C16.9223 2.92969 17.5782 2.27383 17.5782 1.46484C17.5782 0.655859 16.9223 0 16.1133 0H10.254C9.44497 0 8.78911 0.655859 8.78911 1.46484C8.78911 2.27383 9.44487 2.92969 10.254 2.92969ZM43.4498 9.15576C42.9519 8.71621 42.2205 8.6668 41.6679 9.03506L39.7495 10.3141C37.9528 11.5119 36.4793 11.9913 35.1494 11.9912C33.0271 11.9911 31.2706 10.7697 29.1535 9.29736C26.8364 7.68584 24.2101 5.85938 20.7302 5.85938H14.6485V25.6718C17.6673 23.5406 21.3545 20.4104 25.4445 23.4778C27.9595 25.3641 30.4125 26.0261 32.7351 25.4453C37.5336 24.2455 40.3832 18.1492 42.6731 13.2507C43.0664 12.4092 43.438 11.6145 43.7908 10.9089C44.0877 10.3149 43.9479 9.59531 43.4498 9.15576V9.15576Z" fill="url(#paint1_linear_1482_16194)"/>
<defs>
<linearGradient id="paint0_linear_1482_16194" x1="13.7207" y1="41.2109" x2="13.7207" y2="0" gradientUnits="userSpaceOnUse">
<stop stop-color="#FFC2CC"/>
<stop offset="1" stop-color="#FFF2F4"/>
</linearGradient>
<linearGradient id="paint1_linear_1482_16194" x1="21.9727" y1="50" x2="21.9727" y2="0" gradientUnits="userSpaceOnUse">
<stop stop-color="#FD3A84"/>
<stop offset="1" stop-color="#FFA68D"/>
</linearGradient>
</defs>
</svg>
