<svg width="20" height="22" viewBox="0 0 20 22" fill="none" xmlns="http://www.w3.org/2000/svg">
<path d="M14.2801 4.2191C13.6249 3.6567 12.8686 3.23657 12.0591 2.97637V2.81818C12.0591 2.29619 11.8517 1.79557 11.4826 1.42647C11.1135 1.05736 10.6129 0.85 10.0909 0.85C9.56889 0.85 9.06827 1.05736 8.69917 1.42647C8.33006 1.79557 8.1227 2.29619 8.1227 2.81818V2.97632C7.31474 3.23599 6.55979 3.65499 5.90532 4.21579C4.73909 5.21509 3.9689 6.59868 3.73397 8.11639C3.73393 8.11664 3.73389 8.11688 3.73385 8.11712L2.79481 13.8175L2.79477 13.8178C2.74451 14.1266 2.57636 14.4038 2.32575 14.5911L2.32554 14.5912L1.57694 15.1527C1.27185 15.3814 1.04647 15.7003 0.932717 16.0643C0.818968 16.4282 0.82262 16.8187 0.943156 17.1804C1.06369 17.5422 1.295 17.8568 1.60431 18.0798C1.91362 18.3027 2.28525 18.4227 2.66655 18.4227H6.90674C7.02886 19.0813 7.34754 19.6929 7.82776 20.1731C8.45236 20.7977 9.2992 21.149 10.1825 21.15H10.1828C11.0662 21.149 11.913 20.7977 12.5376 20.1731C13.0178 19.6929 13.3365 19.0813 13.4586 18.4227H17.5151C17.5152 18.4227 17.5152 18.4227 17.5152 18.4227C17.8965 18.4228 18.2681 18.3029 18.5774 18.08C18.8868 17.8571 19.1182 17.5424 19.2388 17.1807C19.3594 16.8189 19.3631 16.4283 19.2493 16.0643C19.1356 15.7004 18.9102 15.3814 18.605 15.1527L17.8562 14.5912L17.856 14.5911C17.6054 14.4038 17.4372 14.1266 17.387 13.8178L17.3869 13.8175L16.4485 8.12214C16.4485 8.12188 16.4484 8.12162 16.4484 8.12136C16.2147 6.60349 15.4456 5.21931 14.2801 4.2191ZM8.68168 19.3192C8.42967 19.0672 8.24756 18.7583 8.14785 18.4227H12.2175C12.1178 18.7583 11.9357 19.0672 11.6837 19.3192C11.2856 19.7173 10.7457 19.9409 10.1827 19.9409C9.6197 19.9409 9.07977 19.7173 8.68168 19.3192ZM2.30224 16.12L3.05088 15.5584L16.194 14.014C16.2946 14.6307 16.6305 15.1844 17.1311 15.5584L17.8799 16.1202L17.88 16.1202C17.9819 16.1967 18.0573 16.3034 18.0953 16.4251C18.1333 16.5468 18.1321 16.6774 18.0917 16.7983C18.0514 16.9193 17.9741 17.0245 17.8706 17.099C17.7672 17.1735 17.6429 17.2136 17.5154 17.2136L12.91 17.2136H7.45541L2.66677 17.2136H2.66673C2.53919 17.2137 2.41488 17.1736 2.31141 17.099C2.20794 17.0245 2.13055 16.9192 2.09022 16.7982C2.04989 16.6773 2.04866 16.5466 2.08671 16.4249C2.12475 16.3032 2.20014 16.1965 2.30219 16.12L2.30224 16.12ZM15.2545 8.31221L16.194 14.0137L3.0511 15.5583C3.55157 15.1842 3.88743 14.6305 3.98798 14.0138C3.98799 14.0138 3.988 14.0138 3.988 14.0137L4.92791 8.30733L4.92793 8.30733L4.92827 8.30508C5.11256 7.06962 5.7359 5.94194 6.68406 5.12872C7.29453 4.60513 8.01333 4.23448 8.78128 4.03849C8.83939 4.03328 8.89609 4.01971 8.94973 3.99848C9.32193 3.9166 9.70448 3.8754 10.0908 3.87728L10.0922 3.87727C10.4784 3.87555 10.8609 3.91687 11.2329 3.99883C11.286 4.01973 11.342 4.03314 11.3994 4.03839C12.1687 4.23463 12.8886 4.60609 13.4998 5.13092C14.4479 5.94506 15.0707 7.07368 15.2541 8.30983L15.2541 8.30983L15.2545 8.31221ZM10.6276 2.28142C10.7447 2.39849 10.8196 2.54986 10.8425 2.71191C10.5949 2.68278 10.3448 2.66795 10.0933 2.66785C9.84021 2.66775 9.58846 2.68258 9.33927 2.71189C9.36218 2.54985 9.43706 2.39849 9.55412 2.28142C9.69648 2.13907 9.88956 2.05909 10.0909 2.05909C10.2922 2.05909 10.4853 2.13907 10.6276 2.28142Z" fill="#333333" stroke="#333333" stroke-width="0.3"/>
</svg>
