<svg width="47" height="70" viewBox="0 0 47 70" fill="none" xmlns="http://www.w3.org/2000/svg">
<path d="M47 22.5263C47 10.0853 36.4788 0 23.5 0C10.5212 0 0 10.0853 0 22.5263C0 34.9673 23.5 66.919 23.5 66.919C23.5 66.919 47 34.9686 47 22.5263ZM6.69461 22.5263C6.69461 13.6289 14.2193 6.41723 23.5 6.41723C32.782 6.41723 40.3054 13.6302 40.3054 22.5263C40.3054 31.4237 32.7807 38.6354 23.5 38.6354C14.218 38.6367 6.69461 31.4237 6.69461 22.5263Z" fill="url(#paint0_linear_1675_617)"/>
<path d="M31.2975 23.7375C30.0635 18.6125 25.4842 15.1719 23.664 10.3423C23.6273 10.1827 23.5342 10.0231 23.4725 9.86719C21.6208 14.5208 17.5215 18.0129 15.9229 22.7884C14.201 27.9234 17.6054 33.4695 23.4725 33.4897C28.8046 33.4607 32.4883 28.6726 31.2975 23.7375ZM27.5785 30.9856C28.3496 29.7436 29.0249 28.5796 29.518 27.1994C29.8839 25.7915 29.977 24.4527 30.0609 23.0134C30.8386 25.9398 29.9153 28.953 27.5785 30.9856Z" fill="url(#paint1_linear_1675_617)"/>
<path d="M37.3456 66.3674C37.2262 66.16 37.0794 66.0129 36.9404 65.9048C36.6571 65.6848 36.3791 65.5591 36.105 65.4435C35.8309 65.3316 35.5542 65.2436 35.2814 65.1694C34.1878 64.869 33.098 64.7131 32.0043 64.5887C29.8182 64.3725 27.6348 64.3209 25.4579 64.4215C27.6217 64.6452 29.7802 64.8879 31.8902 65.2977C32.9419 65.5013 33.995 65.7313 34.968 66.0795C35.2106 66.1638 35.4441 66.2618 35.6631 66.3661C35.789 66.4265 35.9109 66.4931 36.0158 66.561C36.2597 66.7181 36.2637 66.8765 36.0276 67.0336C36.0171 67.0399 36.0067 67.0462 35.9975 67.0538C35.6159 67.2599 35.1241 67.4196 34.6297 67.5465C34.1327 67.676 33.6186 67.7816 33.098 67.8721C32.0567 68.0493 30.9972 68.1776 29.9323 68.2706C28.8662 68.3661 27.7961 68.4352 26.7234 68.4755C25.6506 68.5195 24.5766 68.5408 23.5013 68.5408C22.426 68.5408 21.3532 68.5195 20.2792 68.4755C19.2065 68.4352 18.1364 68.3661 17.0703 68.2706C16.0054 68.1776 14.9458 68.0493 13.9046 67.8721C13.3839 67.7828 12.8699 67.6772 12.3729 67.5465C11.8772 67.4196 11.3867 67.2599 11.0051 67.0538C10.9946 67.0475 10.9841 67.0412 10.9749 67.0336C10.7389 66.8765 10.7428 66.7181 10.9867 66.561C11.0916 66.4931 11.2136 66.4265 11.3395 66.3661C11.5585 66.2618 11.7919 66.165 12.0345 66.0795C13.0076 65.7313 14.0606 65.5013 15.1124 65.2977C17.2237 64.8879 19.3822 64.6465 21.5447 64.4215C19.3678 64.3209 17.1844 64.3725 14.9983 64.5887C13.9046 64.7119 12.8148 64.8677 11.7211 65.1694C11.4484 65.2436 11.1717 65.3316 10.8976 65.4435C10.6235 65.5591 10.3455 65.6861 10.0622 65.9048C9.92321 66.0142 9.77502 66.16 9.65699 66.3674C9.60323 66.4843 9.5547 66.6025 9.5429 66.7483C9.53241 66.8187 9.53766 66.8866 9.54684 66.957C9.55471 67.0248 9.5639 67.1003 9.58881 67.1556C9.6098 67.2159 9.6347 67.2762 9.66224 67.3341C9.69109 67.3856 9.72126 67.4296 9.75405 67.4774C9.81831 67.5792 9.88649 67.637 9.95599 67.7112C10.0255 67.7791 10.0937 67.8281 10.1645 67.8872C10.234 67.9387 10.3022 67.9815 10.3717 68.028C10.9225 68.3598 11.4654 68.5496 12.0083 68.7219C12.5525 68.8878 13.0968 69.0198 13.6423 69.1342C14.7307 69.3667 15.8257 69.5188 16.9194 69.6483C18.0144 69.774 19.1121 69.8545 20.2084 69.9161C21.3073 69.9676 22.4037 69.9952 23.5013 70.0003H23.5026H23.5039C24.6015 69.9952 25.6979 69.9676 26.7968 69.9161C27.8944 69.8545 28.9907 69.7728 30.0857 69.6483C31.1794 69.5201 32.2744 69.3667 33.3629 69.1342C33.9084 69.0185 34.4527 68.8865 34.9969 68.7219C35.5398 68.5496 36.0814 68.3598 36.6335 68.028C36.703 67.9815 36.7712 67.9387 36.8407 67.8872C36.9115 67.8281 36.9797 67.7803 37.0492 67.7112C37.1187 67.637 37.1869 67.5792 37.2512 67.4774C37.2839 67.4309 37.3141 67.3869 37.343 67.3341C37.3705 67.275 37.3954 67.2159 37.4164 67.1556C37.4413 67.1003 37.4505 67.0261 37.4583 66.957C37.4662 66.8866 37.4715 66.8187 37.4623 66.7483C37.4479 66.6037 37.3993 66.4843 37.3456 66.3674Z" fill="url(#paint2_linear_1675_617)"/>
<defs>
<linearGradient id="paint0_linear_1675_617" x1="23.5" y1="0" x2="23.5" y2="66.919" gradientUnits="userSpaceOnUse">
<stop stop-color="#4285F4"/>
</linearGradient>
<linearGradient id="paint1_linear_1675_617" x1="23.4988" y1="9.86719" x2="23.4988" y2="33.4897" gradientUnits="userSpaceOnUse">
<stop stop-color="#4285F4"/>
</linearGradient>
<linearGradient id="paint2_linear_1675_617" x1="23.5021" y1="64.3721" x2="23.5021" y2="70.0003" gradientUnits="userSpaceOnUse">
<stop stop-color="#4285F4"/>
</linearGradient>
</defs>
</svg>
