<svg width="86" height="50" viewBox="0 0 86 50" fill="none" xmlns="http://www.w3.org/2000/svg">
<path d="M38.4786 14.3206L34.1339 9.97587L31.0156 19.3301H39.9799L43.529 8.68115H37.1416L40.6298 12.1701L38.4786 14.3206Z" fill="url(#paint0_linear_1482_16187)"/>
<path d="M80.9165 43.3846C78.6012 41.4132 75.1969 41.4132 72.8815 43.3846C69.5025 46.1189 64.672 46.1189 61.2937 43.3846C58.9828 41.4132 55.5815 41.4132 53.2706 43.3846C49.8945 46.1189 45.0663 46.1189 41.6902 43.3846C39.3793 41.4132 35.9773 41.4132 33.6656 43.3846C30.291 46.1196 25.4635 46.1196 22.0889 43.3846C19.7781 41.4132 16.3767 41.4132 14.0658 43.3846C12.4384 44.7313 10.3867 45.4578 8.27416 45.4355C6.16532 45.4563 4.1174 44.7298 2.49361 43.3846C1.76269 42.7784 0.913656 42.3313 0 42.0705V46.5809C1.5651 46.8505 3.03512 47.519 4.26744 48.5204C5.372 49.4949 6.80117 50.0223 8.27416 49.9993C9.74938 50.0223 11.18 49.4957 12.2876 48.5204C15.6629 45.7868 20.4904 45.7868 23.8657 48.5204C26.1766 50.4925 29.5779 50.4925 31.8888 48.5204C35.2642 45.7868 40.0924 45.7868 43.4677 48.5204C45.7786 50.4925 49.1792 50.4925 51.4908 48.5204C54.8662 45.7868 59.6944 45.7868 63.0705 48.5204C65.3858 50.4918 68.7894 50.4918 71.1047 48.5204C74.4838 45.7861 79.3143 45.7861 82.6933 48.5204C83.4257 49.1272 84.2762 49.5751 85.1914 49.8351V45.3248C83.6233 45.0566 82.1511 44.3888 80.9165 43.3846V43.3846Z" fill="url(#paint1_linear_1482_16187)"/>
<path d="M15.3709 20.1718C15.6286 19.6563 16.156 19.3302 16.7325 19.3302H20.8692L20.1887 16.6123L10.5062 19.0264L9.32812 28.4579H11.2282L15.3709 20.1718Z" fill="url(#paint2_linear_1482_16187)"/>
<path d="M53.1306 19.3301L71.7483 16.5371C68.1665 11.6138 62.4506 8.69527 56.3618 8.68115H46.7327L43.1836 19.3301H53.1306Z" fill="url(#paint3_linear_1482_16187)"/>
<path d="M8.00988 36.3687L13.211 40.2737C14.6506 39.3147 16.3501 38.8222 18.0787 38.8623C20.1905 38.8393 22.2421 39.5665 23.8689 40.9125C26.1798 42.8846 29.5811 42.8846 31.892 40.9125C35.2673 38.1789 40.0956 38.1789 43.4709 40.9125C45.7818 42.8846 49.1831 42.8846 51.494 40.9125C54.8693 38.1782 59.6983 38.1782 63.0736 40.9125C64.1826 41.887 65.614 42.4144 67.09 42.3914C68.2674 42.433 69.4269 42.0891 70.3911 41.4116L81.1083 18.2092L53.4684 22.3563C53.3941 22.3675 53.3183 22.3727 53.2433 22.3727H17.6731L16.1518 25.4152H45.6369V28.4578H14.6305L13.5379 30.6595C13.2794 31.1779 12.7483 31.504 12.1689 31.5003H4.5625V33.7822L8.01137 36.3687H8.00988ZM69.9773 22.3727H73.0199V25.4152H69.9773V22.3727ZM63.8922 23.894H66.9348V26.9365H63.8922V23.894Z" fill="url(#paint4_linear_1482_16187)"/>
<path d="M26.3086 2.15118L28.4598 0L35.3055 6.84574L33.1543 8.99691L26.3086 2.15118Z" fill="url(#paint5_linear_1482_16187)"/>
<defs>
<linearGradient id="paint0_linear_1482_16187" x1="37.2723" y1="19.3301" x2="37.2723" y2="8.68115" gradientUnits="userSpaceOnUse">
<stop stop-color="#FFC2CC"/>
<stop offset="1" stop-color="#FFF2F4"/>
</linearGradient>
<linearGradient id="paint1_linear_1482_16187" x1="42.5957" y1="50" x2="42.5957" y2="41.906" gradientUnits="userSpaceOnUse">
<stop stop-color="#FD3A84"/>
<stop offset="1" stop-color="#FFA68D"/>
</linearGradient>
<linearGradient id="paint2_linear_1482_16187" x1="15.0986" y1="28.4579" x2="15.0986" y2="16.6123" gradientUnits="userSpaceOnUse">
<stop stop-color="#FFC2CC"/>
<stop offset="1" stop-color="#FFF2F4"/>
</linearGradient>
<linearGradient id="paint3_linear_1482_16187" x1="57.466" y1="19.3301" x2="57.466" y2="8.68115" gradientUnits="userSpaceOnUse">
<stop stop-color="#FFC2CC"/>
<stop offset="1" stop-color="#FFF2F4"/>
</linearGradient>
<linearGradient id="paint4_linear_1482_16187" x1="42.8354" y1="42.3948" x2="42.8354" y2="18.2092" gradientUnits="userSpaceOnUse">
<stop stop-color="#FD3A84"/>
<stop offset="1" stop-color="#FFA68D"/>
</linearGradient>
<linearGradient id="paint5_linear_1482_16187" x1="30.8071" y1="8.99691" x2="30.8071" y2="0" gradientUnits="userSpaceOnUse">
<stop stop-color="#FD3A84"/>
<stop offset="1" stop-color="#FFA68D"/>
</linearGradient>
</defs>
</svg>
