<svg width="20" height="19" viewBox="0 0 20 19" fill="none" xmlns="http://www.w3.org/2000/svg">
<path d="M19.2717 2.46484H0.728329C0.326184 2.46484 0 2.79103 0 3.19317V17.3911C0 17.8849 0.399911 18.287 0.895889 18.287H19.2717C19.6738 18.287 20 17.9608 20 17.5587V3.19317C20 2.78879 19.6738 2.46484 19.2717 2.46484ZM17.462 14.9269C17.462 15.3603 17.1113 15.711 16.6778 15.711H3.46962C2.97587 15.711 2.57373 15.3111 2.57373 14.8152V9.06895C2.57373 8.63553 2.92449 8.28477 3.35791 8.28477H16.6778C17.1113 8.28477 17.462 8.63553 17.462 9.06895V14.9269Z" fill="#6D6D6D"/>
<path d="M6.47766 3.46962H4.02234C4.00894 3.46962 4 3.46068 4 3.44727V0.0223414C4 0.00893655 4.00894 0 4.02234 0H6.47766C6.49106 0 6.5 0.00893655 6.5 0.0223414V3.44727C6.5 3.46068 6.49106 3.46962 6.47766 3.46962ZM15.5728 3.46962H13.1175C13.1041 3.46962 13.0952 3.46068 13.0952 3.44727V0.0223414C13.0952 0.00893655 13.1041 0 13.1175 0H15.5728C15.5862 0 15.5952 0.00893655 15.5952 0.0223414V3.44727C15.5952 3.46068 15.584 3.46962 15.5728 3.46962ZM14.773 14.0862H12.2395C12.2328 14.0862 12.2283 14.0818 12.2283 14.0751V11.5773C12.2283 11.5728 12.2328 11.5684 12.2373 11.5684H14.7752C14.7797 11.5684 14.7842 11.5728 14.7842 11.5773V14.0773C14.7842 14.0818 14.7797 14.0862 14.773 14.0862Z" fill="#6D6D6D"/>
</svg>
