<svg width="50" height="42" viewBox="0 0 50 42" fill="none" xmlns="http://www.w3.org/2000/svg">
<path d="M43.4126 7.85194H36.2528L32.7684 2.88782C32.1844 1.99757 31.3874 1.26719 30.4497 0.762909C29.512 0.258632 28.4632 -0.00358591 27.3985 3.70383e-05H22.4821C21.4174 -0.00358591 20.3687 0.258632 19.431 0.762909C18.4933 1.26719 17.6963 1.99757 17.1123 2.88782L13.7472 7.85194H6.58741C5.72202 7.83591 4.86221 7.99375 4.05893 8.31611C3.25566 8.63846 2.52525 9.11877 1.911 9.72857C1.29675 10.3384 0.81114 11.0653 0.482954 11.8662C0.154768 12.6671 -0.00932129 13.5257 0.000408711 14.3912V35.4887C0.00669648 37.2021 0.69013 38.8435 1.90169 40.0551C3.11326 41.2667 4.75469 41.9501 6.46808 41.9564H43.4126C44.2711 41.969 45.1235 41.8112 45.9206 41.4922C46.7177 41.1731 47.4435 40.6991 48.0562 40.0975C48.6688 39.496 49.156 38.7789 49.4896 37.9878C49.8232 37.1967 49.9965 36.3473 49.9996 35.4887V14.3912C50.0093 13.5257 49.8452 12.6671 49.517 11.8662C49.1889 11.0653 48.7033 10.3384 48.089 9.72857C47.4748 9.11877 46.7443 8.63846 45.9411 8.31611C45.1378 7.99375 44.278 7.83591 43.4126 7.85194ZM24.9403 34.1045C23.1362 34.1045 21.3726 33.5692 19.8728 32.5664C18.3731 31.5635 17.2046 30.1383 16.5153 28.471C15.8259 26.8037 15.6468 24.9694 16.0005 23.2003C16.3542 21.4312 17.2249 19.8068 18.5023 18.5327C19.7797 17.2587 21.4064 16.3923 23.1764 16.0432C24.9465 15.6941 26.7803 15.8781 28.4458 16.5717C30.1112 17.2654 31.5334 18.4377 32.5323 19.9401C33.5312 21.4424 34.0619 23.2074 34.0571 25.0116C34.0508 27.4253 33.0875 29.7381 31.3785 31.4427C29.6694 33.1473 27.3541 34.1045 24.9403 34.1045Z" fill="url(#paint0_linear_1482_21735)"/>
<defs>
<linearGradient id="paint0_linear_1482_21735" x1="25" y1="0" x2="25" y2="41.9571" gradientUnits="userSpaceOnUse">
<stop stop-color="#4285F4"/>
</linearGradient>
</defs>
</svg>
