<svg width="40" height="40" viewBox="0 0 40 40" fill="none" xmlns="http://www.w3.org/2000/svg">
<path d="M0.350877 20.3509C0.157278 20.3509 0 20.1936 0 20C0 8.97204 8.97204 0 20 0C20.1936 0 20.3509 0.157278 20.3509 0.350877C20.3509 0.544476 20.1936 0.701754 20 0.701754C9.35855 0.701754 0.701754 9.35855 0.701754 20C0.701754 20.1936 0.544476 20.3509 0.350877 20.3509Z" fill="#27AE60"/>
<path d="M22.1073 0.701754H21.4056C21.212 0.701754 21.0547 0.544476 21.0547 0.350877C21.0547 0.157278 21.212 0 21.4056 0H22.1073C22.3009 0 22.4582 0.157278 22.4582 0.350877C22.4582 0.544476 22.3009 0.701754 22.1073 0.701754Z" fill="#27AE60"/>
<path d="M19.9993 39.9998C19.8057 39.9998 19.6484 39.8425 19.6484 39.6489C19.6484 39.4553 19.8057 39.298 19.9993 39.298C30.6401 39.298 39.2976 30.6413 39.2976 19.9998C39.2976 19.8062 39.4548 19.6489 39.6484 19.6489C39.842 19.6489 39.9993 19.8062 39.9993 19.9998C39.9993 31.0278 31.0273 39.9998 19.9993 39.9998Z" fill="#27AE60"/>
<path d="M18.5956 40.0001H17.8938C17.7002 40.0001 17.543 39.8428 17.543 39.6492C17.543 39.4556 17.7002 39.2983 17.8938 39.2983H18.5956C18.7892 39.2983 18.9465 39.4556 18.9465 39.6492C18.9465 39.8428 18.7892 40.0001 18.5956 40.0001Z" fill="#27AE60"/>
<path d="M20.0016 37.1931C10.5217 37.1931 2.80859 29.48 2.80859 20.0001C2.80859 10.5203 10.5217 2.80713 20.0016 2.80713C29.4821 2.80713 37.1946 10.5203 37.1946 20.0001C37.1946 29.48 29.4821 37.1931 20.0016 37.1931ZM20.0016 3.50888C10.9082 3.50888 3.51035 10.9068 3.51035 20.0001C3.51035 29.0935 10.9082 36.4913 20.0016 36.4913C29.0949 36.4913 36.4928 29.0935 36.4928 20.0001C36.4928 10.9068 29.0949 3.50888 20.0016 3.50888Z" fill="#27AE60"/>
<path d="M19.9988 7.36816C13.0227 7.36816 7.36719 13.0237 7.36719 19.9997C7.36719 26.9758 13.0227 32.6313 19.9988 32.6313C26.9748 32.6313 32.6303 26.9758 32.6303 19.9997C32.6303 13.0237 26.9748 7.36816 19.9988 7.36816Z" fill="#27AE60"/>
<path d="M20.002 32.9825C12.8433 32.9825 7.01953 27.1588 7.01953 20C7.01953 12.8413 12.8433 7.01758 20.002 7.01758C27.1607 7.01758 32.9844 12.8413 32.9844 20C32.9844 27.1588 27.1607 32.9825 20.002 32.9825ZM20.002 7.71933C13.2308 7.71933 7.72129 13.2289 7.72129 20C7.72129 26.7712 13.2308 32.2807 20.002 32.2807C26.7732 32.2807 32.2827 26.7712 32.2827 20C32.2827 13.2289 26.7732 7.71933 20.002 7.71933Z" fill="#27AE60"/>
<path d="M34.736 2.10507H31.929C31.7354 2.10507 31.5781 1.9478 31.5781 1.7542C31.5781 1.5606 31.7354 1.40332 31.929 1.40332H34.736C34.9296 1.40332 35.0869 1.5606 35.0869 1.7542C35.0869 1.9478 34.9296 2.10507 34.736 2.10507Z" fill="#27AE60"/>
<path d="M33.3313 3.50877C33.1377 3.50877 32.9805 3.35149 32.9805 3.15789V0.350877C32.9805 0.157278 33.1377 0 33.3313 0C33.5249 0 33.6822 0.157278 33.6822 0.350877V3.15789C33.6822 3.35149 33.5249 3.50877 33.3313 3.50877Z" fill="#27AE60"/>
<path d="M39.6501 6.6666H36.8431C36.6495 6.6666 36.4922 6.50932 36.4922 6.31572C36.4922 6.12212 36.6495 5.96484 36.8431 5.96484H39.6501C39.8437 5.96484 40.001 6.12212 40.001 6.31572C40.001 6.50932 39.8437 6.6666 39.6501 6.6666Z" fill="#27AE60"/>
<path d="M38.2454 8.0703C38.0518 8.0703 37.8945 7.91302 37.8945 7.71942V4.9124C37.8945 4.7188 38.0518 4.56152 38.2454 4.56152C38.439 4.56152 38.5963 4.7188 38.5963 4.9124V7.71942C38.5963 7.91302 38.439 8.0703 38.2454 8.0703Z" fill="#27AE60"/>
<path d="M17.8925 25.5183C17.6229 25.5183 17.3535 25.4158 17.148 25.2102L12.4334 20.4967C12.0222 20.0862 12.0222 19.4194 12.4334 19.0082C12.8446 18.597 13.5107 18.597 13.9219 19.0082L17.8919 22.9782L26.0792 14.7908C26.4904 14.3796 27.1562 14.3796 27.5677 14.7908C27.9789 15.2013 27.9789 15.8685 27.5677 16.2793L18.6371 25.2095C18.4315 25.4151 18.1619 25.5183 17.8925 25.5183Z" fill="white"/>
<path d="M17.8915 25.8694C17.5167 25.8694 17.1644 25.7234 16.8992 25.4582L12.1846 20.7446C11.9194 20.4801 11.7734 20.1279 11.7734 19.7523C11.7734 19.3774 11.9194 19.0252 12.1846 18.76C12.7154 18.2296 13.6388 18.2296 14.1693 18.76L17.8915 22.4815L25.8305 14.5426C26.3609 14.0118 27.2843 14.0118 27.8151 14.5426C28.0803 14.8071 28.2263 15.1601 28.2263 15.5349C28.2263 15.9095 28.0803 16.2624 27.8151 16.5269L18.8838 25.4582C18.6183 25.7234 18.266 25.8694 17.8915 25.8694ZM13.1769 19.0499C12.9895 19.0499 12.8134 19.1229 12.6808 19.2555C12.5482 19.3881 12.4752 19.5642 12.4752 19.7516C12.4752 19.9391 12.5482 20.1152 12.6808 20.2478L17.3954 24.9613C17.6606 25.2269 18.1225 25.2269 18.3877 24.9613L27.3196 16.0301C27.4516 15.8975 27.5252 15.7213 27.5252 15.5342C27.5252 15.3468 27.4522 15.1707 27.3196 15.0381C27.0452 14.7643 26.6018 14.7643 26.3273 15.0381L18.1399 23.2254C18.0029 23.3622 17.7805 23.3622 17.6438 23.2254L13.6738 19.2555C13.5405 19.1229 13.3644 19.0499 13.1769 19.0499Z" fill="#27AE60"/>
</svg>
