<svg width="48" height="17" viewBox="0 0 48 17" fill="none" xmlns="http://www.w3.org/2000/svg">
<path d="M22.4 12.944H27.84V14H21.28V2.8H27.76V3.856H22.4V7.824H27.36V8.88H22.4V12.944ZM36.3281 2.8H37.3841V14H36.3281V12.432C35.5921 13.6053 34.5148 14.192 33.0961 14.192C31.9548 14.192 30.9788 13.7867 30.1681 12.976C29.3681 12.1653 28.9681 11.1733 28.9681 10C28.9681 8.82667 29.3681 7.83467 30.1681 7.024C30.9788 6.21333 31.9548 5.808 33.0961 5.808C34.5148 5.808 35.5921 6.39467 36.3281 7.568V2.8ZM30.9361 12.256C31.5441 12.864 32.2908 13.168 33.1761 13.168C34.0615 13.168 34.8081 12.864 35.4161 12.256C36.0241 11.6373 36.3281 10.8853 36.3281 10C36.3281 9.11467 36.0241 8.368 35.4161 7.76C34.8081 7.14133 34.0615 6.832 33.1761 6.832C32.2908 6.832 31.5441 7.14133 30.9361 7.76C30.3281 8.368 30.0241 9.11467 30.0241 10C30.0241 10.8853 30.3281 11.6373 30.9361 12.256ZM40.692 4.08C40.5427 4.22933 40.3613 4.304 40.148 4.304C39.9347 4.304 39.7533 4.22933 39.604 4.08C39.4547 3.93067 39.38 3.74933 39.38 3.536C39.38 3.32267 39.4547 3.14133 39.604 2.992C39.7533 2.84267 39.9347 2.768 40.148 2.768C40.3613 2.768 40.5427 2.84267 40.692 2.992C40.8413 3.14133 40.916 3.32267 40.916 3.536C40.916 3.74933 40.8413 3.93067 40.692 4.08ZM39.62 14V6H40.676V14H39.62ZM47.1569 7.024H44.8529V11.872C44.8529 12.3093 44.9382 12.624 45.1089 12.816C45.2795 12.9973 45.5355 13.0933 45.8769 13.104C46.2182 13.104 46.6449 13.0933 47.1569 13.072V14C46.0369 14.1707 45.1942 14.0907 44.6289 13.76C44.0742 13.4293 43.7969 12.8 43.7969 11.872V7.024H42.1169V6H43.7969V4.08L44.8529 3.76V6H47.1569V7.024Z" fill="url(#paint0_linear_1998_9)"/>
<path d="M14.8661 4.37488L10.6211 0.129883L0.121094 10.6299V14.7199L4.35609 14.8849L14.8661 4.37488ZM13.4511 4.37488L11.8811 5.94488L9.05109 3.11488L10.6211 1.54488L13.4511 4.37488Z" fill="url(#paint1_linear_1998_9)"/>
<path d="M1 1H7.5V0H0V7.5H1V1Z" fill="url(#paint2_linear_1998_9)"/>
<path d="M14 14H7.5V15H15V7.5H14V14Z" fill="url(#paint3_linear_1998_9)"/>
<defs>
<linearGradient id="paint0_linear_1998_9" x1="34" y1="0" x2="34" y2="17" gradientUnits="userSpaceOnUse">
<stop stop-color="#4285F4"/>
</linearGradient>
<linearGradient id="paint1_linear_1998_9" x1="7.49359" y1="0.129883" x2="7.49359" y2="14.8849" gradientUnits="userSpaceOnUse">
<stop stop-color="#4285F4"/>
</linearGradient>
<linearGradient id="paint2_linear_1998_9" x1="3.75" y1="0" x2="3.75" y2="7.5" gradientUnits="userSpaceOnUse">
<stop stop-color="#4285F4"/>
</linearGradient>
<linearGradient id="paint3_linear_1998_9" x1="11.25" y1="7.5" x2="11.25" y2="15" gradientUnits="userSpaceOnUse">
<stop stop-color="#4285F4"/>
</linearGradient>
</defs>
</svg>
