<svg width="30" height="23" viewBox="0 0 30 23" fill="none" xmlns="http://www.w3.org/2000/svg">
<path d="M25.3125 0H4.6875C2.10305 0 0 2.10305 0 4.6875V17.8125C0 20.397 2.10305 22.5 4.6875 22.5H25.3125C27.897 22.5 30 20.397 30 17.8125V4.6875C30 2.10305 27.897 0 25.3125 0ZM28.125 17.8125C28.125 19.3634 26.8634 20.625 25.3125 20.625H4.6875C3.13664 20.625 1.875 19.3634 1.875 17.8125V4.6875C1.875 3.13664 3.13664 1.875 4.6875 1.875H25.3125C26.8634 1.875 28.125 3.13664 28.125 4.6875V17.8125ZM25.9753 5.35031L20.0756 11.25L25.9753 17.1497C26.3416 17.516 26.3416 18.1092 25.9753 18.4753C25.7923 18.6584 25.5523 18.75 25.3125 18.75C25.0727 18.75 24.8327 18.6584 24.6497 18.4753L18.75 12.5756L15.6628 15.6628C15.4798 15.8459 15.2398 15.9375 15 15.9375C14.7602 15.9375 14.5202 15.8459 14.3372 15.6628L11.25 12.5756L5.35031 18.4753C5.16727 18.6584 4.92727 18.75 4.6875 18.75C4.44773 18.75 4.20773 18.6584 4.02469 18.4753C3.65836 18.109 3.65836 17.5158 4.02469 17.1497L9.92438 11.25L4.02469 5.35031C3.65836 4.98398 3.65836 4.39078 4.02469 4.02469C4.39102 3.65859 4.98422 3.65836 5.35031 4.02469L15 13.6744L24.6497 4.02469C25.016 3.65836 25.6092 3.65836 25.9753 4.02469C26.3414 4.39102 26.3416 4.98422 25.9753 5.35031V5.35031Z" fill="#4F4F4F"/>
</svg>
