<svg width="17" height="12" viewBox="0 0 17 12" fill="none" xmlns="http://www.w3.org/2000/svg">
<path d="M14.7099 3.91887L14.7101 3.91922C15.0523 3.75335 15.2641 3.41537 15.2641 3.03546V1.87891C15.2641 1.80021 15.1998 1.73594 15.1211 1.73594H5.26319C5.01854 1.73594 4.82022 1.53762 4.82022 1.29297C4.82022 1.04832 5.01854 0.85 5.26319 0.85H15.1211C15.6886 0.85 16.15 1.31143 16.15 1.87891V10.082C16.15 10.2655 16.1014 10.4381 16.0169 10.5874L16.0163 10.5885L16.0153 10.5901L16.0152 10.5903L16.0149 10.5908L15.885 10.5158L14.7099 3.91887ZM14.7099 3.91887L14.7005 3.92426L8.9858 7.21958L14.7099 3.91887ZM8.00214 7.2127C8.30457 7.39175 8.68158 7.39432 8.98561 7.21969L8.00214 7.2127ZM8.00214 7.2127L7.99831 7.21046L7.99797 7.21026L5.12598 5.55212L5.12497 5.55153L5.12341 5.55061C5.1234 5.5506 5.12339 5.5506 5.12338 5.55059C5.10781 5.5414 5.09175 5.53322 5.07532 5.52609L2.22717 3.88164C2.22714 3.88162 2.2271 3.8816 2.22707 3.88159C1.92688 3.70774 1.73969 3.38319 1.73931 3.03506C1.73931 3.03503 1.73931 3.03501 1.73931 3.03498L1.58931 3.03514C1.58931 3.02084 1.5879 3.00689 1.58591 2.99315M8.00214 7.2127L1.58591 2.99315M1.58591 2.99315H1.73591V2.98313C1.73541 2.97915 1.73489 2.97531 1.73436 2.97163L1.58591 2.99315ZM3.6413 7.87954C3.65769 7.86507 3.675 7.85195 3.69304 7.84024L5.12769 6.57609L4.7189 6.34007C4.70405 6.33362 4.68939 6.32628 4.67503 6.31798L1.78375 4.64863L1.78361 4.64855C1.76754 4.63925 1.75165 4.62973 1.73594 4.61999V9.55855L3.6413 7.87954ZM3.6413 7.87954L3.64143 7.87942L3.74061 7.99196L3.6413 7.87954ZM9.42795 7.98731L9.42769 7.98746C9.14073 8.15236 8.82021 8.23463 8.5 8.23463C8.17243 8.23463 7.84484 8.14857 7.55326 7.97654C7.55304 7.97642 7.55283 7.97629 7.55262 7.97616L5.93727 7.04354L4.2327 8.54559C4.21517 8.5614 4.19645 8.57577 4.1767 8.58856L2.31966 10.225H14.7976L12.8905 8.54435C12.8905 8.54434 12.8905 8.54433 12.8904 8.54432C12.8638 8.52099 12.8386 8.50034 12.8158 8.48307C12.8158 8.48304 12.8157 8.48301 12.8157 8.48299L9.42795 7.98731ZM9.42795 7.98731L11.1337 7.00258L9.42795 7.98731ZM15.2641 4.62408V9.45518L13.4757 7.87913L13.4755 7.87899C13.438 7.846 13.4006 7.81511 13.3642 7.78704L11.9433 6.53516L12.2355 6.36653C12.2647 6.35175 12.2939 6.33585 12.3247 6.31819L12.3249 6.31803L15.1119 4.7089C15.1643 4.68292 15.215 4.65458 15.2641 4.62408Z" fill="url(#paint0_linear_1585_293)" stroke="url(#paint1_linear_1585_293)" stroke-width="0.3"/>
<defs>
<linearGradient id="paint0_linear_1585_293" x1="8.5" y1="1" x2="8.5" y2="10.9609" gradientUnits="userSpaceOnUse">
<stop stop-color="#121211"/>
<stop offset="0.541667" stop-color="#333333"/>
<stop offset="1"/>
</linearGradient>
<linearGradient id="paint1_linear_1585_293" x1="8.5" y1="1" x2="8.5" y2="10.9609" gradientUnits="userSpaceOnUse">
<stop stop-color="#121211"/>
<stop offset="0.541667" stop-color="#333333"/>
<stop offset="1"/>
</linearGradient>
</defs>
</svg>
