<svg width="17" height="17" viewBox="0 0 17 17" fill="none" xmlns="http://www.w3.org/2000/svg">
<path d="M16.892 8.16896C16.7401 7.96121 13.1215 3.08203 8.49992 3.08203C3.87833 3.08203 0.259583 7.96121 0.107877 8.16876C-0.0359591 8.36585 -0.0359591 8.63317 0.107877 8.83027C0.259583 9.03802 3.87833 13.9172 8.49992 13.9172C13.1215 13.9172 16.7401 9.03799 16.892 8.83043C17.036 8.63337 17.036 8.36585 16.892 8.16896ZM8.49992 12.7963C5.09563 12.7963 2.14715 9.55792 1.27434 8.49923C2.14602 7.43962 5.08832 4.2029 8.49992 4.2029C11.904 4.2029 14.8523 7.44075 15.7255 8.49999C14.8538 9.55957 11.9115 12.7963 8.49992 12.7963Z" fill="#333333"/>
<path d="M8.49936 5.13867C6.64524 5.13867 5.13672 6.64719 5.13672 8.50132C5.13672 10.3555 6.64524 11.864 8.49936 11.864C10.3535 11.864 11.862 10.3555 11.862 8.50132C11.862 6.64719 10.3535 5.13867 8.49936 5.13867ZM8.49936 10.7431C7.26321 10.7431 6.25762 9.73745 6.25762 8.50132C6.25762 7.2652 7.26324 6.25958 8.49936 6.25958C9.73548 6.25958 10.7411 7.2652 10.7411 8.50132C10.7411 9.73745 9.73551 10.7431 8.49936 10.7431Z" fill="#333333"/>
</svg>
