<svg width="16" height="16" viewBox="0 0 16 16" fill="none" xmlns="http://www.w3.org/2000/svg">
<path d="M0.888889 16C0.653141 16 0.427048 15.9064 0.260349 15.7397C0.0936505 15.573 0 15.3469 0 15.1111V0.888889C0 0.653141 0.0936505 0.427049 0.260349 0.26035C0.427048 0.0936507 0.653141 0 0.888889 0C1.12464 0 1.35073 0.0936507 1.51743 0.26035C1.68413 0.427049 1.77778 0.653141 1.77778 0.888889V15.1111C1.77778 15.3469 1.68413 15.573 1.51743 15.7397C1.35073 15.9064 1.12464 16 0.888889 16Z" fill="#F2994A"/>
<path d="M15.0127 1.62657L12.666 0.453239C12.3292 0.283167 11.9601 0.18651 11.5832 0.169654C11.2062 0.152799 10.83 0.21613 10.4793 0.355461L7.51935 1.54657C7.40476 1.59808 7.28054 1.62472 7.1549 1.62472C7.02927 1.62472 6.90505 1.59808 6.79046 1.54657L5.2349 0.737683C4.96393 0.603034 4.66308 0.539775 4.36083 0.553897C4.05857 0.568018 3.76493 0.659051 3.50769 0.818378C3.25045 0.977705 3.03814 1.20005 2.89085 1.46437C2.74356 1.72868 2.66618 2.02621 2.66602 2.32879V6.55991C2.66619 6.89065 2.75863 7.21478 2.93293 7.49587C3.10723 7.77695 3.35649 8.00384 3.65268 8.15102L5.99935 9.32435C6.36894 9.51028 6.77673 9.60766 7.19046 9.6088C7.53199 9.6102 7.8704 9.54373 8.18602 9.41324L11.146 8.23102C11.2606 8.17951 11.3848 8.15287 11.5105 8.15287C11.6361 8.15287 11.7603 8.17951 11.8749 8.23102L13.4305 9.00435C13.6987 9.13774 13.9964 9.20117 14.2958 9.18872C14.5951 9.17628 14.8865 9.08838 15.1428 8.93318C15.3991 8.77799 15.612 8.56053 15.7617 8.30102C15.9115 8.04151 15.9932 7.74835 15.9993 7.44879V3.21768C15.9992 2.88694 15.9067 2.56281 15.7324 2.28172C15.5581 2.00064 15.3089 1.77375 15.0127 1.62657Z" fill="#F2994A"/>
</svg>
