<svg width="30" height="30" viewBox="0 0 30 30" fill="none" xmlns="http://www.w3.org/2000/svg">
<path d="M28.8694 12.3918H16.6317C16.0921 12.3918 15.6553 12.8287 15.6553 13.3683V17.2805C15.6553 17.8201 16.0921 18.2569 16.6317 18.2569H23.5247C22.773 20.2163 21.3598 21.8544 19.5675 22.8951L22.5032 27.9829C27.212 25.2591 30 20.4732 30 15.122C30 14.3576 29.9422 13.8115 29.833 13.2013C29.7431 12.7323 29.3384 12.3918 28.8694 12.3918Z" fill="#167EE6"/>
<path d="M15 24.1285C11.6274 24.1285 8.68518 22.2848 7.10488 19.561L2.01709 22.4904C4.60595 26.9807 9.45606 30 15 30C17.7237 30 20.2869 29.2677 22.5032 27.9893V27.9829L19.5674 22.8951C18.2184 23.6788 16.6638 24.1285 15 24.1285Z" fill="#12B347"/>
<path d="M22.4968 27.9892V27.9828L19.561 22.895C18.2184 23.6723 16.6638 24.1284 15 24.1284V29.9999C17.7238 29.9999 20.2869 29.2676 22.4968 27.9892Z" fill="#0F993E"/>
<path d="M5.87152 14.9999C5.87152 13.3361 6.32762 11.7815 7.10493 10.4389L2.01713 7.50952C0.732334 9.71295 0 12.2697 0 14.9999C0 17.7301 0.732334 20.2868 2.01713 22.4902L7.10493 19.5609C6.3212 18.2183 5.87152 16.6637 5.87152 14.9999Z" fill="#FFD500"/>
<path d="M15 5.87152C17.197 5.87152 19.2205 6.65525 20.7944 7.95289C21.1863 8.27409 21.7516 8.24839 22.1049 7.89507L24.8736 5.12634C25.2783 4.72163 25.2462 4.05996 24.8158 3.68737C22.1755 1.38758 18.7387 0 15 0C9.45606 0 4.60595 3.01927 2.01709 7.50963L7.10488 10.439C8.68518 7.7152 11.6274 5.87152 15 5.87152Z" fill="#FF4B26"/>
<path d="M20.7944 7.95289C21.1863 8.27409 21.7516 8.24839 22.1049 7.89507L24.8737 5.12634C25.2784 4.72163 25.2463 4.05996 24.8158 3.68737C22.1756 1.38758 18.7388 0 15 0V5.87152C17.197 5.87152 19.2206 6.64882 20.7944 7.95289Z" fill="#D93F21"/>
</svg>
