<svg width="22" height="22" viewBox="0 0 22 22" fill="none" xmlns="http://www.w3.org/2000/svg">
<path d="M12.3452 7.72285L12.3461 7.72377C12.7186 8.09307 12.919 8.57233 12.919 9.06897C12.919 9.90943 12.3557 10.665 11.5534 10.9081C10.9293 11.0957 10.5052 11.6565 10.5052 12.3034V13.8966C10.5052 14.1691 10.7275 14.3914 11 14.3914C11.2725 14.3914 11.4948 14.1691 11.4948 13.8966V12.3034C11.4948 12.0996 11.6285 11.9181 11.8368 11.8538C13.0585 11.4863 13.9086 10.3419 13.9086 9.06897C13.9086 8.30386 13.6023 7.57639 13.0474 7.02152C12.4926 6.46666 11.7651 6.16034 11 6.16034C9.39647 6.16034 8.09138 7.46543 8.09138 9.06897C8.09138 9.34146 8.31371 9.56379 8.58621 9.56379C8.85871 9.56379 9.08103 9.34146 9.08103 9.06897C9.08103 8.01043 9.94146 7.15 11 7.15C11.4966 7.15 11.9759 7.35033 12.3452 7.72285ZM0.85 11C0.85 16.5966 5.40336 21.15 11 21.15C16.5966 21.15 21.15 16.5966 21.15 11C21.15 5.40336 16.5966 0.85 11 0.85C5.40336 0.85 0.85 5.40336 0.85 11ZM1.83966 11C1.83966 5.94836 5.94836 1.83966 11 1.83966C16.0516 1.83966 20.1603 5.94836 20.1603 11C20.1603 16.0516 16.0516 20.1603 11 20.1603C5.94836 20.1603 1.83966 16.0516 1.83966 11ZM11 14.85C10.7275 14.85 10.5052 15.0723 10.5052 15.3448C10.5052 15.6173 10.7275 15.8397 11 15.8397C11.2725 15.8397 11.4948 15.6173 11.4948 15.3448C11.4948 15.0723 11.2725 14.85 11 14.85Z" fill="#333333" stroke="#333333" stroke-width="0.3"/>
</svg>
