<svg width="20" height="19" viewBox="0 0 20 19" fill="none" xmlns="http://www.w3.org/2000/svg">
<mask id="path-1-inside-1_1482_22680" fill="white">
<path d="M15.754 18.1325H4.28055C3.64509 18.1301 3.03637 17.8766 2.58703 17.4272C2.13769 16.9779 1.88417 16.3692 1.88173 15.7337V5.34812C1.88085 5.22943 1.91027 5.11249 1.96722 5.00836C2.02417 4.90423 2.10675 4.81635 2.20715 4.75306L9.64536 0.10418C9.75744 0.0360382 9.88609 0 10.0173 0C10.1484 0 10.2771 0.0360382 10.3892 0.10418L17.8274 4.75306C17.9278 4.81635 18.0104 4.90423 18.0673 5.00836C18.1243 5.11249 18.1537 5.22943 18.1528 5.34812V15.7337C18.1504 16.3692 17.8968 16.9779 17.4475 17.4272C16.9982 17.8766 16.3894 18.1301 15.754 18.1325ZM3.27639 5.73862V15.7337C3.27882 15.9993 3.38539 16.2533 3.57318 16.4411C3.76097 16.6289 4.01498 16.7354 4.28055 16.7379H15.754C16.0196 16.7354 16.2736 16.6289 16.4613 16.4411C16.6491 16.2533 16.7557 15.9993 16.7581 15.7337V5.73862L10.0173 1.51744L3.27639 5.73862Z"/>
<path d="M19.3153 6.97521C19.187 6.97761 19.0608 6.94203 18.9527 6.87293L10.0175 1.50813L1.0824 6.87293C1.00421 6.92472 0.916373 6.96021 0.824148 6.97726C0.731923 6.99432 0.637205 6.9926 0.545662 6.9722C0.454118 6.9518 0.367631 6.91314 0.291373 6.85854C0.215116 6.80394 0.150657 6.73452 0.101852 6.65443C0.0530469 6.57434 0.0208997 6.48523 0.00733352 6.39243C-0.00623263 6.29962 -0.00093888 6.20504 0.022898 6.11433C0.046735 6.02362 0.0886252 5.93865 0.146062 5.86451C0.203499 5.79036 0.275303 5.72857 0.357176 5.68282L9.65493 0.104164C9.76345 0.0355846 9.8889 0 10.0173 0C10.1456 0 10.2716 0.0355846 10.3802 0.104164L19.6779 5.68282C19.8282 5.77873 19.936 5.92853 19.9792 6.10145C20.0224 6.27436 19.9978 6.45727 19.9104 6.61259C19.8517 6.71991 19.7658 6.80991 19.6614 6.87356C19.5569 6.93721 19.4376 6.97226 19.3153 6.97521Z"/>
<path d="M12.1837 18.1325H7.85098C7.66603 18.1325 7.48866 18.0591 7.35789 17.9283C7.22711 17.7975 7.15365 17.6201 7.15365 17.4352V13.0931C7.15365 12.3336 7.45536 11.6052 7.99241 11.0682C8.52946 10.5311 9.25785 10.2294 10.0174 10.2294C10.7769 10.2294 11.5053 10.5311 12.0423 11.0682C12.5794 11.6052 12.8811 12.3336 12.8811 13.0931V17.4352C12.8811 17.6201 12.8076 17.7975 12.6768 17.9283C12.546 18.0591 12.3687 18.1325 12.1837 18.1325ZM8.54831 16.7379H11.4864V13.0931C11.4864 12.7035 11.3316 12.3299 11.0561 12.0544C10.7806 11.7789 10.407 11.6241 10.0174 11.6241C9.62774 11.6241 9.25408 11.7789 8.97858 12.0544C8.70308 12.3299 8.54831 12.7035 8.54831 13.0931V16.7379Z"/>
</mask>
<path d="M15.754 18.1325H4.28055C3.64509 18.1301 3.03637 17.8766 2.58703 17.4272C2.13769 16.9779 1.88417 16.3692 1.88173 15.7337V5.34812C1.88085 5.22943 1.91027 5.11249 1.96722 5.00836C2.02417 4.90423 2.10675 4.81635 2.20715 4.75306L9.64536 0.10418C9.75744 0.0360382 9.88609 0 10.0173 0C10.1484 0 10.2771 0.0360382 10.3892 0.10418L17.8274 4.75306C17.9278 4.81635 18.0104 4.90423 18.0673 5.00836C18.1243 5.11249 18.1537 5.22943 18.1528 5.34812V15.7337C18.1504 16.3692 17.8968 16.9779 17.4475 17.4272C16.9982 17.8766 16.3894 18.1301 15.754 18.1325ZM3.27639 5.73862V15.7337C3.27882 15.9993 3.38539 16.2533 3.57318 16.4411C3.76097 16.6289 4.01498 16.7354 4.28055 16.7379H15.754C16.0196 16.7354 16.2736 16.6289 16.4613 16.4411C16.6491 16.2533 16.7557 15.9993 16.7581 15.7337V5.73862L10.0173 1.51744L3.27639 5.73862Z" fill="#333333"/>
<path d="M19.3153 6.97521C19.187 6.97761 19.0608 6.94203 18.9527 6.87293L10.0175 1.50813L1.0824 6.87293C1.00421 6.92472 0.916373 6.96021 0.824148 6.97726C0.731923 6.99432 0.637205 6.9926 0.545662 6.9722C0.454118 6.9518 0.367631 6.91314 0.291373 6.85854C0.215116 6.80394 0.150657 6.73452 0.101852 6.65443C0.0530469 6.57434 0.0208997 6.48523 0.00733352 6.39243C-0.00623263 6.29962 -0.00093888 6.20504 0.022898 6.11433C0.046735 6.02362 0.0886252 5.93865 0.146062 5.86451C0.203499 5.79036 0.275303 5.72857 0.357176 5.68282L9.65493 0.104164C9.76345 0.0355846 9.8889 0 10.0173 0C10.1456 0 10.2716 0.0355846 10.3802 0.104164L19.6779 5.68282C19.8282 5.77873 19.936 5.92853 19.9792 6.10145C20.0224 6.27436 19.9978 6.45727 19.9104 6.61259C19.8517 6.71991 19.7658 6.80991 19.6614 6.87356C19.5569 6.93721 19.4376 6.97226 19.3153 6.97521Z" fill="#333333"/>
<path d="M12.1837 18.1325H7.85098C7.66603 18.1325 7.48866 18.0591 7.35789 17.9283C7.22711 17.7975 7.15365 17.6201 7.15365 17.4352V13.0931C7.15365 12.3336 7.45536 11.6052 7.99241 11.0682C8.52946 10.5311 9.25785 10.2294 10.0174 10.2294C10.7769 10.2294 11.5053 10.5311 12.0423 11.0682C12.5794 11.6052 12.8811 12.3336 12.8811 13.0931V17.4352C12.8811 17.6201 12.8076 17.7975 12.6768 17.9283C12.546 18.0591 12.3687 18.1325 12.1837 18.1325ZM8.54831 16.7379H11.4864V13.0931C11.4864 12.7035 11.3316 12.3299 11.0561 12.0544C10.7806 11.7789 10.407 11.6241 10.0174 11.6241C9.62774 11.6241 9.25408 11.7789 8.97858 12.0544C8.70308 12.3299 8.54831 12.7035 8.54831 13.0931V16.7379Z" fill="#333333"/>
<path d="M15.754 18.1325V39.4659H15.7951L15.8362 39.4657L15.754 18.1325ZM4.28055 18.1325L4.19834 39.4657L4.23944 39.4659H4.28055V18.1325ZM1.88173 15.7337H-19.4516V15.7748L-19.4515 15.8159L1.88173 15.7337ZM1.88173 5.34812H23.2151V5.26907L23.2145 5.19002L1.88173 5.34812ZM2.20715 4.75306L-9.09949 -13.3376L-9.13481 -13.3155L-9.17004 -13.2933L2.20715 4.75306ZM9.64536 0.10418L-1.4369 -18.1248L-1.54952 -18.0563L-1.66129 -17.9865L9.64536 0.10418ZM10.3892 0.10418L21.6958 -17.9865L21.584 -18.0563L21.4714 -18.1248L10.3892 0.10418ZM17.8274 4.75306L29.2046 -13.2933L29.1693 -13.3155L29.134 -13.3376L17.8274 4.75306ZM18.1528 5.34812L-3.17994 5.19002L-3.18053 5.26907V5.34812H18.1528ZM18.1528 15.7337L39.486 15.8159L39.4861 15.7748V15.7337H18.1528ZM3.27639 5.73862L-8.04594 -12.3422L-18.0569 -6.07324V5.73862H3.27639ZM3.27639 15.7337H-18.0569V15.8311L-18.0561 15.9285L3.27639 15.7337ZM4.28055 16.7379L4.08572 38.0703L4.18313 38.0712H4.28055V16.7379ZM15.754 16.7379V38.0712H15.8514L15.9488 38.0703L15.754 16.7379ZM16.7581 15.7337L38.0906 15.9285L38.0915 15.8311V15.7337H16.7581ZM16.7581 5.73862H38.0915V-6.07324L28.0805 -12.3422L16.7581 5.73862ZM10.0173 1.51744L21.3396 -16.5634L10.0173 -23.6535L-1.30506 -16.5634L10.0173 1.51744ZM19.3153 6.97521L19.7149 28.3048L19.7721 28.3037L19.8293 28.3023L19.3153 6.97521ZM18.9527 6.87293L30.4388 -11.1043L30.1887 -11.2641L29.9342 -11.4169L18.9527 6.87293ZM10.0175 1.50813L20.9991 -16.7817L10.0175 -23.3752L-0.963958 -16.7817L10.0175 1.50813ZM1.0824 6.87293L-9.89911 -11.4169L-10.3041 -11.1737L-10.698 -10.9129L1.0824 6.87293ZM0.357176 5.68282L10.7635 24.3059L11.0508 24.1454L11.3331 23.976L0.357176 5.68282ZM9.65493 0.104164L20.6308 18.3973L20.843 18.27L21.0522 18.1378L9.65493 0.104164ZM10.3802 0.104164L-1.0171 18.1378L-0.807929 18.27L-0.595748 18.3973L10.3802 0.104164ZM19.6779 5.68282L31.1579 -12.2983L30.908 -12.4578L30.6538 -12.6104L19.6779 5.68282ZM19.9104 6.61259L1.31924 -3.85074L1.25487 -3.73637L1.19191 -3.62121L19.9104 6.61259ZM10.0174 10.2294V-11.1039V10.2294ZM12.8811 13.0931H34.2144H12.8811ZM12.8811 17.4352H34.2144H12.8811ZM8.54831 16.7379H-12.785V38.0712H8.54831V16.7379ZM11.4864 16.7379V38.0712H32.8197V16.7379H11.4864ZM10.0174 11.6241V-9.70924V11.6241ZM15.754 -3.2008H4.28055V39.4659H15.754V-3.2008ZM4.36276 -3.20064C9.35672 -3.1814 14.1407 -1.18902 17.672 2.34228L-12.4979 32.5122C-8.06794 36.9422 -2.06654 39.4416 4.19834 39.4657L4.36276 -3.20064ZM17.672 2.34228C21.2033 5.87359 23.1957 10.6575 23.2149 15.6515L-19.4515 15.8159C-19.4273 22.0808 -16.9279 28.0822 -12.4979 32.5122L17.672 2.34228ZM23.2151 15.7337V5.34812H-19.4516V15.7337H23.2151ZM23.2145 5.19002C23.2405 8.70217 22.3697 12.1628 20.6845 15.2444L-16.75 -5.22764C-18.5491 -1.93785 -19.4788 1.7567 -19.451 5.50621L23.2145 5.19002ZM20.6845 15.2444C18.9993 18.3259 16.5554 20.9263 13.5843 22.7994L-9.17004 -13.2933C-12.3419 -11.2936 -14.9509 -8.51742 -16.75 -5.22764L20.6845 15.2444ZM13.5138 22.8437L20.952 18.1948L-1.66129 -17.9865L-9.09949 -13.3376L13.5138 22.8437ZM20.7276 18.3331C17.4998 20.2955 13.7948 21.3333 10.0173 21.3333V-21.3333C5.97736 -21.3333 2.01512 -20.2234 -1.4369 -18.1248L20.7276 18.3331ZM10.0173 21.3333C6.23971 21.3333 2.53477 20.2955 -0.693075 18.3331L21.4714 -18.1248C18.0194 -20.2234 14.0572 -21.3333 10.0173 -21.3333V21.3333ZM-0.917468 18.1948L6.52074 22.8437L29.134 -13.3376L21.6958 -17.9865L-0.917468 18.1948ZM6.45019 22.7994C3.47906 20.9263 1.03524 18.3258 -0.649942 15.2444L36.7846 -5.22764C34.9855 -8.51738 32.3765 -11.2936 29.2046 -13.2933L6.45019 22.7994ZM-0.649942 15.2444C-2.33503 12.163 -3.20597 8.70241 -3.17994 5.19002L39.4856 5.50621C39.5133 1.75646 38.5835 -1.93806 36.7846 -5.22764L-0.649942 15.2444ZM-3.18053 5.34812V15.7337H39.4861V5.34812H-3.18053ZM-3.18037 15.6515C-3.16113 10.6575 -1.16875 5.87359 2.36256 2.34228L32.5324 32.5122C36.9624 28.0822 39.4618 22.0808 39.486 15.8159L-3.18037 15.6515ZM2.36256 2.34228C5.89387 -1.18903 10.6778 -3.1814 15.6718 -3.20064L15.8362 39.4657C22.1011 39.4416 28.1025 36.9422 32.5324 32.5122L2.36256 2.34228ZM-18.0569 5.73862V15.7337H24.6097V5.73862H-18.0569ZM-18.0561 15.9285C-18.0026 21.7843 -15.6526 27.3852 -11.5118 31.526L18.6581 1.35613C22.4234 5.1214 24.5602 10.2142 24.6088 15.5389L-18.0561 15.9285ZM-11.5118 31.526C-7.37094 35.6668 -1.77012 38.0168 4.08572 38.0703L4.47538 -4.59457C9.80008 -4.54594 14.8929 -2.40911 18.6581 1.35613L-11.5118 31.526ZM4.28055 38.0712H15.754V-4.59546H4.28055V38.0712ZM15.9488 38.0703C21.8047 38.0168 27.4055 35.6668 31.5463 31.526L1.3764 1.35613C5.14164 -2.40911 10.2344 -4.54594 15.5592 -4.59457L15.9488 38.0703ZM31.5463 31.526C35.6872 27.3852 38.0371 21.7843 38.0906 15.9285L-4.5743 15.5389C-4.52567 10.2142 -2.38887 5.12141 1.3764 1.35613L31.5463 31.526ZM38.0915 15.7337V5.73862H-4.57519V15.7337H38.0915ZM28.0805 -12.3422L21.3396 -16.5634L-1.30507 19.5983L5.43581 23.8194L28.0805 -12.3422ZM-1.30506 -16.5634L-8.04594 -12.3422L14.5987 23.8194L21.3396 19.5983L-1.30506 -16.5634ZM18.9157 -14.3544C22.9932 -14.4308 27.0022 -13.3 30.4388 -11.1043L7.46657 24.8501C11.1195 27.1841 15.3808 28.386 19.7149 28.3048L18.9157 -14.3544ZM29.9342 -11.4169L20.9991 -16.7817L-0.963958 19.7979L7.97119 25.1628L29.9342 -11.4169ZM-0.963958 -16.7817L-9.89911 -11.4169L12.0639 25.1628L20.9991 19.7979L-0.963958 -16.7817ZM-10.698 -10.9129C-8.38392 -12.4455 -5.78458 -13.4956 -3.0555 -14.0003L4.7038 27.9549C7.61733 27.416 10.3923 26.295 12.8628 24.6587L-10.698 -10.9129ZM-3.0555 -14.0003C-0.326375 -14.5051 2.47659 -14.4541 5.18568 -13.8504L-4.09435 27.7948C-1.20218 28.4393 1.79022 28.4937 4.7038 27.9549L-3.0555 -14.0003ZM5.18568 -13.8504C7.89472 -13.2467 10.4541 -12.1028 12.7108 -10.487L-12.128 24.2041C-9.71887 25.9291 -6.98648 27.1503 -4.09435 27.7948L5.18568 -13.8504ZM12.7108 -10.487C14.9674 -8.87129 16.875 -6.8169 18.3193 -4.4468L-18.1156 17.7557C-16.5737 20.2859 -14.5372 22.4792 -12.128 24.2041L12.7108 -10.487ZM18.3193 -4.4468C19.7635 -2.0767 20.7149 0.56038 21.1163 3.30665L-21.1016 9.4782C-20.6731 12.4101 -19.6574 15.2254 -18.1156 17.7557L18.3193 -4.4468ZM21.1163 3.30665C21.5178 6.05293 21.3611 8.85198 20.6557 11.5363L-20.6099 0.692344C-21.363 3.5581 -21.5302 6.54632 -21.1016 9.4782L21.1163 3.30665ZM20.6557 11.5363C19.9503 14.2207 18.7106 16.7351 17.0109 18.9292L-16.7188 -7.20021C-18.5334 -4.85782 -19.8568 -2.17343 -20.6099 0.692344L20.6557 11.5363ZM17.0109 18.9292C15.3112 21.1234 13.1863 22.9521 10.7635 24.3059L-10.0491 -12.9403C-12.6357 -11.4949 -14.9042 -9.54267 -16.7188 -7.20021L17.0109 18.9292ZM11.3331 23.976L20.6308 18.3973L-1.32098 -18.189L-10.6187 -12.6104L11.3331 23.976ZM21.0522 18.1378C17.6807 20.2686 13.8407 21.3333 10.0173 21.3333V-21.3333C5.93709 -21.3333 1.84619 -20.1975 -1.74233 -17.9295L21.0522 18.1378ZM10.0173 21.3333C6.21214 21.3333 2.36955 20.2782 -1.0171 18.1378L21.7774 -17.9295C18.1738 -20.207 14.0791 -21.3333 10.0173 -21.3333V21.3333ZM-0.595748 18.3973L8.70201 23.976L30.6538 -12.6104L21.3561 -18.189L-0.595748 18.3973ZM8.19791 23.6639C3.75215 20.8255 0.562061 16.3926 -0.717194 11.2755L40.6756 0.927354C39.3098 -4.5355 35.9042 -9.26808 31.1579 -12.2983L8.19791 23.6639ZM-0.717194 11.2755C-1.99648 6.15841 -1.26772 0.745748 1.31924 -3.85074L38.5015 17.0759C41.2633 12.1688 42.0413 6.39031 40.6756 0.927354L-0.717194 11.2755ZM1.19191 -3.62121C2.92814 -6.79692 5.46916 -9.46028 8.56015 -11.3438L30.7626 25.091C34.0625 23.0801 36.7752 20.2367 38.6288 16.8464L1.19191 -3.62121ZM8.56015 -11.3438C11.6511 -13.2274 15.1829 -14.2647 18.8013 -14.3519L19.8293 28.3023C23.6922 28.2092 27.4628 27.1018 30.7626 25.091L8.56015 -11.3438ZM12.1837 -3.20081H7.85098V39.4659H12.1837V-3.20081ZM7.85098 -3.20081C13.324 -3.20081 18.5728 -1.02668 22.4428 2.84334L-7.72706 33.0132C-3.59549 37.1448 2.00811 39.4659 7.85098 39.4659V-3.20081ZM22.4428 2.84334C26.3128 6.71332 28.487 11.9622 28.487 17.4352H-14.1797C-14.1797 23.2781 -11.8586 28.8817 -7.72706 33.0132L22.4428 2.84334ZM28.487 17.4352V13.0931H-14.1797V17.4352H28.487ZM28.487 13.0931C28.487 17.9916 26.5411 22.6894 23.0774 26.1531L-7.09254 -4.01675C-11.6304 0.521072 -14.1797 6.67568 -14.1797 13.0931H28.487ZM23.0774 26.1531C19.6136 29.6169 14.9158 31.5628 10.0174 31.5628V-11.1039C3.5999 -11.1039 -2.55471 -8.55458 -7.09254 -4.01675L23.0774 26.1531ZM10.0174 31.5628C5.1189 31.5628 0.42108 29.6169 -3.04264 26.1531L27.1272 -4.01675C22.5894 -8.55457 16.4348 -11.1039 10.0174 -11.1039V31.5628ZM-3.04264 26.1531C-6.50636 22.6894 -8.45227 17.9916 -8.45227 13.0931H34.2144C34.2144 6.67567 31.6651 0.521064 27.1272 -4.01675L-3.04264 26.1531ZM-8.45227 13.0931V17.4352H34.2144V13.0931H-8.45227ZM-8.45227 17.4352C-8.45227 11.9622 -6.27811 6.71332 -2.40813 2.84334L27.7618 33.0132C31.8933 28.8817 34.2144 23.2781 34.2144 17.4352H-8.45227ZM-2.40813 2.84334C1.46189 -1.02668 6.71075 -3.20081 12.1837 -3.20081V39.4659C18.0266 39.4659 23.6302 37.1448 27.7618 33.0132L-2.40813 2.84334ZM8.54831 38.0712H11.4864V-4.59547H8.54831V38.0712ZM32.8197 16.7379V13.0931H-9.84693V16.7379H32.8197ZM32.8197 13.0931C32.8197 7.04555 30.4173 1.24568 26.1411 -3.03058L-4.02882 27.1393C-7.75408 23.414 -9.84693 18.3615 -9.84693 13.0931H32.8197ZM26.1411 -3.03058C21.8648 -7.30684 16.0649 -9.70924 10.0174 -9.70924V32.9574C4.749 32.9574 -0.303552 30.8646 -4.02882 27.1393L26.1411 -3.03058ZM10.0174 -9.70924C3.96977 -9.70924 -1.8301 -7.30684 -6.10636 -3.03058L24.0635 27.1393C20.3383 30.8646 15.2857 32.9574 10.0174 32.9574V-9.70924ZM-6.10636 -3.03058C-10.3826 1.24568 -12.785 7.04555 -12.785 13.0931H29.8816C29.8816 18.3615 27.7888 23.414 24.0635 27.1393L-6.10636 -3.03058ZM-12.785 13.0931V16.7379H29.8816V13.0931H-12.785Z" fill="#333333" mask="url(#path-1-inside-1_1482_22680)"/>
</svg>
