<svg width="20" height="22" viewBox="0 0 20 22" fill="none" xmlns="http://www.w3.org/2000/svg">
<path d="M13.607 5.12862L13.6069 5.12886L13.615 5.13308C16.1955 6.47496 17.7447 9.10699 17.7447 12C17.7447 16.2869 14.2843 19.7974 10 19.7974C5.71572 19.7974 2.25526 16.2869 2.25526 12C2.25526 9.10658 3.80492 6.47418 6.33346 5.1325L6.33356 5.13269L6.34033 5.12862C6.663 4.93503 6.80943 4.53119 6.60231 4.18598C6.40923 3.86419 6.00704 3.71768 5.66246 3.92234C2.72168 5.52761 0.85 8.62954 0.849992 12L0.850008 12.0016C0.903493 17.0291 4.96835 21.15 10 21.15C15.0314 21.15 19.0974 17.0291 19.0974 12C19.0974 8.63099 17.2795 5.52801 14.2844 3.92204C13.9399 3.71782 13.538 3.86435 13.3451 4.18598C13.1379 4.53119 13.2844 4.93503 13.607 5.12862ZM10.0001 12.6763C10.192 12.6763 10.3637 12.6117 10.4877 12.4876C10.6117 12.3636 10.6764 12.192 10.6764 12V1.52632C10.6764 1.33433 10.6117 1.16269 10.4877 1.03867C10.3637 0.914649 10.192 0.85 10.0001 0.85C9.80807 0.85 9.63643 0.914649 9.51241 1.03867C9.38838 1.16269 9.32374 1.33433 9.32374 1.52632V12C9.32374 12.3361 9.59184 12.6763 10.0001 12.6763Z" fill="#333333" stroke="#333333" stroke-width="0.3"/>
</svg>
