<svg width="48" height="71" viewBox="0 0 48 71" fill="none" xmlns="http://www.w3.org/2000/svg">
<path d="M48 22.8481C48 10.2294 37.2549 0 24 0C10.7451 0 0 10.2294 0 22.8481C0 35.4669 24 67.875 24 67.875C24 67.875 48 35.4681 48 22.8481ZM6.83705 22.8481C6.83705 13.8236 14.5219 6.50891 24 6.50891C33.4795 6.50891 41.163 13.8249 41.163 22.8481C41.163 31.8726 33.4781 39.1873 24 39.1873C14.5205 39.1886 6.83705 31.8726 6.83705 22.8481Z" fill="white"/>
<path d="M31.9633 24.0765C30.703 18.8783 26.0262 15.3886 24.1673 10.49C24.1298 10.3281 24.0347 10.1662 23.9718 10.0081C22.0807 14.7281 17.8941 18.2701 16.2615 23.1138C14.503 28.3223 17.9798 33.9476 23.9718 33.968C29.4173 33.9387 33.1794 29.0822 31.9633 24.0765ZM28.1651 31.4282C28.9526 30.1685 29.6423 28.9878 30.1459 27.5878C30.5195 26.1598 30.6146 24.802 30.7003 23.3421C31.4945 26.3103 30.5517 29.3665 28.1651 31.4282Z" fill="white"/>
<path d="M38.1404 67.3156C38.0185 67.1052 37.8685 66.956 37.7265 66.8464C37.4372 66.6233 37.1533 66.4958 36.8734 66.3785C36.5935 66.265 36.3109 66.1757 36.0323 66.1005C34.9154 65.7958 33.8024 65.6377 32.6854 65.5115C30.4529 65.2922 28.223 65.2399 25.9997 65.3419C28.2096 65.5688 30.414 65.8149 32.5689 66.2306C33.643 66.4371 34.7185 66.6704 35.7122 67.0236C35.96 67.109 36.1984 67.2085 36.4221 67.3143C36.5506 67.3755 36.6752 67.4431 36.7823 67.5119C37.0314 67.6713 37.0355 67.832 36.7944 67.9913C36.7837 67.9977 36.773 68.0041 36.7636 68.0117C36.3739 68.2208 35.8716 68.3828 35.3667 68.5115C34.8591 68.6429 34.3341 68.75 33.8024 68.8418C32.739 69.0215 31.6569 69.1516 30.5694 69.2459C29.4805 69.3428 28.3877 69.413 27.2921 69.4538C26.1966 69.4984 25.0997 69.5201 24.0015 69.5201C22.9033 69.5201 21.8078 69.4984 20.7109 69.4538C19.6153 69.413 18.5225 69.3428 17.4337 69.2459C16.3462 69.1516 15.264 69.0215 14.2006 68.8418C13.6689 68.7512 13.1439 68.6441 12.6363 68.5115C12.1301 68.3828 11.6292 68.2208 11.2395 68.0117C11.2287 68.0054 11.218 67.999 11.2087 67.9913C10.9676 67.832 10.9716 67.6713 11.2207 67.5119C11.3278 67.4431 11.4524 67.3755 11.581 67.3143C11.8046 67.2085 12.043 67.1103 12.2908 67.0236C13.2845 66.6704 14.36 66.4371 15.4341 66.2306C17.5904 65.8149 19.7948 65.5701 22.0033 65.3419C19.7801 65.2399 17.5502 65.2922 15.3176 65.5115C14.2006 65.6364 13.0877 65.7945 11.9707 66.1005C11.6921 66.1757 11.4096 66.265 11.1296 66.3785C10.8497 66.4958 10.5658 66.6245 10.2765 66.8464C10.1346 66.9573 9.9832 67.1052 9.86267 67.3156C9.80776 67.4342 9.7582 67.554 9.74615 67.7019C9.73544 67.7733 9.7408 67.8422 9.75017 67.9136C9.75821 67.9824 9.76759 68.0589 9.79304 68.115C9.81447 68.1762 9.8399 68.2374 9.86803 68.2961C9.89749 68.3483 9.92831 68.393 9.96179 68.4414C10.0274 68.5447 10.097 68.6033 10.168 68.6786C10.239 68.7474 10.3087 68.7971 10.381 68.8571C10.452 68.9093 10.5216 68.9527 10.5926 68.9999C11.1551 69.3365 11.7096 69.529 12.264 69.7037C12.8198 69.872 13.3756 70.0058 13.9328 70.1219C15.0444 70.3578 16.1627 70.512 17.2796 70.6434C18.3979 70.7709 19.5189 70.8525 20.6386 70.9149C21.7609 70.9672 22.8805 70.9953 24.0015 71.0004H24.0029H24.0042C25.1252 70.9953 26.2448 70.9672 27.3671 70.9149C28.4881 70.8525 29.6078 70.7696 30.7261 70.6434C31.843 70.5133 32.9613 70.3578 34.0729 70.1219C34.6301 70.0046 35.1859 69.8707 35.7417 69.7037C36.2962 69.529 36.8493 69.3365 37.4131 68.9999C37.4841 68.9527 37.5538 68.9093 37.6247 68.8571C37.6971 68.7971 37.7667 68.7487 37.8377 68.6786C37.9087 68.6033 37.9783 68.5447 38.0439 68.4414C38.0774 68.3942 38.1082 68.3496 38.1377 68.2961C38.1658 68.2361 38.1913 68.1762 38.2127 68.115C38.2381 68.0589 38.2475 67.9837 38.2555 67.9136C38.2636 67.8422 38.2689 67.7733 38.2596 67.7019C38.2448 67.5553 38.1953 67.4342 38.1404 67.3156Z" fill="white"/>
</svg>
