<?xml version="1.0" encoding="utf-8"?>
<!-- Generator: Adobe Illustrator 16.0.0, SVG Export Plug-In . SVG Version: 6.00 Build 0)  -->
<!DOCTYPE svg PUBLIC "-//W3C//DTD SVG 1.1//EN" "http://www.w3.org/Graphics/SVG/1.1/DTD/svg11.dtd">
<svg version="1.1" id="Layer_1" xmlns="http://www.w3.org/2000/svg" xmlns:xlink="http://www.w3.org/1999/xlink" x="0px" y="0px"
	 width="1280px" height="350px" viewBox="0 0 1280 350" enable-background="new 0 0 1280 350" xml:space="preserve">
<path fill="#00C2CB" d="M330.525,236.583L287.98,88.417h20.742l33.866,121.919l35.985-121.919h19.894l35.983,121.919l33.866-121.919
	h20.742l-42.544,148.166h-22.859L388.52,118.262l-35.137,118.321H330.525z M583.342,130.75h18.416v105.833h-18.416v-18.202
	c-9.171,13.969-22.507,20.95-40.004,20.95c-14.818,0-27.447-5.36-37.889-16.082c-10.44-10.868-15.662-24.06-15.662-39.583
	c0-15.521,5.222-28.645,15.662-39.369c10.441-10.865,23.071-16.299,37.889-16.299c17.497,0,30.833,6.985,40.004,20.955V130.75z
	 M545.666,221.555c10.726,0,19.684-3.597,26.882-10.795c7.196-7.339,10.794-16.367,10.794-27.094
	c0-10.725-3.598-19.684-10.794-26.882c-7.198-7.338-16.156-11.007-26.882-11.007c-10.583,0-19.474,3.669-26.668,11.007
	c-7.197,7.198-10.795,16.157-10.795,26.882c0,10.727,3.598,19.755,10.795,27.094C526.192,217.958,535.083,221.555,545.666,221.555z
	 M687.229,148.528H659.08v57.362c0,5.22,0.984,8.96,2.959,11.22c2.121,2.114,5.293,3.245,9.527,3.385
	c4.231,0,9.455-0.14,15.662-0.424v16.512c-16.086,2.118-27.868,0.847-35.35-3.811c-7.477-4.8-11.215-13.759-11.215-26.882v-57.362
	h-20.957V130.75h20.957v-24.13l18.417-5.504v29.634h28.148V148.528z M716.567,192.131c1.836,9.455,6.139,16.793,12.912,22.014
	c6.91,5.219,15.38,7.834,25.4,7.834c13.968,0,24.127-5.153,30.479-15.452l15.663,8.887c-10.299,15.948-25.822,23.918-46.565,23.918
	c-16.795,0-30.481-5.219-41.064-15.657c-10.439-10.584-15.663-23.921-15.663-40.008c0-15.945,5.148-29.209,15.452-39.793
	c10.302-10.583,23.632-15.875,40.004-15.875c15.523,0,28.153,5.504,37.89,16.51c9.88,10.865,14.816,23.99,14.816,39.37
	c0,2.682-0.213,5.433-0.638,8.253H716.567z M753.185,145.354c-9.881,0-18.064,2.824-24.552,8.466
	c-6.491,5.503-10.513,12.911-12.065,22.227h70.693c-1.551-10.021-5.498-17.64-11.851-22.859
	C769.06,147.966,761.649,145.354,753.185,145.354z M845.466,148.528c6.074-13.123,17.082-19.683,33.021-19.683v19.263
	c-9.021-0.424-16.789,1.974-23.284,7.195c-6.486,5.222-9.737,13.617-9.737,25.187v56.093h-18.41V130.75h18.41V148.528z
	 M954.926,127.998c14.815,0,27.451,5.435,37.891,16.299c10.443,10.725,15.661,23.848,15.661,39.369
	c0,15.523-5.218,28.715-15.661,39.583c-10.439,10.722-23.075,16.082-37.891,16.082c-17.497,0-30.828-6.981-40.006-20.95v60.533
	h-18.411V130.75h18.411v18.202C924.098,134.982,937.429,127.998,954.926,127.998z M952.601,221.555
	c10.583,0,19.472-3.597,26.665-10.795c7.198-7.339,10.801-16.367,10.801-27.094c0-10.725-3.603-19.684-10.801-26.882
	c-7.193-7.338-16.082-11.007-26.665-11.007c-10.722,0-19.688,3.669-26.881,11.007c-7.199,7.198-10.8,16.157-10.8,26.882
	c0,10.727,3.601,19.755,10.8,27.094C932.913,217.958,941.879,221.555,952.601,221.555z M1039.768,111.488
	c-3.536,0-6.49-1.199-8.889-3.596c-2.397-2.401-3.601-5.292-3.601-8.679c0-3.388,1.203-6.279,3.601-8.679
	c2.398-2.54,5.353-3.808,8.889-3.808c3.385,0,6.277,1.268,8.676,3.808c2.4,2.4,3.604,5.292,3.604,8.679
	c0,3.387-1.203,6.278-3.604,8.679C1046.045,110.289,1043.152,111.488,1039.768,111.488z M1030.456,236.583V130.75h18.41v105.833
	H1030.456z M1129.663,127.998c12.421,0,22.37,3.951,29.847,11.853c7.479,7.762,11.214,18.344,11.214,31.75v64.983h-18.412V172.66
	c0-8.608-2.331-15.241-6.981-19.897c-4.66-4.797-11.078-7.198-19.265-7.198c-9.168,0-16.576,2.894-22.219,8.679
	c-5.65,5.646-8.471,14.394-8.471,26.246v56.093h-18.411V130.75h18.411v15.238C1102.854,133.995,1114.284,127.998,1129.663,127.998z"
	/>
<linearGradient id="SVGID_1_" gradientUnits="userSpaceOnUse" x1="-109.0532" y1="370.9785" x2="-109.0532" y2="283.3809" gradientTransform="matrix(1 0 0 -1 244 446)">
	<stop  offset="0" style="stop-color:#00C2CB"/>
	<stop  offset="0.5104" style="stop-color:#00C2CB;stop-opacity:0.76"/>
	<stop  offset="1" style="stop-color:#00C2CB"/>
</linearGradient>
<path fill="url(#SVGID_1_)" d="M135.53,76.784c-0.126-0.59-0.459-1.187-0.675-1.763c-6.555,17.253-21.058,30.209-26.714,47.91
	c-6.089,19.044,5.949,39.608,26.714,39.688c18.862-0.103,31.901-17.863,27.682-36.162C158.168,107.455,141.965,94.697,135.53,76.784
	z M149.383,153.335c2.729-4.606,5.118-8.924,6.86-14.045c1.295-5.221,1.624-10.188,1.921-15.519
	C160.909,134.62,157.646,145.802,149.383,153.335z"/>
<linearGradient id="SVGID_2_" gradientUnits="userSpaceOnUse" x1="-108.7437" y1="402.4121" x2="-108.7437" y2="174.8145" gradientTransform="matrix(1 0 0 -1 244 446)">
	<stop  offset="0" style="stop-color:#00C2CB"/>
	<stop  offset="0.5104" style="stop-color:#00C2CB;stop-opacity:0.76"/>
	<stop  offset="1" style="stop-color:#00C2CB"/>
</linearGradient>
<path fill="url(#SVGID_2_)" d="M135.256,43.588C93.139,43.588,59,77.887,59,120.199c0,42.317,76.256,150.987,76.256,150.987
	s76.256-108.67,76.256-150.987C211.512,77.887,177.366,43.588,135.256,43.588z M135.256,174.986
	c-30.114,0-54.532-24.526-54.532-54.791c0-30.255,24.411-54.791,54.532-54.791c30.114,0,54.533,24.528,54.533,54.791
	C189.781,150.459,165.37,174.986,135.256,174.986z"/>
<linearGradient id="SVGID_3_" gradientUnits="userSpaceOnUse" x1="-109.1743" y1="183.8477" x2="-109.1743" y2="160.4707" gradientTransform="matrix(1 0 0 -1 244 446)">
	<stop  offset="0" style="stop-color:#00C2CB"/>
	<stop  offset="0.5104" style="stop-color:#00C2CB;stop-opacity:0.76"/>
	<stop  offset="1" style="stop-color:#00C2CB"/>
</linearGradient>
<path fill="url(#SVGID_3_)" d="M189.665,270.446c-0.475-0.861-1.061-1.469-1.61-1.921c-1.123-0.915-2.223-1.438-3.314-1.917
	c-1.083-0.471-2.183-0.834-3.266-1.145c-4.334-1.247-8.655-1.891-12.985-2.409c-8.665-0.9-17.315-1.114-25.94-0.697
	c8.571,0.932,17.125,1.939,25.492,3.639c4.162,0.847,8.332,1.801,12.191,3.243c0.958,0.351,1.886,0.754,2.759,1.193
	c0.497,0.248,0.977,0.523,1.398,0.807c0.963,0.657,0.98,1.31,0.049,1.971c-0.044,0.026-0.08,0.058-0.12,0.079
	c-1.513,0.852-3.457,1.518-5.422,2.041c-1.974,0.542-4.006,0.977-6.064,1.354c-4.125,0.74-8.323,1.269-12.542,1.65
	c-4.228,0.403-8.464,0.679-12.724,0.852c-4.246,0.182-8.505,0.275-12.764,0.275c-4.257,0-8.514-0.085-12.764-0.275
	c-4.25-0.173-8.494-0.448-12.722-0.852c-4.221-0.387-8.422-0.919-12.544-1.65c-2.063-0.377-4.1-0.812-6.064-1.354
	c-1.963-0.523-3.907-1.189-5.422-2.041c-0.042-0.031-0.077-0.062-0.12-0.079c-0.936-0.657-0.923-1.305,0.049-1.971
	c0.415-0.283,0.901-0.559,1.399-0.807c0.866-0.431,1.792-0.843,2.757-1.193c3.858-1.442,8.03-2.4,12.194-3.243
	c8.365-1.699,16.92-2.707,25.494-3.639c-8.629-0.417-17.28-0.203-25.944,0.697c-4.336,0.51-8.658,1.162-12.986,2.409
	c-1.078,0.311-2.178,0.674-3.265,1.145c-1.084,0.479-2.191,1.002-3.314,1.917c-0.55,0.452-1.136,1.06-1.606,1.921
	c-0.215,0.487-0.401,0.976-0.45,1.579c-0.044,0.288-0.022,0.572,0.013,0.86s0.064,0.595,0.171,0.825
	c0.08,0.253,0.18,0.501,0.286,0.741c0.115,0.213,0.237,0.391,0.364,0.594c0.257,0.427,0.523,0.662,0.801,0.968
	c0.279,0.288,0.543,0.488,0.83,0.736c0.277,0.213,0.541,0.391,0.821,0.585c2.185,1.376,4.336,2.166,6.486,2.884
	c2.156,0.692,4.314,1.233,6.478,1.718c4.314,0.967,8.658,1.602,12.988,2.129c4.343,0.52,8.684,0.856,13.034,1.114
	c4.359,0.213,8.702,0.328,13.052,0.35h0.007h0.006c4.35-0.021,8.693-0.137,13.05-0.35c4.348-0.258,8.695-0.595,13.034-1.114
	c4.339-0.527,8.673-1.166,12.99-2.129c2.165-0.484,4.321-1.025,6.478-1.718c2.147-0.718,4.298-1.508,6.486-2.884
	c0.275-0.194,0.542-0.372,0.821-0.585c0.289-0.248,0.55-0.448,0.83-0.736c0.275-0.306,0.541-0.541,0.798-0.968
	c0.129-0.195,0.249-0.381,0.364-0.594c0.106-0.249,0.208-0.497,0.284-0.741c0.102-0.23,0.138-0.537,0.173-0.825
	c0.04-0.288,0.058-0.572,0.013-0.86C190.069,271.422,189.878,270.93,189.665,270.446z"/>
</svg>
