<svg width="227" height="64" viewBox="0 0 227 64" fill="none" xmlns="http://www.w3.org/2000/svg">
<path d="M65.04 42L57 14H60.92L67.32 37.04L74.12 14H77.88L84.68 37.04L91.08 14H95L86.96 42H82.64L76 19.64L69.36 42H65.04ZM112.817 22H116.297V42H112.817V38.56C111.084 41.2 108.564 42.52 105.257 42.52C102.457 42.52 100.071 41.5067 98.0972 39.48C96.1239 37.4267 95.1372 34.9333 95.1372 32C95.1372 29.0667 96.1239 26.5867 98.0972 24.56C100.071 22.5067 102.457 21.48 105.257 21.48C108.564 21.48 111.084 22.8 112.817 25.44V22ZM105.697 39.16C107.724 39.16 109.417 38.48 110.777 37.12C112.137 35.7333 112.817 34.0267 112.817 32C112.817 29.9733 112.137 28.28 110.777 26.92C109.417 25.5333 107.724 24.84 105.697 24.84C103.697 24.84 102.017 25.5333 100.657 26.92C99.2972 28.28 98.6172 29.9733 98.6172 32C98.6172 34.0267 99.2972 35.7333 100.657 37.12C102.017 38.48 103.697 39.16 105.697 39.16ZM132.45 25.36H127.13V36.2C127.13 37.1867 127.316 37.8933 127.69 38.32C128.09 38.72 128.69 38.9333 129.49 38.96C130.29 38.96 131.276 38.9333 132.45 38.88V42C129.41 42.4 127.183 42.16 125.77 41.28C124.356 40.3733 123.65 38.68 123.65 36.2V25.36H119.69V22H123.65V17.44L127.13 16.4V22H132.45V25.36ZM137.994 33.6C138.341 35.3867 139.154 36.7733 140.434 37.76C141.741 38.7467 143.341 39.24 145.234 39.24C147.874 39.24 149.794 38.2667 150.994 36.32L153.954 38C152.007 41.0133 149.074 42.52 145.154 42.52C141.981 42.52 139.394 41.5333 137.394 39.56C135.421 37.56 134.434 35.04 134.434 32C134.434 28.9867 135.407 26.48 137.354 24.48C139.301 22.48 141.821 21.48 144.914 21.48C147.847 21.48 150.234 22.52 152.074 24.6C153.941 26.6533 154.874 29.1333 154.874 32.04C154.874 32.5467 154.834 33.0667 154.754 33.6H137.994ZM144.914 24.76C143.047 24.76 141.501 25.2933 140.274 26.36C139.047 27.4 138.287 28.8 137.994 30.56H151.354C151.061 28.6667 150.314 27.2267 149.114 26.24C147.914 25.2533 146.514 24.76 144.914 24.76ZM162.354 25.36C163.501 22.88 165.581 21.64 168.594 21.64V25.28C166.888 25.2 165.421 25.6533 164.194 26.64C162.968 27.6267 162.354 29.2133 162.354 31.4V42H158.874V22H162.354V25.36ZM183.039 21.48C185.839 21.48 188.226 22.5067 190.199 24.56C192.173 26.5867 193.159 29.0667 193.159 32C193.159 34.9333 192.173 37.4267 190.199 39.48C188.226 41.5067 185.839 42.52 183.039 42.52C179.733 42.52 177.213 41.2 175.479 38.56V50H171.999V22H175.479V25.44C177.213 22.8 179.733 21.48 183.039 21.48ZM182.599 39.16C184.599 39.16 186.279 38.48 187.639 37.12C188.999 35.7333 189.679 34.0267 189.679 32C189.679 29.9733 188.999 28.28 187.639 26.92C186.279 25.5333 184.599 24.84 182.599 24.84C180.573 24.84 178.879 25.5333 177.519 26.92C176.159 28.28 175.479 29.9733 175.479 32C175.479 34.0267 176.159 35.7333 177.519 37.12C178.879 38.48 180.573 39.16 182.599 39.16ZM199.072 18.36C198.405 18.36 197.845 18.1333 197.392 17.68C196.939 17.2267 196.712 16.68 196.712 16.04C196.712 15.4 196.939 14.8533 197.392 14.4C197.845 13.92 198.405 13.68 199.072 13.68C199.712 13.68 200.259 13.92 200.712 14.4C201.165 14.8533 201.392 15.4 201.392 16.04C201.392 16.68 201.165 17.2267 200.712 17.68C200.259 18.1333 199.712 18.36 199.072 18.36ZM197.312 42V22H200.792V42H197.312ZM216.061 21.48C218.408 21.48 220.288 22.2267 221.701 23.72C223.114 25.1867 223.821 27.1867 223.821 29.72V42H220.341V29.92C220.341 28.2933 219.901 27.04 219.021 26.16C218.141 25.2533 216.928 24.8 215.381 24.8C213.648 24.8 212.248 25.3467 211.181 26.44C210.114 27.5067 209.581 29.16 209.581 31.4V42H206.101V22H209.581V24.88C210.994 22.6133 213.154 21.48 216.061 21.48Z" fill="url(#paint0_linear_55_8)"/>
<path d="M20.5 0C9.17767 0 0 9.22073 0 20.5962C0 31.9716 20.5 61.185 20.5 61.185C20.5 61.185 41 31.9716 41 20.5962C41 9.22073 31.8208 0 20.5 0ZM20.5 35.3237C12.4041 35.3237 5.83962 28.7301 5.83962 20.5946C5.83962 12.4607 12.4025 5.86544 20.5 5.86544C28.5959 5.86544 35.1604 12.4591 35.1604 20.5946C35.1588 28.7301 28.5959 35.3237 20.5 35.3237Z" fill="url(#paint1_linear_55_8)"/>
<path d="M20.6432 9.4559C20.6118 9.31057 20.53 9.16366 20.4766 9.02148C18.8602 13.2756 15.2847 16.4698 13.8901 20.8345C12.3885 25.5294 15.3571 30.6002 20.4766 30.6192C25.1275 30.5939 28.3413 26.215 27.302 21.7033C26.225 17.0179 22.2297 13.8728 20.6432 9.4559ZM24.0583 28.3302C24.7313 27.1944 25.3209 26.1297 25.7501 24.8675C26.0693 23.58 26.1511 22.3558 26.2234 21.0414C26.9011 23.7159 26.0961 26.4725 24.0583 28.3302Z" fill="url(#paint2_linear_55_8)"/>
<path d="M32.5756 60.6787C32.4718 60.4892 32.3429 60.3549 32.2218 60.2554C31.9749 60.0548 31.7328 59.9394 31.4922 59.8336C31.2532 59.7309 31.0111 59.6504 30.7737 59.5824C29.8193 59.3076 28.868 59.1654 27.9152 59.0516C26.0079 58.8542 24.1039 58.8068 22.2045 58.8984C24.0913 59.1038 25.9749 59.3249 27.8161 59.6993C28.7328 59.8857 29.651 60.0958 30.5001 60.4133C30.7108 60.4908 30.9152 60.5792 31.107 60.6756C31.2171 60.7309 31.3224 60.7909 31.4152 60.8541C31.6274 60.9978 31.6306 61.1416 31.4262 61.2869C31.4167 61.2932 31.4089 61.2996 31.3995 61.3043C31.0661 61.4923 30.6384 61.6392 30.2061 61.7545C29.7721 61.873 29.324 61.9694 28.8711 62.0515C27.9623 62.2142 27.0394 62.3311 26.1101 62.4148C25.1793 62.5033 24.2469 62.5649 23.3098 62.6028C22.3743 62.6423 21.4372 62.6628 20.5001 62.6628C19.563 62.6628 18.6259 62.6439 17.6903 62.6028C16.7548 62.5649 15.8208 62.5033 14.89 62.4148C13.9608 62.3295 13.0362 62.2126 12.129 62.0515C11.6746 61.9694 11.2265 61.873 10.7941 61.7545C10.3617 61.6392 9.93403 61.4923 9.6007 61.3043C9.59127 61.298 9.58341 61.2917 9.57397 61.2869C9.368 61.1432 9.37114 60.9994 9.58498 60.8541C9.67618 60.7909 9.7831 60.7309 9.89316 60.6756C10.0834 60.5808 10.2878 60.4908 10.5001 60.4133C11.3491 60.0958 12.2674 59.8841 13.184 59.6993C15.0252 59.3249 16.9089 59.1038 18.7957 58.8984C16.8963 58.8068 14.9922 58.8542 13.085 59.0516C12.1306 59.1638 11.1793 59.3076 10.2265 59.5824C9.98907 59.6504 9.74693 59.7309 9.50794 59.8336C9.26894 59.9394 9.02523 60.0548 8.77838 60.2554C8.65731 60.3549 8.52838 60.4892 8.4246 60.6787C8.37743 60.7862 8.33655 60.8936 8.32555 61.0263C8.31611 61.0895 8.32083 61.1527 8.32869 61.2158C8.33655 61.279 8.34284 61.347 8.36643 61.3975C8.38372 61.4528 8.40574 61.5081 8.42932 61.5602C8.45448 61.6076 8.4812 61.6471 8.50951 61.6913C8.56611 61.7845 8.62429 61.8367 8.68561 61.9046C8.74694 61.9678 8.80511 62.012 8.868 62.0657C8.92932 62.1131 8.9875 62.1526 9.04882 62.1953C9.52995 62.4986 10.0032 62.6723 10.4765 62.8303C10.9513 62.9819 11.4262 63.102 11.9026 63.2078C12.8523 63.4211 13.8082 63.5601 14.7611 63.677C15.7171 63.7908 16.673 63.865 17.6306 63.9219C18.5897 63.9693 19.5457 63.9945 20.5032 63.9993H20.5048H20.5064C21.4639 63.9945 22.4199 63.9693 23.379 63.9219C24.3366 63.865 25.2925 63.7908 26.2485 63.677C27.2029 63.5601 28.1573 63.4195 29.107 63.2078C29.5834 63.102 30.0583 62.9819 30.5331 62.8303C31.0064 62.6723 31.4796 62.4986 31.9608 62.1953C32.0221 62.1526 32.0803 62.1131 32.1416 62.0657C32.2045 62.012 32.2627 61.9678 32.324 61.9046C32.3853 61.8367 32.4435 61.7845 32.5001 61.6913C32.5284 61.6487 32.5551 61.6076 32.5803 61.5602C32.6039 61.5065 32.6259 61.4512 32.6432 61.3975C32.6652 61.347 32.673 61.279 32.6809 61.2158C32.6888 61.1527 32.6935 61.0895 32.684 61.0263C32.6652 60.8936 32.6227 60.7846 32.5756 60.6787Z" fill="url(#paint3_linear_55_8)"/>
<defs>
<linearGradient id="paint0_linear_55_8" x1="141.5" y1="7" x2="141.5" y2="56" gradientUnits="userSpaceOnUse">
<stop stop-color="#4285F4"/>
</linearGradient>
<linearGradient id="paint1_linear_55_8" x1="20.5" y1="0" x2="20.5" y2="61.185" gradientUnits="userSpaceOnUse">
<stop stop-color="#4285F4"/>
</linearGradient>
<linearGradient id="paint2_linear_55_8" x1="20.499" y1="9.02148" x2="20.499" y2="30.6192" gradientUnits="userSpaceOnUse">
<stop stop-color="#4285F4"/>
</linearGradient>
<linearGradient id="paint3_linear_55_8" x1="20.5048" y1="58.8535" x2="20.5048" y2="63.9993" gradientUnits="userSpaceOnUse">
<stop stop-color="#4285F4"/>
</linearGradient>
</defs>
</svg>
