<svg width="41" height="26" viewBox="0 0 41 26" fill="none" xmlns="http://www.w3.org/2000/svg">
<path d="M12.8639 0C5.77082 0 0 5.77021 0 12.8627C0 19.9552 5.77082 25.7255 12.8639 25.7255C19.9571 25.7255 25.7279 19.9552 25.7279 12.8627C25.7279 5.77021 19.9571 0 12.8639 0Z" fill="#FFBC4F"/>
<path d="M27.1374 0C20.0443 0 14.2734 5.77021 14.2734 12.8627C14.2734 19.9552 20.0443 25.7255 27.1374 25.7255C34.2305 25.7255 40.0013 19.9552 40.0013 12.8627C40.0013 5.77021 34.2305 0 27.1374 0Z" fill="#FF7D4F"/>
<path d="M19.2808 17.084C19.2808 16.4367 18.7562 15.9121 18.109 15.9121H14.6367C14.8354 16.7263 15.1116 17.5103 15.4573 18.2558H18.109C18.7562 18.2558 19.2808 17.7312 19.2808 17.084Z" fill="#FFBC4F"/>
<path d="M19.2808 9.45702C19.2808 8.81005 18.7562 8.28516 18.1089 8.28516H15.113C14.8262 9.03558 14.6074 9.81926 14.4648 10.6289H18.1089C18.7562 10.6289 19.2808 10.1043 19.2808 9.45702Z" fill="#FFBC4F"/>
<path d="M22.5076 13.2705C22.5076 12.6232 21.9827 12.0986 21.3357 12.0986H14.2966C14.2817 12.3516 14.2734 12.6061 14.2734 12.8628C14.2734 13.3974 14.3067 13.9245 14.3705 14.4424H21.3357C21.9827 14.4424 22.5076 13.9178 22.5076 13.2705Z" fill="#FFBC4F"/>
</svg>
