<svg width="23" height="20" viewBox="0 0 23 20" fill="none" xmlns="http://www.w3.org/2000/svg">
<path d="M15.1647 0H7.83533C5.7579 0.0020595 3.76613 0.84033 2.29716 2.33084C0.828188 3.82135 0.00202974 5.84232 0 7.95021V9.16375C0.00202974 11.2716 0.828188 13.2926 2.29716 14.7831C3.76613 16.2736 5.7579 17.1119 7.83533 17.114H10.7333L12.1977 19.4477C12.3011 19.6171 12.4456 19.7569 12.6174 19.8535C12.7892 19.9502 12.9826 20.0006 13.179 20C13.3768 19.9983 13.5708 19.9452 13.7426 19.8458C13.9144 19.7464 14.0582 19.6039 14.1603 19.4321L15.571 17.0984C17.55 17.0578 19.4348 16.2336 20.823 14.8019C22.2111 13.3701 22.9924 11.4444 23 9.43602V7.95021C22.998 5.84232 22.1718 3.82135 20.7028 2.33084C19.2339 0.84033 17.2421 0.0020595 15.1647 0Z" fill="#BDBDBD"/>
</svg>
