<svg width="134" height="129" viewBox="0 0 134 129" fill="none" xmlns="http://www.w3.org/2000/svg">
<path d="M96.5671 105.836C93.7348 106.317 90.814 106.561 87.8849 106.561C59.4043 106.561 36.2341 83.5175 36.2341 55.1913C36.2341 43.0956 40.5437 31.3473 48.3683 22.1085C48.9331 21.4421 49.0205 20.4931 48.5888 19.7333C48.1571 18.9753 47.2955 18.5771 46.4341 18.7113C19.5281 23.2506 0 46.2797 0 73.47C0 104.09 25.0366 129.001 55.8111 129.001C72.3027 129.001 87.8637 121.796 98.5034 109.233C99.0683 108.566 99.1556 107.617 98.7229 106.858C98.2901 106.098 97.4287 105.702 96.5671 105.836ZM55.8111 124.84C27.3315 124.84 4.16125 101.796 4.16125 73.47C4.16125 50.1909 19.6409 30.2075 41.6836 24.0329C35.453 33.1824 32.073 44.0508 32.073 55.1915C32.073 85.8116 57.1106 110.722 87.8851 110.722C89.09 110.722 90.2939 110.684 91.4917 110.608C81.9214 119.711 69.199 124.84 55.8111 124.84Z" fill="#4285F4"/>
<path d="M66.0527 61.7906L74.3224 63.9565L77.9431 71.6592C78.2641 72.3418 78.9306 72.7971 79.6844 72.8499C79.732 72.852 79.7788 72.8541 79.8256 72.8541C80.5276 72.8541 81.187 72.4985 81.5721 71.9051L86.2059 64.7509L94.695 63.6983C95.4478 63.6049 96.0899 63.1111 96.3714 62.406C96.6529 61.703 96.5289 60.9005 96.0483 60.3152L90.6465 53.7259L92.2588 45.383C92.402 44.6414 92.1309 43.8774 91.5508 43.3918C90.9697 42.9083 90.1701 42.7782 89.4652 43.0485L81.4933 46.1307L74.0078 42.0122C73.3445 41.6464 72.5347 41.6707 71.8968 42.0752C71.2558 42.4776 70.885 43.1969 70.9276 43.9525L71.4062 52.4417L65.1633 58.2548C64.6075 58.7707 64.3781 59.5491 64.5628 60.2846C64.7476 61.0201 65.3183 61.5975 66.0527 61.7906ZM74.9553 54.8213C75.4085 54.4008 75.6502 53.7993 75.6157 53.1816L75.2936 47.4701L80.3366 50.2435C80.8772 50.5381 81.5161 50.5829 82.0902 50.3613L87.4594 48.2848L86.3754 53.8969C86.2585 54.5044 86.4171 55.1324 86.8092 55.6097L90.4362 60.0331L84.7307 60.7421C84.1201 60.8172 83.5745 61.1587 83.2404 61.6747L80.1153 66.4984L77.6741 61.3049C77.4119 60.7482 76.9153 60.3337 76.3187 60.1772L70.7658 58.7225L74.9553 54.8213Z" fill="#4285F4"/>
<path d="M90.9849 26.7281L103.127 29.9223L108.451 41.2276C108.773 41.9123 109.44 42.3676 110.194 42.4183C110.241 42.4204 110.287 42.4225 110.333 42.4225C111.036 42.4225 111.696 42.0669 112.08 41.4716L118.872 30.9751L131.335 29.4248C132.087 29.3314 132.729 28.8356 133.011 28.1326C133.292 27.4274 133.168 26.627 132.688 26.0417L124.757 16.372L127.127 4.10968C127.27 3.36607 126.999 2.60414 126.417 2.11853C125.836 1.63291 125.04 1.50495 124.333 1.77522L112.628 6.30432L101.634 0.259072C100.969 -0.108782 100.163 -0.0823577 99.5217 0.322115C98.8817 0.724508 98.5109 1.44378 98.5536 2.19946L99.2556 14.6691L90.0969 23.1927C89.5411 23.7108 89.3116 24.489 89.4964 25.2247C89.6812 25.9604 90.2513 26.5351 90.9849 26.7281ZM102.805 17.0503C103.258 16.6278 103.5 16.0262 103.466 15.4085L102.92 5.71447L111.472 10.4163C112.012 10.7109 112.654 10.7556 113.226 10.534L122.327 7.01278L120.486 16.5422C120.37 17.1498 120.528 17.7777 120.92 18.255L127.077 25.7606L117.395 26.966C116.784 27.0411 116.239 27.3846 115.906 27.9006L110.621 36.0666L106.479 27.2708C106.217 26.714 105.721 26.3016 105.126 26.1451L95.6977 23.6663L102.805 17.0503Z" fill="#4285F4"/>
<path d="M127.283 80.6647L128.896 72.3137C129.039 71.5701 128.768 70.8082 128.188 70.3226C127.605 69.839 126.805 69.7069 126.103 69.9793L118.13 73.0596L110.643 68.9471C109.98 68.5854 109.174 68.6077 108.532 69.0122C107.892 69.4146 107.522 70.1339 107.564 70.8895L108.043 79.3706L101.8 85.1836C101.244 85.6996 101.015 86.478 101.2 87.2135C101.384 87.949 101.954 88.5241 102.688 88.7171L110.961 90.8933L114.589 98.5899C114.911 99.2726 115.578 99.7278 116.332 99.7786C116.379 99.7807 116.425 99.7827 116.471 99.7827C117.174 99.7827 117.833 99.4271 118.218 98.8319L122.843 91.6818L131.33 90.6355C132.083 90.5441 132.726 90.0483 133.007 89.3432C133.29 88.6402 133.166 87.8377 132.685 87.2524L127.283 80.6647ZM121.37 87.6706C120.758 87.7457 120.212 88.0871 119.876 88.6052L116.756 93.4289L114.31 88.2396C114.048 87.6829 113.553 87.2726 112.958 87.1161L107.4 85.6553L111.592 81.75C112.045 81.3295 112.287 80.728 112.253 80.1102L111.931 74.4027L116.975 77.1741C117.514 77.4666 118.155 77.5113 118.726 77.2899L124.097 75.2154L123.012 80.8355C122.895 81.4431 123.054 82.071 123.446 82.5483L127.07 86.9676L121.37 87.6706Z" fill="#4285F4"/>
</svg>
