<svg width="22" height="22" viewBox="0 0 22 22" fill="none" xmlns="http://www.w3.org/2000/svg">
<mask id="path-1-outside-1_1482_22644" maskUnits="userSpaceOnUse" x="0" y="0" width="22" height="22" fill="black">
<rect fill="white" width="22" height="22"/>
<path d="M20.8717 19.8839C20.6939 19.7054 20.4272 19.7054 20.2493 19.8839C19.9604 20.1741 19.4269 20.1741 19.138 19.8839C18.7156 19.4598 18.1377 19.3259 17.6042 19.4375C18.6489 18.0089 19.2935 16.2679 19.4269 14.4375C19.4714 13.8571 19.1157 13.2991 18.5378 13.0982L17.0041 12.5179V8.58928C17.0041 7.85268 16.4039 7.25 15.6704 7.25H15.2258V5.01786H16.5595C16.804 5.01786 17.0041 4.81696 17.0041 4.57143C17.0041 4.32589 16.804 4.125 16.5595 4.125H14.7813H12.5585V2.5625C12.5585 1.69196 11.8694 1 11.0025 1C10.1357 1 9.44659 1.69196 9.44659 2.5625V4.125H7.22381H5.44558C5.20107 4.125 5.00102 4.32589 5.00102 4.57143C5.00102 4.81696 5.20107 5.01786 5.44558 5.01786H6.77925V7.25H6.33469C5.60117 7.25 5.00102 7.85268 5.00102 8.58928V12.5179L3.46729 13.0759C2.9116 13.2768 2.55595 13.8348 2.57818 14.4152C2.71155 16.2455 3.35616 17.9866 4.40087 19.4152C4.28973 19.3929 4.17859 19.3705 4.04522 19.3705C3.60066 19.3705 3.17833 19.5491 2.86714 19.8616C2.57818 20.1518 2.04471 20.1518 1.75575 19.8616C1.57792 19.683 1.31119 19.683 1.13337 19.8616C0.955544 20.0402 0.955544 20.308 1.13337 20.4866C1.44456 20.7991 1.86689 20.9777 2.31144 20.9777C2.756 20.9777 3.17833 20.7991 3.48952 20.4866C3.77849 20.1964 4.31195 20.1964 4.60092 20.4866C4.97879 20.8661 5.51226 21.0446 6.04573 20.9554H6.09018H6.11241H6.13464C6.44583 20.8884 6.73479 20.7321 6.95707 20.5089C7.24603 20.2187 7.7795 20.2187 8.06847 20.5089C8.37966 20.8214 8.80199 21 9.24654 21C9.6911 21 10.1134 20.8214 10.4246 20.5089C10.7358 20.1964 11.2248 20.1964 11.536 20.5089C12.1806 21.1562 13.2476 21.1562 13.8922 20.5089C14.2034 20.1964 14.6924 20.1964 15.0036 20.5089C15.2258 20.7321 15.537 20.8884 15.8482 20.9554H15.8705C15.9816 20.9777 16.0927 20.9777 16.1816 20.9777C16.6262 20.9777 17.0485 20.7991 17.3597 20.4866C17.6709 20.1741 18.1599 20.1741 18.4711 20.4866C18.7823 20.7991 19.2046 20.9777 19.6492 20.9777C20.0938 20.9777 20.5161 20.7991 20.8273 20.4866C21.0495 20.3304 21.0495 20.0625 20.8717 19.8839ZM10.3357 2.5625C10.3357 2.18304 10.6247 1.89286 11.0025 1.89286C11.3804 1.89286 11.6694 2.18304 11.6694 2.5625V4.125H10.3357V2.5625ZM7.66836 5.01786H9.89115H12.1139H14.3367V7.25H7.66836V5.01786ZM5.89013 8.58928C5.89013 8.34375 6.09018 8.14286 6.33469 8.14286H15.6704C15.9149 8.14286 16.115 8.34375 16.115 8.58928V12.2054L11.1581 10.3973C11.1359 10.3973 11.1359 10.3973 11.1137 10.3973H11.0915C11.047 10.3973 10.9803 10.3973 10.9359 10.3973H10.9136C10.8914 10.3973 10.8914 10.3973 10.8692 10.3973L5.89013 12.2054V8.58928ZM13.292 19.8839C12.9808 20.1964 12.4918 20.1964 12.1806 19.8839C11.536 19.2366 10.4691 19.2366 9.82447 19.8839C9.53551 20.1741 9.00204 20.1741 8.71307 19.8839C8.40188 19.5714 7.97955 19.3929 7.535 19.3929C7.09044 19.3929 6.66811 19.5714 6.35692 19.8839C6.29024 19.9509 6.22355 19.9955 6.13464 20.0402C4.60092 18.6116 3.62289 16.558 3.46729 14.3705C3.44507 14.192 3.57843 13.9911 3.75626 13.9241L10.558 11.4464V17.5179C10.558 17.7634 10.758 17.9643 11.0025 17.9643C11.2471 17.9643 11.4471 17.7634 11.4471 17.5179V11.4464L18.2488 13.9018C18.4267 13.9687 18.56 14.1473 18.5378 14.3482C18.3822 16.5357 17.4264 18.5893 15.8705 20.0179C15.8038 19.9732 15.7149 19.9286 15.6482 19.8616C15.0036 19.2143 13.9366 19.2143 13.292 19.8839Z"/>
</mask>
<path d="M20.8717 19.8839C20.6939 19.7054 20.4272 19.7054 20.2493 19.8839C19.9604 20.1741 19.4269 20.1741 19.138 19.8839C18.7156 19.4598 18.1377 19.3259 17.6042 19.4375C18.6489 18.0089 19.2935 16.2679 19.4269 14.4375C19.4714 13.8571 19.1157 13.2991 18.5378 13.0982L17.0041 12.5179V8.58928C17.0041 7.85268 16.4039 7.25 15.6704 7.25H15.2258V5.01786H16.5595C16.804 5.01786 17.0041 4.81696 17.0041 4.57143C17.0041 4.32589 16.804 4.125 16.5595 4.125H14.7813H12.5585V2.5625C12.5585 1.69196 11.8694 1 11.0025 1C10.1357 1 9.44659 1.69196 9.44659 2.5625V4.125H7.22381H5.44558C5.20107 4.125 5.00102 4.32589 5.00102 4.57143C5.00102 4.81696 5.20107 5.01786 5.44558 5.01786H6.77925V7.25H6.33469C5.60117 7.25 5.00102 7.85268 5.00102 8.58928V12.5179L3.46729 13.0759C2.9116 13.2768 2.55595 13.8348 2.57818 14.4152C2.71155 16.2455 3.35616 17.9866 4.40087 19.4152C4.28973 19.3929 4.17859 19.3705 4.04522 19.3705C3.60066 19.3705 3.17833 19.5491 2.86714 19.8616C2.57818 20.1518 2.04471 20.1518 1.75575 19.8616C1.57792 19.683 1.31119 19.683 1.13337 19.8616C0.955544 20.0402 0.955544 20.308 1.13337 20.4866C1.44456 20.7991 1.86689 20.9777 2.31144 20.9777C2.756 20.9777 3.17833 20.7991 3.48952 20.4866C3.77849 20.1964 4.31195 20.1964 4.60092 20.4866C4.97879 20.8661 5.51226 21.0446 6.04573 20.9554H6.09018H6.11241H6.13464C6.44583 20.8884 6.73479 20.7321 6.95707 20.5089C7.24603 20.2187 7.7795 20.2187 8.06847 20.5089C8.37966 20.8214 8.80199 21 9.24654 21C9.6911 21 10.1134 20.8214 10.4246 20.5089C10.7358 20.1964 11.2248 20.1964 11.536 20.5089C12.1806 21.1562 13.2476 21.1562 13.8922 20.5089C14.2034 20.1964 14.6924 20.1964 15.0036 20.5089C15.2258 20.7321 15.537 20.8884 15.8482 20.9554H15.8705C15.9816 20.9777 16.0927 20.9777 16.1816 20.9777C16.6262 20.9777 17.0485 20.7991 17.3597 20.4866C17.6709 20.1741 18.1599 20.1741 18.4711 20.4866C18.7823 20.7991 19.2046 20.9777 19.6492 20.9777C20.0938 20.9777 20.5161 20.7991 20.8273 20.4866C21.0495 20.3304 21.0495 20.0625 20.8717 19.8839ZM10.3357 2.5625C10.3357 2.18304 10.6247 1.89286 11.0025 1.89286C11.3804 1.89286 11.6694 2.18304 11.6694 2.5625V4.125H10.3357V2.5625ZM7.66836 5.01786H9.89115H12.1139H14.3367V7.25H7.66836V5.01786ZM5.89013 8.58928C5.89013 8.34375 6.09018 8.14286 6.33469 8.14286H15.6704C15.9149 8.14286 16.115 8.34375 16.115 8.58928V12.2054L11.1581 10.3973C11.1359 10.3973 11.1359 10.3973 11.1137 10.3973H11.0915C11.047 10.3973 10.9803 10.3973 10.9359 10.3973H10.9136C10.8914 10.3973 10.8914 10.3973 10.8692 10.3973L5.89013 12.2054V8.58928ZM13.292 19.8839C12.9808 20.1964 12.4918 20.1964 12.1806 19.8839C11.536 19.2366 10.4691 19.2366 9.82447 19.8839C9.53551 20.1741 9.00204 20.1741 8.71307 19.8839C8.40188 19.5714 7.97955 19.3929 7.535 19.3929C7.09044 19.3929 6.66811 19.5714 6.35692 19.8839C6.29024 19.9509 6.22355 19.9955 6.13464 20.0402C4.60092 18.6116 3.62289 16.558 3.46729 14.3705C3.44507 14.192 3.57843 13.9911 3.75626 13.9241L10.558 11.4464V17.5179C10.558 17.7634 10.758 17.9643 11.0025 17.9643C11.2471 17.9643 11.4471 17.7634 11.4471 17.5179V11.4464L18.2488 13.9018C18.4267 13.9687 18.56 14.1473 18.5378 14.3482C18.3822 16.5357 17.4264 18.5893 15.8705 20.0179C15.8038 19.9732 15.7149 19.9286 15.6482 19.8616C15.0036 19.2143 13.9366 19.2143 13.292 19.8839Z" fill="#333333"/>
<path d="M20.8717 19.8839C20.6939 19.7054 20.4272 19.7054 20.2493 19.8839C19.9604 20.1741 19.4269 20.1741 19.138 19.8839C18.7156 19.4598 18.1377 19.3259 17.6042 19.4375C18.6489 18.0089 19.2935 16.2679 19.4269 14.4375C19.4714 13.8571 19.1157 13.2991 18.5378 13.0982L17.0041 12.5179V8.58928C17.0041 7.85268 16.4039 7.25 15.6704 7.25H15.2258V5.01786H16.5595C16.804 5.01786 17.0041 4.81696 17.0041 4.57143C17.0041 4.32589 16.804 4.125 16.5595 4.125H14.7813H12.5585V2.5625C12.5585 1.69196 11.8694 1 11.0025 1C10.1357 1 9.44659 1.69196 9.44659 2.5625V4.125H7.22381H5.44558C5.20107 4.125 5.00102 4.32589 5.00102 4.57143C5.00102 4.81696 5.20107 5.01786 5.44558 5.01786H6.77925V7.25H6.33469C5.60117 7.25 5.00102 7.85268 5.00102 8.58928V12.5179L3.46729 13.0759C2.9116 13.2768 2.55595 13.8348 2.57818 14.4152C2.71155 16.2455 3.35616 17.9866 4.40087 19.4152C4.28973 19.3929 4.17859 19.3705 4.04522 19.3705C3.60066 19.3705 3.17833 19.5491 2.86714 19.8616C2.57818 20.1518 2.04471 20.1518 1.75575 19.8616C1.57792 19.683 1.31119 19.683 1.13337 19.8616C0.955544 20.0402 0.955544 20.308 1.13337 20.4866C1.44456 20.7991 1.86689 20.9777 2.31144 20.9777C2.756 20.9777 3.17833 20.7991 3.48952 20.4866C3.77849 20.1964 4.31195 20.1964 4.60092 20.4866C4.97879 20.8661 5.51226 21.0446 6.04573 20.9554H6.09018H6.11241H6.13464C6.44583 20.8884 6.73479 20.7321 6.95707 20.5089C7.24603 20.2187 7.7795 20.2187 8.06847 20.5089C8.37966 20.8214 8.80199 21 9.24654 21C9.6911 21 10.1134 20.8214 10.4246 20.5089C10.7358 20.1964 11.2248 20.1964 11.536 20.5089C12.1806 21.1562 13.2476 21.1562 13.8922 20.5089C14.2034 20.1964 14.6924 20.1964 15.0036 20.5089C15.2258 20.7321 15.537 20.8884 15.8482 20.9554H15.8705C15.9816 20.9777 16.0927 20.9777 16.1816 20.9777C16.6262 20.9777 17.0485 20.7991 17.3597 20.4866C17.6709 20.1741 18.1599 20.1741 18.4711 20.4866C18.7823 20.7991 19.2046 20.9777 19.6492 20.9777C20.0938 20.9777 20.5161 20.7991 20.8273 20.4866C21.0495 20.3304 21.0495 20.0625 20.8717 19.8839ZM10.3357 2.5625C10.3357 2.18304 10.6247 1.89286 11.0025 1.89286C11.3804 1.89286 11.6694 2.18304 11.6694 2.5625V4.125H10.3357V2.5625ZM7.66836 5.01786H9.89115H12.1139H14.3367V7.25H7.66836V5.01786ZM5.89013 8.58928C5.89013 8.34375 6.09018 8.14286 6.33469 8.14286H15.6704C15.9149 8.14286 16.115 8.34375 16.115 8.58928V12.2054L11.1581 10.3973C11.1359 10.3973 11.1359 10.3973 11.1137 10.3973H11.0915C11.047 10.3973 10.9803 10.3973 10.9359 10.3973H10.9136C10.8914 10.3973 10.8914 10.3973 10.8692 10.3973L5.89013 12.2054V8.58928ZM13.292 19.8839C12.9808 20.1964 12.4918 20.1964 12.1806 19.8839C11.536 19.2366 10.4691 19.2366 9.82447 19.8839C9.53551 20.1741 9.00204 20.1741 8.71307 19.8839C8.40188 19.5714 7.97955 19.3929 7.535 19.3929C7.09044 19.3929 6.66811 19.5714 6.35692 19.8839C6.29024 19.9509 6.22355 19.9955 6.13464 20.0402C4.60092 18.6116 3.62289 16.558 3.46729 14.3705C3.44507 14.192 3.57843 13.9911 3.75626 13.9241L10.558 11.4464V17.5179C10.558 17.7634 10.758 17.9643 11.0025 17.9643C11.2471 17.9643 11.4471 17.7634 11.4471 17.5179V11.4464L18.2488 13.9018C18.4267 13.9687 18.56 14.1473 18.5378 14.3482C18.3822 16.5357 17.4264 18.5893 15.8705 20.0179C15.8038 19.9732 15.7149 19.9286 15.6482 19.8616C15.0036 19.2143 13.9366 19.2143 13.292 19.8839Z" stroke="#333333" stroke-width="0.2" mask="url(#path-1-outside-1_1482_22644)"/>
</svg>
