<svg width="17" height="17" viewBox="0 0 17 17" fill="none" xmlns="http://www.w3.org/2000/svg">
<path d="M15.1605 14.7658H15.1606V12.0605C15.1606 11.8703 15.0054 11.7158 14.8159 11.7158C13.8017 11.7158 12.8064 11.5571 11.857 11.2435L11.857 11.2435C11.7343 11.2029 11.5984 11.2346 11.5059 11.3256L11.5013 11.3302L11.501 11.3299L9.55734 12.803C9.42135 12.9061 9.23726 12.9223 9.08657 12.8439C9.08652 12.8439 9.08647 12.8439 9.08643 12.8438L9.10952 12.7995C6.7932 11.6129 5.37133 10.1903 4.20055 7.89052L15.1605 14.7658ZM15.1605 14.7658V14.8158C15.1605 15.006 15.0054 15.1605 14.8158 15.1605C7.66075 15.1605 1.83946 9.33925 1.83946 2.18421C1.83946 1.99399 1.99464 1.83946 2.18421 1.83946H4.94738C5.13695 1.83946 5.29213 1.99399 5.29213 2.18421C5.29213 3.19746 5.45081 4.19261 5.76186 5.13629C5.80103 5.26308 5.77198 5.39697 5.6377 5.53637L5.63744 5.53612L5.63381 5.54092L4.19696 7.44354L4.19689 7.44364C4.0947 7.57961 4.07861 7.76188 4.156 7.9132L15.1605 14.7658ZM6.60959 4.86378L6.6096 4.86378L6.60935 4.86303C6.32602 4.00445 6.1816 3.10263 6.1816 2.18421C6.1816 1.50369 5.62791 0.95 4.94738 0.95H2.18421C1.50369 0.95 0.95 1.50369 0.95 2.18421C0.95 9.82945 7.17055 16.05 14.8158 16.05C15.4963 16.05 16.05 15.4963 16.05 14.8158V12.0605C16.05 11.38 15.4963 10.8263 14.8158 10.8263C13.8959 10.8263 12.995 10.6827 12.1405 10.4003C11.7057 10.2505 11.2117 10.3642 10.9207 10.6578L9.2462 11.9224C7.32726 10.893 6.09368 9.66018 5.07676 7.75386L6.30684 6.11942C6.63318 5.79045 6.74974 5.31207 6.60959 4.86378Z" fill="url(#paint0_linear_1585_296)" stroke="url(#paint1_linear_1585_296)" stroke-width="0.1"/>
<defs>
<linearGradient id="paint0_linear_1585_296" x1="8.5" y1="1" x2="8.5" y2="16" gradientUnits="userSpaceOnUse">
<stop stop-color="#121211"/>
<stop offset="0.541667" stop-color="#333333"/>
<stop offset="1"/>
</linearGradient>
<linearGradient id="paint1_linear_1585_296" x1="8.5" y1="1" x2="8.5" y2="16" gradientUnits="userSpaceOnUse">
<stop stop-color="#121211"/>
<stop offset="0.541667" stop-color="#333333"/>
<stop offset="1"/>
</linearGradient>
</defs>
</svg>
