<svg width="18" height="20" viewBox="0 0 18 20" fill="none" xmlns="http://www.w3.org/2000/svg">
<path d="M9 20C4.52745 20 0 19.0632 0 17.2727C0 15.97 2.22345 15.2907 4.0887 14.9505C4.3344 14.9034 4.5675 15.0698 4.61137 15.3168C4.65548 15.5639 4.49325 15.8002 4.24867 15.8448C1.80922 16.2902 0.9 16.9568 0.9 17.2727C0.9 17.8898 3.75908 19.0909 9 19.0909C14.2409 19.0909 17.1 17.8898 17.1 17.2727C17.1 16.9568 16.1908 16.2902 13.7513 15.845C13.5067 15.8005 13.3443 15.5641 13.3886 15.317C13.4325 15.07 13.667 14.9045 13.9113 14.9507C15.7766 15.2907 18 15.97 18 17.2727C18 19.0632 13.4725 20 9 20ZM16.2 7.27273C16.2 12.9057 9.53347 17.4598 9.24953 17.6509C9.17393 17.7018 9.08708 17.7273 9 17.7273C8.91292 17.7273 8.82607 17.7018 8.75047 17.6509C8.46652 17.4598 1.8 12.9057 1.8 7.27273C1.8 3.2625 5.02987 0 9 0C12.9701 0 16.2 3.2625 16.2 7.27273ZM12.15 7.27273C12.15 5.51545 10.7397 4.09091 9 4.09091C7.2603 4.09091 5.85 5.51545 5.85 7.27273C5.85 9.03 7.2603 10.4545 9 10.4545C10.7397 10.4545 12.15 9.03 12.15 7.27273Z" fill="#333333"/>
</svg>
