<svg width="22" height="22" viewBox="0 0 22 22" fill="none" xmlns="http://www.w3.org/2000/svg">
<mask id="path-1-outside-1_1482_22675" maskUnits="userSpaceOnUse" x="0" y="0" width="22" height="22" fill="black">
<rect fill="white" width="22" height="22"/>
<path d="M4.70101 18.7194C4.52256 18.7194 4.37843 18.5751 4.37843 18.3968V16.8416C4.37843 16.6633 4.52256 16.519 4.70101 16.519C4.87932 16.519 5.0236 16.6633 5.0236 16.8416V18.3968C5.0236 18.5748 4.879 18.7194 4.70101 18.7194Z"/>
<path d="M11.4919 19.1938H1.32258C1.14412 19.1938 1 19.0497 1 18.8713V15.7119C1 12.8019 2.78459 10.1984 5.44037 9.23416C5.55031 9.19383 5.67254 9.21683 5.76027 9.29259C6.49285 9.91996 7.41712 10.2658 8.36328 10.2658C9.31386 10.2658 10.241 9.91807 10.9739 9.28613C11.0622 9.21037 11.1855 9.18738 11.2949 9.22738C11.9807 9.47688 12.6197 9.83978 13.1941 10.3065C13.2729 10.37 13.3171 10.4671 13.3132 10.5684C13.3097 10.6694 13.259 10.7633 13.1762 10.8211L13.1371 10.8485L12.9597 10.5955L12.7877 10.8075C12.3171 10.4252 11.799 10.1203 11.2451 9.89901C10.4204 10.553 9.40458 10.9113 8.36328 10.9113C7.32671 10.9113 6.31392 10.5555 5.4903 9.90578C3.18293 10.8255 1.64516 13.1352 1.64516 15.7119V18.5487H11.4919V19.1938Z"/>
<path d="M8.36328 10.9113C5.73932 10.9113 3.6049 8.68775 3.6049 5.95558C3.6049 3.22326 5.73932 1 8.36328 1C10.9871 1 13.122 3.22294 13.122 5.95511C13.122 8.68744 10.9871 10.9113 8.36328 10.9113ZM8.36328 1.64516C6.09514 1.64516 4.25006 3.57876 4.25006 5.95511C4.25006 8.33194 6.09514 10.2658 8.36328 10.2658C10.6313 10.2658 12.4768 8.33194 12.4768 5.95511C12.4768 3.57876 10.6313 1.64516 8.36328 1.64516Z"/>
<path d="M15.3896 17.5809C15.2551 17.5809 15.12 17.5688 14.9855 17.5439C14.3935 17.434 13.8764 17.0926 13.5287 16.582C13.1829 16.0726 13.0516 15.4623 13.159 14.8642C13.267 14.2649 13.6028 13.7407 14.1045 13.3877C14.6081 13.0339 15.212 12.9007 15.8045 13.0094C16.3968 13.1195 16.9135 13.4609 17.2605 13.9716L17.2632 13.9752C17.6055 14.4933 17.7357 15.1024 17.6307 15.6891C17.5225 16.2881 17.1871 16.8123 16.6852 17.1653C16.2958 17.4387 15.8467 17.5809 15.3896 17.5809ZM15.401 13.6172C15.0751 13.6172 14.7546 13.7191 14.4758 13.9155C14.1138 14.1697 13.8719 14.5471 13.7945 14.9784C13.717 15.4093 13.8125 15.8501 14.0629 16.2194C14.3126 16.5864 14.6823 16.8313 15.1036 16.9098C15.5229 16.9871 15.9535 16.891 16.3142 16.6374C16.6762 16.3832 16.9181 16.0058 16.9955 15.5749C17.0712 15.1526 16.9754 14.7113 16.7258 14.3323C16.4768 13.9662 16.1077 13.7216 15.6867 13.6437C15.5912 13.6262 15.4961 13.6172 15.401 13.6172Z"/>
<path d="M15.4706 21C15.4296 21 15.388 20.9962 15.3468 20.9887L13.456 20.6384C13.0948 20.5713 12.8631 20.2332 12.9287 19.8688L13.0796 19.0288C13.0586 19.0149 13.0386 19.0007 13.02 18.9865L12.9958 18.9706L12.298 19.4613C12.1718 19.5578 11.9957 19.6013 11.8248 19.5726C11.6483 19.5438 11.4897 19.4422 11.389 19.2939L10.2994 17.6913C10.2042 17.562 10.1636 17.3897 10.1922 17.2161C10.2209 17.041 10.32 16.8825 10.4644 16.7812L11.1474 16.2884C11.1419 16.2619 11.1373 16.2367 11.1332 16.2133C11.1309 16.2013 11.129 16.189 11.1271 16.1764L10.3025 16.0236C10.1335 15.992 9.9815 15.8907 9.88605 15.7451C9.78808 15.5955 9.75673 15.4167 9.79706 15.2416L10.1396 13.3352C10.1716 13.1571 10.268 13.0045 10.4118 12.9049C10.5548 12.8059 10.7297 12.7693 10.9045 12.8016L11.7229 12.9536C11.7357 12.9333 11.7489 12.9139 11.7622 12.8958L11.7825 12.8629L11.2958 12.1471C11.2009 12.0185 11.1603 11.8465 11.1883 11.6729C11.217 11.4977 11.3161 11.3391 11.4602 11.2374L13.038 10.1283C13.1645 10.0323 13.3409 9.98973 13.5113 10.0171C13.6877 10.0458 13.8465 10.1474 13.9471 10.2958L14.4313 11.0077C14.4403 11.0055 14.4493 11.003 14.4581 11.0006C14.4686 10.9975 14.4797 10.9948 14.4909 10.9929C14.5022 10.9907 14.5139 10.9887 14.5255 10.9871L14.6767 10.1455C14.7093 9.96673 14.8057 9.81458 14.9497 9.71487C15.0922 9.61612 15.2668 9.58005 15.4419 9.61202L17.3235 9.96075C17.6848 10.0277 17.9164 10.3659 17.8509 10.7303L17.6997 11.5703C17.7209 11.5842 17.7409 11.5984 17.7597 11.6126L17.7838 11.6285L18.4815 11.1378C18.608 11.0416 18.7844 10.9987 18.9549 11.0265C19.1313 11.0551 19.29 11.1567 19.3907 11.3053L20.4718 12.9071C20.566 13.0349 20.6067 13.2069 20.5786 13.3803C20.55 13.5554 20.4509 13.7142 20.3068 13.8158L19.6022 14.3107C19.6051 14.3236 19.608 14.3362 19.6112 14.348C19.6142 14.3584 19.6167 14.3687 19.6183 14.3797C19.6206 14.3923 19.6229 14.4049 19.6247 14.4178L20.449 14.5706C20.7793 14.632 21.0107 14.9378 20.9996 15.2969C20.999 15.3126 20.9974 15.3284 20.9944 15.344L20.649 17.2662C20.6167 17.4445 20.5203 17.5972 20.3761 17.6969C20.2329 17.7955 20.0587 17.8307 19.8835 17.7994L19.0657 17.6474C19.0528 17.6677 19.0396 17.6871 19.0264 17.7052L19.006 17.7378L19.4929 18.4538C19.588 18.5833 19.6287 18.7555 19.6 18.9291C19.5712 19.1042 19.4723 19.2627 19.3277 19.3639L17.7505 20.4727C17.6242 20.5691 17.4484 20.6122 17.2774 20.5842C17.1013 20.5552 16.9425 20.4539 16.8415 20.3059L16.3597 19.5967C16.3386 19.601 16.318 19.6049 16.298 19.6087C16.2865 19.6106 16.2751 19.613 16.2632 19.6145L16.112 20.4558C16.08 20.6339 15.9836 20.7864 15.8396 20.8861C15.7303 20.9609 15.6029 21 15.4706 21ZM12.9983 18.2519C13.0774 18.2519 13.1561 18.2811 13.2177 18.3381C13.2506 18.3685 13.2884 18.3913 13.3261 18.4162L13.3999 18.4652C13.4322 18.4891 13.48 18.5216 13.5735 18.5649C13.7068 18.6265 13.7819 18.7703 13.7558 18.9149L13.5639 19.983L15.4644 20.3542L15.669 19.2729C15.6916 19.1471 15.7857 19.0472 15.91 19.0165C15.9763 19.0004 16.0415 18.9916 16.1045 18.9839C16.1309 18.9804 16.1567 18.9774 16.1816 18.973C16.2206 18.9658 16.3155 18.9481 16.3764 18.9239C16.5177 18.8675 16.6787 18.9168 16.7636 19.0417L17.3755 19.942L18.9567 18.8352L18.3467 17.9158C18.2635 17.7933 18.2741 17.6298 18.3732 17.5193C18.4032 17.4858 18.4258 17.447 18.4503 17.4085L18.4987 17.3336C18.5222 17.301 18.5545 17.2516 18.5981 17.1552C18.6587 17.0197 18.8022 16.9443 18.9512 16.9699L20.0015 17.1648L20.3542 15.2591C20.3512 15.2262 20.3373 15.2065 20.3312 15.2052L19.2809 15.0104C19.1555 14.9871 19.0555 14.8919 19.026 14.7675C19.01 14.7007 19.0019 14.6355 18.9942 14.573C18.9916 14.55 18.989 14.5271 18.9857 14.5055C18.9771 14.4723 18.9693 14.4375 18.9623 14.4016C18.9545 14.3649 18.9481 14.3265 18.9348 14.292C18.8803 14.1535 18.9281 13.9962 19.0494 13.9103L19.9352 13.2878L18.8561 11.6667L17.9668 12.2884C17.8419 12.3759 17.6735 12.3645 17.5618 12.261C17.5291 12.2306 17.4913 12.2078 17.4535 12.1829L17.3796 12.1339C17.3473 12.11 17.2993 12.0771 17.206 12.0342C17.0726 11.9733 16.9973 11.8287 17.0235 11.6842L17.2158 10.6161L15.3244 10.2465L15.12 11.3278C15.0974 11.453 15.0036 11.5532 14.8802 11.5839C14.8134 11.6003 14.7487 11.6091 14.6857 11.6168C14.6638 11.6196 14.6422 11.6223 14.6216 11.6255C14.5884 11.6343 14.5535 11.6423 14.5184 11.6497C14.4831 11.6571 14.4464 11.6636 14.4141 11.6765C14.2735 11.7349 14.1116 11.6852 14.0257 11.5593L13.4138 10.659L11.8326 11.7655L12.4426 12.6849C12.5261 12.8077 12.5151 12.9717 12.4155 13.082C12.3857 13.1152 12.3635 13.1533 12.3393 13.1916L12.2906 13.2672C12.2671 13.2996 12.2348 13.3491 12.1912 13.4455C12.1306 13.581 11.988 13.6564 11.8381 13.6307L10.7876 13.4359L10.4299 15.3714L11.4715 15.5835C11.5968 15.6069 11.6965 15.7017 11.7264 15.8255C11.7425 15.8929 11.751 15.9584 11.7587 16.0216C11.7618 16.0487 11.7651 16.0751 11.7692 16.1006C11.776 16.1391 11.7932 16.2374 11.8181 16.3016C11.8719 16.4387 11.8258 16.5946 11.7064 16.6806L10.839 17.3065L11.9231 18.9306L12.8132 18.31C12.869 18.2713 12.9339 18.2519 12.9983 18.2519Z"/>
</mask>
<path d="M4.70101 18.7194C4.52256 18.7194 4.37843 18.5751 4.37843 18.3968V16.8416C4.37843 16.6633 4.52256 16.519 4.70101 16.519C4.87932 16.519 5.0236 16.6633 5.0236 16.8416V18.3968C5.0236 18.5748 4.879 18.7194 4.70101 18.7194Z" fill="#333333"/>
<path d="M11.4919 19.1938H1.32258C1.14412 19.1938 1 19.0497 1 18.8713V15.7119C1 12.8019 2.78459 10.1984 5.44037 9.23416C5.55031 9.19383 5.67254 9.21683 5.76027 9.29259C6.49285 9.91996 7.41712 10.2658 8.36328 10.2658C9.31386 10.2658 10.241 9.91807 10.9739 9.28613C11.0622 9.21037 11.1855 9.18738 11.2949 9.22738C11.9807 9.47688 12.6197 9.83978 13.1941 10.3065C13.2729 10.37 13.3171 10.4671 13.3132 10.5684C13.3097 10.6694 13.259 10.7633 13.1762 10.8211L13.1371 10.8485L12.9597 10.5955L12.7877 10.8075C12.3171 10.4252 11.799 10.1203 11.2451 9.89901C10.4204 10.553 9.40458 10.9113 8.36328 10.9113C7.32671 10.9113 6.31392 10.5555 5.4903 9.90578C3.18293 10.8255 1.64516 13.1352 1.64516 15.7119V18.5487H11.4919V19.1938Z" fill="#333333"/>
<path d="M8.36328 10.9113C5.73932 10.9113 3.6049 8.68775 3.6049 5.95558C3.6049 3.22326 5.73932 1 8.36328 1C10.9871 1 13.122 3.22294 13.122 5.95511C13.122 8.68744 10.9871 10.9113 8.36328 10.9113ZM8.36328 1.64516C6.09514 1.64516 4.25006 3.57876 4.25006 5.95511C4.25006 8.33194 6.09514 10.2658 8.36328 10.2658C10.6313 10.2658 12.4768 8.33194 12.4768 5.95511C12.4768 3.57876 10.6313 1.64516 8.36328 1.64516Z" fill="#333333"/>
<path d="M15.3896 17.5809C15.2551 17.5809 15.12 17.5688 14.9855 17.5439C14.3935 17.434 13.8764 17.0926 13.5287 16.582C13.1829 16.0726 13.0516 15.4623 13.159 14.8642C13.267 14.2649 13.6028 13.7407 14.1045 13.3877C14.6081 13.0339 15.212 12.9007 15.8045 13.0094C16.3968 13.1195 16.9135 13.4609 17.2605 13.9716L17.2632 13.9752C17.6055 14.4933 17.7357 15.1024 17.6307 15.6891C17.5225 16.2881 17.1871 16.8123 16.6852 17.1653C16.2958 17.4387 15.8467 17.5809 15.3896 17.5809ZM15.401 13.6172C15.0751 13.6172 14.7546 13.7191 14.4758 13.9155C14.1138 14.1697 13.8719 14.5471 13.7945 14.9784C13.717 15.4093 13.8125 15.8501 14.0629 16.2194C14.3126 16.5864 14.6823 16.8313 15.1036 16.9098C15.5229 16.9871 15.9535 16.891 16.3142 16.6374C16.6762 16.3832 16.9181 16.0058 16.9955 15.5749C17.0712 15.1526 16.9754 14.7113 16.7258 14.3323C16.4768 13.9662 16.1077 13.7216 15.6867 13.6437C15.5912 13.6262 15.4961 13.6172 15.401 13.6172Z" fill="#333333"/>
<path d="M15.4706 21C15.4296 21 15.388 20.9962 15.3468 20.9887L13.456 20.6384C13.0948 20.5713 12.8631 20.2332 12.9287 19.8688L13.0796 19.0288C13.0586 19.0149 13.0386 19.0007 13.02 18.9865L12.9958 18.9706L12.298 19.4613C12.1718 19.5578 11.9957 19.6013 11.8248 19.5726C11.6483 19.5438 11.4897 19.4422 11.389 19.2939L10.2994 17.6913C10.2042 17.562 10.1636 17.3897 10.1922 17.2161C10.2209 17.041 10.32 16.8825 10.4644 16.7812L11.1474 16.2884C11.1419 16.2619 11.1373 16.2367 11.1332 16.2133C11.1309 16.2013 11.129 16.189 11.1271 16.1764L10.3025 16.0236C10.1335 15.992 9.9815 15.8907 9.88605 15.7451C9.78808 15.5955 9.75673 15.4167 9.79706 15.2416L10.1396 13.3352C10.1716 13.1571 10.268 13.0045 10.4118 12.9049C10.5548 12.8059 10.7297 12.7693 10.9045 12.8016L11.7229 12.9536C11.7357 12.9333 11.7489 12.9139 11.7622 12.8958L11.7825 12.8629L11.2958 12.1471C11.2009 12.0185 11.1603 11.8465 11.1883 11.6729C11.217 11.4977 11.3161 11.3391 11.4602 11.2374L13.038 10.1283C13.1645 10.0323 13.3409 9.98973 13.5113 10.0171C13.6877 10.0458 13.8465 10.1474 13.9471 10.2958L14.4313 11.0077C14.4403 11.0055 14.4493 11.003 14.4581 11.0006C14.4686 10.9975 14.4797 10.9948 14.4909 10.9929C14.5022 10.9907 14.5139 10.9887 14.5255 10.9871L14.6767 10.1455C14.7093 9.96673 14.8057 9.81458 14.9497 9.71487C15.0922 9.61612 15.2668 9.58005 15.4419 9.61202L17.3235 9.96075C17.6848 10.0277 17.9164 10.3659 17.8509 10.7303L17.6997 11.5703C17.7209 11.5842 17.7409 11.5984 17.7597 11.6126L17.7838 11.6285L18.4815 11.1378C18.608 11.0416 18.7844 10.9987 18.9549 11.0265C19.1313 11.0551 19.29 11.1567 19.3907 11.3053L20.4718 12.9071C20.566 13.0349 20.6067 13.2069 20.5786 13.3803C20.55 13.5554 20.4509 13.7142 20.3068 13.8158L19.6022 14.3107C19.6051 14.3236 19.608 14.3362 19.6112 14.348C19.6142 14.3584 19.6167 14.3687 19.6183 14.3797C19.6206 14.3923 19.6229 14.4049 19.6247 14.4178L20.449 14.5706C20.7793 14.632 21.0107 14.9378 20.9996 15.2969C20.999 15.3126 20.9974 15.3284 20.9944 15.344L20.649 17.2662C20.6167 17.4445 20.5203 17.5972 20.3761 17.6969C20.2329 17.7955 20.0587 17.8307 19.8835 17.7994L19.0657 17.6474C19.0528 17.6677 19.0396 17.6871 19.0264 17.7052L19.006 17.7378L19.4929 18.4538C19.588 18.5833 19.6287 18.7555 19.6 18.9291C19.5712 19.1042 19.4723 19.2627 19.3277 19.3639L17.7505 20.4727C17.6242 20.5691 17.4484 20.6122 17.2774 20.5842C17.1013 20.5552 16.9425 20.4539 16.8415 20.3059L16.3597 19.5967C16.3386 19.601 16.318 19.6049 16.298 19.6087C16.2865 19.6106 16.2751 19.613 16.2632 19.6145L16.112 20.4558C16.08 20.6339 15.9836 20.7864 15.8396 20.8861C15.7303 20.9609 15.6029 21 15.4706 21ZM12.9983 18.2519C13.0774 18.2519 13.1561 18.2811 13.2177 18.3381C13.2506 18.3685 13.2884 18.3913 13.3261 18.4162L13.3999 18.4652C13.4322 18.4891 13.48 18.5216 13.5735 18.5649C13.7068 18.6265 13.7819 18.7703 13.7558 18.9149L13.5639 19.983L15.4644 20.3542L15.669 19.2729C15.6916 19.1471 15.7857 19.0472 15.91 19.0165C15.9763 19.0004 16.0415 18.9916 16.1045 18.9839C16.1309 18.9804 16.1567 18.9774 16.1816 18.973C16.2206 18.9658 16.3155 18.9481 16.3764 18.9239C16.5177 18.8675 16.6787 18.9168 16.7636 19.0417L17.3755 19.942L18.9567 18.8352L18.3467 17.9158C18.2635 17.7933 18.2741 17.6298 18.3732 17.5193C18.4032 17.4858 18.4258 17.447 18.4503 17.4085L18.4987 17.3336C18.5222 17.301 18.5545 17.2516 18.5981 17.1552C18.6587 17.0197 18.8022 16.9443 18.9512 16.9699L20.0015 17.1648L20.3542 15.2591C20.3512 15.2262 20.3373 15.2065 20.3312 15.2052L19.2809 15.0104C19.1555 14.9871 19.0555 14.8919 19.026 14.7675C19.01 14.7007 19.0019 14.6355 18.9942 14.573C18.9916 14.55 18.989 14.5271 18.9857 14.5055C18.9771 14.4723 18.9693 14.4375 18.9623 14.4016C18.9545 14.3649 18.9481 14.3265 18.9348 14.292C18.8803 14.1535 18.9281 13.9962 19.0494 13.9103L19.9352 13.2878L18.8561 11.6667L17.9668 12.2884C17.8419 12.3759 17.6735 12.3645 17.5618 12.261C17.5291 12.2306 17.4913 12.2078 17.4535 12.1829L17.3796 12.1339C17.3473 12.11 17.2993 12.0771 17.206 12.0342C17.0726 11.9733 16.9973 11.8287 17.0235 11.6842L17.2158 10.6161L15.3244 10.2465L15.12 11.3278C15.0974 11.453 15.0036 11.5532 14.8802 11.5839C14.8134 11.6003 14.7487 11.6091 14.6857 11.6168C14.6638 11.6196 14.6422 11.6223 14.6216 11.6255C14.5884 11.6343 14.5535 11.6423 14.5184 11.6497C14.4831 11.6571 14.4464 11.6636 14.4141 11.6765C14.2735 11.7349 14.1116 11.6852 14.0257 11.5593L13.4138 10.659L11.8326 11.7655L12.4426 12.6849C12.5261 12.8077 12.5151 12.9717 12.4155 13.082C12.3857 13.1152 12.3635 13.1533 12.3393 13.1916L12.2906 13.2672C12.2671 13.2996 12.2348 13.3491 12.1912 13.4455C12.1306 13.581 11.988 13.6564 11.8381 13.6307L10.7876 13.4359L10.4299 15.3714L11.4715 15.5835C11.5968 15.6069 11.6965 15.7017 11.7264 15.8255C11.7425 15.8929 11.751 15.9584 11.7587 16.0216C11.7618 16.0487 11.7651 16.0751 11.7692 16.1006C11.776 16.1391 11.7932 16.2374 11.8181 16.3016C11.8719 16.4387 11.8258 16.5946 11.7064 16.6806L10.839 17.3065L11.9231 18.9306L12.8132 18.31C12.869 18.2713 12.9339 18.2519 12.9983 18.2519Z" fill="#333333"/>
<path d="M11.4919 19.1938V19.4938H11.7919V19.1938H11.4919ZM5.44037 9.23416L5.54275 9.51615L5.54367 9.51581L5.44037 9.23416ZM5.76027 9.29259L5.56419 9.51965L5.56513 9.52046L5.76027 9.29259ZM10.9739 9.28613L10.7786 9.05839L10.778 9.05893L10.9739 9.28613ZM11.2949 9.22738L11.1918 9.50911L11.1923 9.50931L11.2949 9.22738ZM13.1941 10.3065L13.0049 10.5393L13.0059 10.5401L13.1941 10.3065ZM13.3132 10.5684L13.0134 10.5568L13.0134 10.5581L13.3132 10.5684ZM13.1762 10.8211L13.0045 10.575L13.0039 10.5755L13.1762 10.8211ZM13.1371 10.8485L12.8915 11.0207L13.0637 11.2664L13.3094 11.0941L13.1371 10.8485ZM12.9597 10.5955L13.2054 10.4233L12.9772 10.0978L12.7268 10.4065L12.9597 10.5955ZM12.7877 10.8075L12.5986 11.0404L12.8316 11.2296L13.0207 10.9965L12.7877 10.8075ZM11.2451 9.89901L11.3564 9.62041L11.1949 9.55591L11.0587 9.66394L11.2451 9.89901ZM5.4903 9.90578L5.6761 9.67025L5.54012 9.56297L5.37922 9.6271L5.4903 9.90578ZM1.64516 18.5487H1.34516V18.8487H1.64516V18.5487ZM11.4919 18.5487H11.7919V18.2487H11.4919V18.5487ZM14.9855 17.5439L14.9307 17.8389L14.9309 17.8389L14.9855 17.5439ZM13.5287 16.582L13.2804 16.7505L13.2807 16.7509L13.5287 16.582ZM13.159 14.8642L12.8637 14.811L12.8637 14.8112L13.159 14.8642ZM14.1045 13.3877L13.9321 13.1422L13.9319 13.1423L14.1045 13.3877ZM15.8045 13.0094L15.8593 12.7144L15.8586 12.7143L15.8045 13.0094ZM17.2605 13.9716L17.0122 14.1403L17.0193 14.1499L17.2605 13.9716ZM17.2632 13.9752L17.5135 13.8098L17.5092 13.8032L17.5045 13.7969L17.2632 13.9752ZM17.6307 15.6891L17.9259 15.7424L17.926 15.742L17.6307 15.6891ZM16.6852 17.1653L16.8576 17.4108L16.8577 17.4107L16.6852 17.1653ZM14.4758 13.9155L14.6482 14.161L14.6485 14.1608L14.4758 13.9155ZM13.7945 14.9784L14.0898 15.0315L14.0898 15.0313L13.7945 14.9784ZM14.0629 16.2194L13.8146 16.3878L13.8149 16.3882L14.0629 16.2194ZM15.1036 16.9098L15.0487 17.2047L15.0492 17.2048L15.1036 16.9098ZM16.3142 16.6374L16.1418 16.3919L16.1417 16.392L16.3142 16.6374ZM16.9955 15.5749L17.2907 15.6279L17.2907 15.6279L16.9955 15.5749ZM16.7258 14.3323L16.9763 14.1672L16.9738 14.1635L16.7258 14.3323ZM15.6867 13.6437L15.7413 13.3487L15.7408 13.3486L15.6867 13.6437ZM15.3468 20.9887L15.2921 21.2836L15.2927 21.2837L15.3468 20.9887ZM13.456 20.6384L13.4012 20.9333L13.4014 20.9333L13.456 20.6384ZM12.9287 19.8688L13.2239 19.9218L13.2239 19.9218L12.9287 19.8688ZM13.0796 19.0288L13.3748 19.0818L13.4097 18.8875L13.2451 18.7786L13.0796 19.0288ZM13.02 18.9865L13.202 18.748L13.1935 18.7415L13.1846 18.7357L13.02 18.9865ZM12.9958 18.9706L13.1603 18.7198L12.9899 18.608L12.8232 18.7252L12.9958 18.9706ZM12.298 19.4613L12.1253 19.2157L12.1157 19.223L12.298 19.4613ZM11.8248 19.5726L11.8745 19.2768L11.8732 19.2766L11.8248 19.5726ZM11.389 19.2939L11.6373 19.1254L11.6371 19.1252L11.389 19.2939ZM10.2994 17.6913L10.5476 17.5225L10.541 17.5136L10.2994 17.6913ZM10.1922 17.2161L10.4882 17.265L10.4883 17.2646L10.1922 17.2161ZM10.4644 16.7812L10.6367 17.0269L10.64 17.0245L10.4644 16.7812ZM11.1474 16.2884L11.3229 16.5317L11.4808 16.4178L11.4411 16.2272L11.1474 16.2884ZM11.1332 16.2133L11.4288 16.1617L11.4275 16.1552L11.1332 16.2133ZM11.1271 16.1764L11.4238 16.1319L11.392 15.9204L11.1817 15.8814L11.1271 16.1764ZM10.3025 16.0236L10.2473 16.3185L10.2478 16.3186L10.3025 16.0236ZM9.88605 15.7451L9.63506 15.9095L9.63519 15.9097L9.88605 15.7451ZM9.79706 15.2416L10.0894 15.3089L10.091 15.3018L10.0923 15.2947L9.79706 15.2416ZM10.1396 13.3352L10.4349 13.3883L10.4349 13.3882L10.1396 13.3352ZM10.4118 12.9049L10.5826 13.1516L10.5827 13.1515L10.4118 12.9049ZM10.9045 12.8016L10.9593 12.5066L10.959 12.5066L10.9045 12.8016ZM11.7229 12.9536L11.6682 13.2486L11.8686 13.2858L11.977 13.1131L11.7229 12.9536ZM11.7622 12.8958L12.0044 13.0727L12.0113 13.0633L12.0174 13.0534L11.7622 12.8958ZM11.7825 12.8629L12.0378 13.0204L12.1399 12.855L12.0305 12.6942L11.7825 12.8629ZM11.2958 12.1471L11.544 11.9783L11.5373 11.9692L11.2958 12.1471ZM11.1883 11.6729L10.8923 11.6244L10.8922 11.625L11.1883 11.6729ZM11.4602 11.2374L11.2877 10.9919L11.2872 10.9923L11.4602 11.2374ZM13.038 10.1283L13.2106 10.3739L13.2195 10.3672L13.038 10.1283ZM13.5113 10.0171L13.5594 9.72102L13.5589 9.72094L13.5113 10.0171ZM13.9471 10.2958L13.6989 10.4642L13.6991 10.4645L13.9471 10.2958ZM14.4313 11.0077L14.1833 11.1764L14.3005 11.3488L14.5029 11.2991L14.4313 11.0077ZM14.4581 11.0006L14.5357 11.2905L14.5439 11.2881L14.4581 11.0006ZM14.4909 10.9929L14.5409 11.2888L14.5481 11.2874L14.4909 10.9929ZM14.5255 10.9871L14.5657 11.2844L14.7822 11.2551L14.8208 11.0401L14.5255 10.9871ZM14.6767 10.1455L14.3816 10.0917L14.3814 10.0925L14.6767 10.1455ZM14.9497 9.71487L15.1205 9.9615L15.1205 9.96147L14.9497 9.71487ZM15.4419 9.61202L15.4966 9.31704L15.4958 9.3169L15.4419 9.61202ZM17.3235 9.96075L17.2689 10.2557L17.2689 10.2557L17.3235 9.96075ZM17.8509 10.7303L18.1461 10.7835L18.1461 10.7834L17.8509 10.7303ZM17.6997 11.5703L17.4044 11.5172L17.3692 11.713L17.5358 11.8217L17.6997 11.5703ZM17.7597 11.6126L17.5787 11.8518L17.5864 11.8576L17.5944 11.8629L17.7597 11.6126ZM17.7838 11.6285L17.6185 11.8788L17.7891 11.9915L17.9563 11.8739L17.7838 11.6285ZM18.4815 11.1378L18.6542 11.3834L18.6632 11.3766L18.4815 11.1378ZM18.9549 11.0265L18.9067 11.3226L18.9067 11.3226L18.9549 11.0265ZM19.3907 11.3053L19.6393 11.1374L19.639 11.137L19.3907 11.3053ZM20.4718 12.9071L20.223 13.0751L20.2304 13.0852L20.4718 12.9071ZM20.5786 13.3803L20.8747 13.4287L20.8748 13.4282L20.5786 13.3803ZM20.3068 13.8158L20.4792 14.0613L20.4796 14.061L20.3068 13.8158ZM19.6022 14.3107L19.4298 14.0652L19.2664 14.18L19.3092 14.375L19.6022 14.3107ZM19.6112 14.348L19.3213 14.4253L19.3229 14.431L19.6112 14.348ZM19.6183 14.3797L19.321 14.4222L19.3234 14.435L19.6183 14.3797ZM19.6247 14.4178L19.3279 14.4613L19.359 14.6737L19.5701 14.7128L19.6247 14.4178ZM20.449 14.5706L20.5038 14.2757L20.5037 14.2756L20.449 14.5706ZM20.9996 15.2969L21.2994 15.3089L21.2995 15.3061L20.9996 15.2969ZM20.9944 15.344L20.6998 15.2874L20.6992 15.2909L20.9944 15.344ZM20.649 17.2662L20.9442 17.3197L20.9443 17.3193L20.649 17.2662ZM20.3761 17.6969L20.5462 17.9439L20.5466 17.9437L20.3761 17.6969ZM19.8835 17.7994L19.8287 18.0944L19.8307 18.0947L19.8835 17.7994ZM19.0657 17.6474L19.1206 17.3524L18.9213 17.3154L18.8126 17.4865L19.0657 17.6474ZM19.0264 17.7052L18.7841 17.5283L18.7776 17.5372L18.7718 17.5465L19.0264 17.7052ZM19.006 17.7378L18.7514 17.5791L18.6481 17.7449L18.758 17.9065L19.006 17.7378ZM19.4929 18.4538L19.2447 18.6226L19.2512 18.6315L19.4929 18.4538ZM19.6 18.9291L19.304 18.8802L19.304 18.8803L19.6 18.9291ZM19.3277 19.3639L19.1556 19.1182L19.1551 19.1185L19.3277 19.3639ZM17.7505 20.4727L17.5779 20.227L17.5685 20.2342L17.7505 20.4727ZM17.2774 20.5842L17.2286 20.8802L17.2288 20.8802L17.2774 20.5842ZM16.8415 20.3059L16.5934 20.4745L16.5937 20.4749L16.8415 20.3059ZM16.3597 19.5967L16.6079 19.4281L16.4958 19.2633L16.3005 19.3027L16.3597 19.5967ZM16.298 19.6087L16.3466 19.9048L16.3537 19.9035L16.298 19.6087ZM16.2632 19.6145L16.224 19.3171L16.0067 19.3457L15.9679 19.5615L16.2632 19.6145ZM16.112 20.4558L15.8167 20.4027L15.8167 20.4028L16.112 20.4558ZM15.8396 20.8861L16.0091 21.1337L16.0104 21.1327L15.8396 20.8861ZM13.2177 18.3381L13.0139 18.5582L13.0142 18.5585L13.2177 18.3381ZM13.3261 18.4162L13.4919 18.1662L13.4915 18.1659L13.3261 18.4162ZM13.3999 18.4652L13.5786 18.2242L13.5723 18.2195L13.5657 18.2152L13.3999 18.4652ZM13.5735 18.5649L13.4475 18.8371L13.4477 18.8372L13.5735 18.5649ZM13.7558 18.9149L13.4605 18.8615L13.4605 18.8618L13.7558 18.9149ZM13.5639 19.983L13.2686 19.9299L13.2164 20.2207L13.5064 20.2774L13.5639 19.983ZM15.4644 20.3542L15.4069 20.6486L15.7031 20.7065L15.7592 20.41L15.4644 20.3542ZM15.669 19.2729L15.9638 19.3287L15.9643 19.3258L15.669 19.2729ZM15.91 19.0165L15.8394 18.7249L15.838 18.7252L15.91 19.0165ZM16.1045 18.9839L16.141 19.2817L16.1437 19.2813L16.1045 18.9839ZM16.1816 18.973L16.2339 19.2684L16.2363 19.268L16.1816 18.973ZM16.3764 18.9239L16.4873 19.2026L16.4876 19.2025L16.3764 18.9239ZM16.7636 19.0417L17.0117 18.873L17.0117 18.873L16.7636 19.0417ZM17.3755 19.942L17.1274 20.1106L17.2984 20.3622L17.5475 20.1878L17.3755 19.942ZM18.9567 18.8352L19.1288 19.081L19.3685 18.9131L19.2067 18.6693L18.9567 18.8352ZM18.3467 17.9158L18.5967 17.7499L18.5949 17.7473L18.3467 17.9158ZM18.3732 17.5193L18.5965 17.7197L18.5965 17.7196L18.3732 17.5193ZM18.4503 17.4085L18.1984 17.2456L18.1973 17.2473L18.4503 17.4085ZM18.4987 17.3336L18.2552 17.1584L18.2508 17.1645L18.2467 17.1708L18.4987 17.3336ZM18.5981 17.1552L18.8714 17.2789L18.8719 17.2778L18.5981 17.1552ZM18.9512 16.9699L19.006 16.675L19.0022 16.6743L18.9512 16.9699ZM20.0015 17.1648L19.9468 17.4598L20.2419 17.5145L20.2965 17.2194L20.0015 17.1648ZM20.3542 15.2591L20.6492 15.3137L20.6567 15.273L20.6529 15.2319L20.3542 15.2591ZM20.3312 15.2052L20.3915 14.9113L20.3859 14.9102L20.3312 15.2052ZM19.2809 15.0104L19.2261 15.3053L19.2262 15.3053L19.2809 15.0104ZM19.026 14.7675L19.318 14.6984L19.3177 14.6973L19.026 14.7675ZM18.9942 14.573L18.6962 14.6077L18.6965 14.6097L18.9942 14.573ZM18.9857 14.5055L19.2823 14.4601L19.2799 14.4448L19.276 14.4299L18.9857 14.5055ZM18.9623 14.4016L19.2566 14.3435L19.2558 14.3398L18.9623 14.4016ZM18.9348 14.292L19.215 14.1845L19.214 14.1821L18.9348 14.292ZM19.0494 13.9103L18.8769 13.6649L18.876 13.6654L19.0494 13.9103ZM19.9352 13.2878L20.1077 13.5333L20.347 13.3651L20.1849 13.1216L19.9352 13.2878ZM18.8561 11.6667L19.1058 11.5005L18.9358 11.245L18.6842 11.4209L18.8561 11.6667ZM17.9668 12.2884L17.7949 12.0426L17.7948 12.0426L17.9668 12.2884ZM17.5618 12.261L17.3578 12.4809L17.3579 12.4811L17.5618 12.261ZM17.4535 12.1829L17.2877 12.4329L17.2885 12.4335L17.4535 12.1829ZM17.3796 12.1339L17.2009 12.3749L17.2072 12.3796L17.2138 12.3839L17.3796 12.1339ZM17.206 12.0342L17.3313 11.7616L17.3307 11.7613L17.206 12.0342ZM17.0235 11.6842L17.3187 11.7377L17.3187 11.7374L17.0235 11.6842ZM17.2158 10.6161L17.511 10.6693L17.5634 10.3784L17.2733 10.3217L17.2158 10.6161ZM15.3244 10.2465L15.3819 9.95204L15.0857 9.89414L15.0296 10.1907L15.3244 10.2465ZM15.12 11.3278L14.8252 11.272L14.8247 11.2747L15.12 11.3278ZM14.8802 11.5839L14.9517 11.8753L14.9527 11.875L14.8802 11.5839ZM14.6857 11.6168L14.6492 11.319L14.6472 11.3193L14.6857 11.6168ZM14.6216 11.6255L14.5763 11.3289L14.5603 11.3314L14.5446 11.3355L14.6216 11.6255ZM14.5184 11.6497L14.58 11.9433L14.5803 11.9433L14.5184 11.6497ZM14.4141 11.6765L14.3027 11.3979L14.2991 11.3995L14.4141 11.6765ZM14.0257 11.5593L13.7776 11.728L13.7779 11.7284L14.0257 11.5593ZM13.4138 10.659L13.6619 10.4904L13.491 10.2388L13.2418 10.4132L13.4138 10.659ZM11.8326 11.7655L11.6606 11.5197L11.4208 11.6875L11.5826 11.9314L11.8326 11.7655ZM12.4426 12.6849L12.1926 12.8508L12.1945 12.8535L12.4426 12.6849ZM12.4155 13.082L12.1928 12.8809L12.192 12.8818L12.4155 13.082ZM12.3393 13.1916L12.5915 13.354L12.5927 13.3522L12.3393 13.1916ZM12.2906 13.2672L12.5337 13.443L12.5384 13.4364L12.5428 13.4296L12.2906 13.2672ZM12.1912 13.4455L11.9179 13.3218L11.9174 13.3229L12.1912 13.4455ZM11.8381 13.6307L11.7834 13.9257L11.7874 13.9264L11.8381 13.6307ZM10.7876 13.4359L10.8424 13.1409L10.5472 13.0862L10.4926 13.3814L10.7876 13.4359ZM10.4299 15.3714L10.1349 15.3169L10.0814 15.6065L10.3701 15.6653L10.4299 15.3714ZM11.4715 15.5835L11.4117 15.8775L11.4166 15.8785L11.4715 15.5835ZM11.7264 15.8255L12.0182 15.7559L12.018 15.755L11.7264 15.8255ZM11.7587 16.0216L12.0567 15.9869L12.0565 15.9852L11.7587 16.0216ZM11.7692 16.1006L11.473 16.1482L11.4738 16.1527L11.7692 16.1006ZM11.8181 16.3016L11.5383 16.41L11.5389 16.4114L11.8181 16.3016ZM11.7064 16.6806L11.5311 16.4372L11.5308 16.4373L11.7064 16.6806ZM10.839 17.3065L10.6634 17.0633L10.4289 17.2325L10.5895 17.4731L10.839 17.3065ZM11.9231 18.9306L11.6736 19.0972L11.8436 19.3518L12.0947 19.1767L11.9231 18.9306ZM12.8132 18.31L12.642 18.0637L12.6416 18.064L12.8132 18.31ZM4.70101 18.4194C4.68834 18.4194 4.67843 18.4095 4.67843 18.3968H4.07843C4.07843 18.7407 4.35678 19.0194 4.70101 19.0194V18.4194ZM4.67843 18.3968V16.8416H4.07843V18.3968H4.67843ZM4.67843 16.8416C4.67843 16.8289 4.68834 16.819 4.70101 16.819V16.219C4.35678 16.219 4.07843 16.4977 4.07843 16.8416H4.67843ZM4.70101 16.819C4.71363 16.819 4.7236 16.829 4.7236 16.8416H5.3236C5.3236 16.4976 5.045 16.219 4.70101 16.219V16.819ZM4.7236 16.8416V18.3968H5.3236V16.8416H4.7236ZM4.7236 18.3968C4.7236 18.4091 4.71332 18.4194 4.70101 18.4194V19.0194C5.04469 19.0194 5.3236 18.7405 5.3236 18.3968H4.7236ZM11.4919 18.8938H1.32258V19.4938H11.4919V18.8938ZM1.32258 18.8938C1.30981 18.8938 1.3 18.884 1.3 18.8713H0.7C0.7 19.2154 0.978437 19.4938 1.32258 19.4938V18.8938ZM1.3 18.8713V15.7119H0.7V18.8713H1.3ZM1.3 15.7119C1.3 12.923 3.01032 10.4356 5.54275 9.51614L5.33798 8.95217C2.55886 9.96123 0.7 12.6808 0.7 15.7119H1.3ZM5.54367 9.51581C5.55055 9.51329 5.55832 9.51457 5.56419 9.51965L5.95635 9.06554C5.78676 8.91909 5.55007 8.87438 5.33707 8.9525L5.54367 9.51581ZM5.56513 9.52046C6.35084 10.1933 7.34394 10.5658 8.36328 10.5658V9.96585C7.49029 9.96585 6.63486 9.6466 5.95541 9.06473L5.56513 9.52046ZM8.36328 10.5658C9.38713 10.5658 10.3834 10.1913 11.1698 9.51334L10.778 9.05893C10.0985 9.6448 9.24058 9.96585 8.36328 9.96585V10.5658ZM11.1691 9.51388C11.1723 9.51118 11.1763 9.50922 11.1808 9.50839C11.1852 9.50758 11.1889 9.50807 11.1918 9.50911L11.398 8.94566C11.1855 8.86788 10.9483 8.91289 10.7786 9.05839L11.1691 9.51388ZM11.1923 9.50931C11.8463 9.74724 12.4561 10.0934 13.0049 10.5393L13.3833 10.0736C12.7832 9.58614 12.115 9.20652 11.3974 8.94546L11.1923 9.50931ZM13.0059 10.5401C13.0108 10.544 13.0137 10.5503 13.0134 10.5568L13.613 10.5801C13.6206 10.384 13.5349 10.1959 13.3824 10.0729L13.0059 10.5401ZM13.0134 10.5581C13.0131 10.5654 13.0094 10.5716 13.0045 10.575L13.3478 11.0671C13.5086 10.9549 13.6063 10.7734 13.613 10.5787L13.0134 10.5581ZM13.0039 10.5755L12.9648 10.6029L13.3094 11.0941L13.3485 11.0667L13.0039 10.5755ZM13.3827 10.6763L13.2054 10.4233L12.7141 10.7677L12.8915 11.0207L13.3827 10.6763ZM12.7268 10.4065L12.5548 10.6185L13.0207 10.9965L13.1927 10.7845L12.7268 10.4065ZM12.9769 10.5747C12.4831 10.1736 11.9389 9.85311 11.3564 9.62041L11.1338 10.1776C11.6592 10.3875 12.1511 10.6769 12.5986 11.0404L12.9769 10.5747ZM11.0587 9.66394C10.286 10.2766 9.33566 10.6113 8.36328 10.6113V11.2113C9.4735 11.2113 10.5547 10.8293 11.4315 10.1341L11.0587 9.66394ZM8.36328 10.6113C7.3954 10.6113 6.4478 10.279 5.6761 9.67025L5.30449 10.1413C6.18004 10.832 7.25801 11.2113 8.36328 11.2113V10.6113ZM5.37922 9.6271C2.95327 10.5941 1.34516 13.0173 1.34516 15.7119H1.94516C1.94516 13.2531 3.41259 11.0569 5.60138 10.1845L5.37922 9.6271ZM1.34516 15.7119V18.5487H1.94516V15.7119H1.34516ZM1.64516 18.8487H11.4919V18.2487H1.64516V18.8487ZM11.1919 18.5487V19.1938H11.7919V18.5487H11.1919ZM8.36328 10.6113C5.9164 10.6113 3.9049 8.5337 3.9049 5.95558H3.3049C3.3049 8.84181 5.56224 11.2113 8.36328 11.2113V10.6113ZM3.9049 5.95558C3.9049 3.37733 5.91639 1.3 8.36328 1.3V0.7C5.56226 0.7 3.3049 3.06918 3.3049 5.95558H3.9049ZM8.36328 1.3C10.8101 1.3 12.822 3.37708 12.822 5.95511H13.422C13.422 3.0688 11.1641 0.7 8.36328 0.7V1.3ZM12.822 5.95511C12.822 8.53338 10.81 10.6113 8.36328 10.6113V11.2113C11.1642 11.2113 13.422 8.84149 13.422 5.95511H12.822ZM8.36328 1.34516C5.91638 1.34516 3.95006 3.42645 3.95006 5.95511H4.55006C4.55006 3.73107 6.27389 1.94516 8.36328 1.94516V1.34516ZM3.95006 5.95511C3.95006 8.4842 5.91634 10.5658 8.36328 10.5658V9.96585C6.27394 9.96585 4.55006 8.17968 4.55006 5.95511H3.95006ZM8.36328 10.5658C10.81 10.5658 12.7768 8.48423 12.7768 5.95511H12.1768C12.1768 8.17964 10.4525 9.96585 8.36328 9.96585V10.5658ZM12.7768 5.95511C12.7768 3.42641 10.81 1.34516 8.36328 1.34516V1.94516C10.4526 1.94516 12.1768 3.7311 12.1768 5.95511H12.7768ZM15.3896 17.2809C15.2732 17.2809 15.1563 17.2704 15.04 17.2489L14.9309 17.8389C15.0836 17.8672 15.2371 17.8809 15.3896 17.8809V17.2809ZM15.0402 17.249C14.5292 17.154 14.0807 16.8596 13.7766 16.4131L13.2807 16.7509C13.6722 17.3257 14.2579 17.7139 14.9307 17.8389L15.0402 17.249ZM13.7769 16.4135C13.4745 15.968 13.3609 15.437 13.4543 14.9172L12.8637 14.8112C12.7422 15.4875 12.8913 16.1772 13.2804 16.7505L13.7769 16.4135ZM13.4542 14.9174C13.5481 14.3965 13.8395 13.941 14.2771 13.6331L13.9319 13.1423C13.3662 13.5403 12.9859 14.1333 12.8637 14.811L13.4542 14.9174ZM14.277 13.6332C14.7158 13.3249 15.2382 13.2105 15.7504 13.3044L15.8586 12.7143C15.1857 12.5909 14.5004 12.743 13.9321 13.1422L14.277 13.6332ZM15.7497 13.3043C16.2611 13.3994 16.7092 13.6939 17.0124 14.1402L17.5087 13.803C17.1179 13.2279 16.5324 12.8395 15.8593 12.7144L15.7497 13.3043ZM17.0193 14.1499L17.022 14.1535L17.5045 13.7969L17.5018 13.7933L17.0193 14.1499ZM17.0129 14.1406C17.3146 14.5972 17.4263 15.1286 17.3354 15.6362L17.926 15.742C18.0452 15.0762 17.8964 14.3894 17.5135 13.8098L17.0129 14.1406ZM17.3355 15.6357C17.2414 16.1566 16.9504 16.612 16.5126 16.9199L16.8577 17.4107C17.4238 17.0126 17.8036 16.4196 17.9259 15.7424L17.3355 15.6357ZM16.5127 16.9198C16.1727 17.1586 15.7836 17.2809 15.3896 17.2809V17.8809C15.9099 17.8809 16.4189 17.7188 16.8576 17.4108L16.5127 16.9198ZM15.401 13.3172C15.0116 13.3172 14.631 13.4392 14.303 13.6703L14.6485 14.1608C14.8781 13.999 15.1386 13.9172 15.401 13.9172V13.3172ZM14.3033 13.67C13.8774 13.9692 13.5907 14.4154 13.4992 14.9254L14.0898 15.0313C14.153 14.6788 14.3502 14.3703 14.6482 14.161L14.3033 13.67ZM13.4993 14.9253C13.4076 15.4351 13.5212 15.955 13.8146 16.3878L14.3112 16.0511C14.1038 15.7451 14.0265 15.3836 14.0898 15.0315L13.4993 14.9253ZM13.8149 16.3882C14.1078 16.8188 14.5458 17.1111 15.0487 17.2047L15.1585 16.6148C14.8187 16.5516 14.5173 16.354 14.311 16.0507L13.8149 16.3882ZM15.0492 17.2048C15.5501 17.2972 16.0622 17.1814 16.4868 16.8829L16.1417 16.392C15.8449 16.6007 15.4957 16.677 15.158 16.6148L15.0492 17.2048ZM16.4866 16.8829C16.9126 16.5838 17.1993 16.1376 17.2907 15.6279L16.7002 15.5219C16.637 15.8741 16.4398 16.1827 16.1418 16.3919L16.4866 16.8829ZM17.2907 15.6279C17.3809 15.1252 17.2656 14.6064 16.9763 14.1672L16.4753 14.4973C16.6853 14.8161 16.7615 15.18 16.7002 15.5219L17.2907 15.6279ZM16.9738 14.1635C16.6815 13.7338 16.2441 13.4418 15.7413 13.3487L15.6321 13.9386C15.9714 14.0015 16.272 14.1986 16.4777 14.501L16.9738 14.1635ZM15.7408 13.3486C15.6283 13.328 15.5151 13.3172 15.401 13.3172V13.9172C15.4771 13.9172 15.5541 13.9244 15.6326 13.9387L15.7408 13.3486ZM15.4706 20.7C15.448 20.7 15.4245 20.6979 15.4008 20.6936L15.2927 21.2837C15.3516 21.2945 15.4113 21.3 15.4706 21.3V20.7ZM15.4014 20.6937L13.5107 20.3434L13.4014 20.9333L15.2921 21.2836L15.4014 20.6937ZM13.5108 20.3434C13.314 20.3068 13.1872 20.1261 13.2239 19.9218L12.6334 19.8157C12.5391 20.3404 12.8757 20.8357 13.4012 20.9333L13.5108 20.3434ZM13.2239 19.9218L13.3748 19.0818L12.7843 18.9757L12.6334 19.8157L13.2239 19.9218ZM13.2451 18.7786C13.2293 18.7681 13.2148 18.7578 13.202 18.748L12.8381 19.2251C12.8624 19.2437 12.888 19.2617 12.914 19.279L13.2451 18.7786ZM13.1846 18.7357L13.1603 18.7198L12.8312 19.2215L12.8555 19.2374L13.1846 18.7357ZM12.8232 18.7252L12.1254 19.2159L12.4706 19.7067L13.1683 19.216L12.8232 18.7252ZM12.1157 19.223C12.0587 19.2666 11.9675 19.2924 11.8745 19.2768L11.7752 19.8685C12.024 19.9102 12.2849 19.8491 12.4803 19.6995L12.1157 19.223ZM11.8732 19.2766C11.7784 19.2611 11.6919 19.2059 11.6373 19.1254L11.1407 19.4623C11.2874 19.6785 11.5182 19.8266 11.7765 19.8687L11.8732 19.2766ZM11.6371 19.1252L10.5474 17.5227L10.0513 17.86L11.1409 19.4625L11.6371 19.1252ZM10.541 17.5136C10.4966 17.4532 10.472 17.3636 10.4882 17.265L9.89626 17.1673C9.8552 17.4159 9.91186 17.6709 10.0577 17.8691L10.541 17.5136ZM10.4883 17.2646C10.504 17.1684 10.5589 17.0814 10.6367 17.0269L10.2922 16.5356C10.081 16.6837 9.93779 16.9135 9.89619 17.1677L10.4883 17.2646ZM10.64 17.0245L11.3229 16.5317L10.9718 16.0451L10.2889 16.538L10.64 17.0245ZM11.4411 16.2272C11.4365 16.2054 11.4326 16.1839 11.4287 16.1617L10.8377 16.2648C10.842 16.2896 10.8472 16.3184 10.8537 16.3496L11.4411 16.2272ZM11.4275 16.1552C11.4267 16.1507 11.4257 16.1447 11.4238 16.1319L10.8304 16.2209C10.8323 16.2333 10.835 16.2518 10.8389 16.2714L11.4275 16.1552ZM11.1817 15.8814L10.3572 15.7286L10.2478 16.3186L11.0724 16.4714L11.1817 15.8814ZM10.3577 15.7288C10.2695 15.7122 10.1879 15.6584 10.1369 15.5806L9.63519 15.9097C9.77511 16.123 9.99752 16.2717 10.2473 16.3185L10.3577 15.7288ZM10.137 15.5808C10.0843 15.5003 10.0672 15.4053 10.0894 15.3089L9.5047 15.1743C9.44626 15.4281 9.49182 15.6907 9.63506 15.9095L10.137 15.5808ZM10.0923 15.2947L10.4349 13.3883L9.84437 13.2822L9.50179 15.1885L10.0923 15.2947ZM10.4349 13.3882C10.4534 13.2854 10.5071 13.2038 10.5826 13.1516L10.2411 12.6583C10.0289 12.8051 9.88984 13.0288 9.84436 13.2822L10.4349 13.3882ZM10.5827 13.1515C10.6582 13.0992 10.7516 13.0784 10.85 13.0966L10.959 12.5066C10.7078 12.4602 10.4515 12.5125 10.241 12.6583L10.5827 13.1515ZM10.8497 13.0966L11.6682 13.2486L11.7777 12.6586L10.9593 12.5066L10.8497 13.0966ZM11.977 13.1131C11.9858 13.0991 11.995 13.0856 12.0044 13.0727L11.5199 12.7188C11.5028 12.7423 11.4856 12.7674 11.4689 12.7941L11.977 13.1131ZM12.0174 13.0534L12.0378 13.0204L11.5272 12.7053L11.5069 12.7382L12.0174 13.0534ZM12.0305 12.6942L11.5438 11.9784L11.0477 12.3158L11.5344 13.0316L12.0305 12.6942ZM11.5373 11.9692C11.4934 11.9096 11.4685 11.8201 11.4845 11.7207L10.8922 11.625C10.8522 11.8729 10.9085 12.1273 11.0542 12.3251L11.5373 11.9692ZM11.4844 11.7213C11.5001 11.6251 11.5552 11.5375 11.6332 11.4824L11.2872 10.9923C11.077 11.1407 10.9339 11.3703 10.8923 11.6244L11.4844 11.7213ZM11.6327 11.4828L13.2105 10.3738L12.8655 9.88291L11.2877 10.9919L11.6327 11.4828ZM13.2195 10.3672C13.2763 10.3241 13.3687 10.2981 13.4637 10.3133L13.5589 9.72094C13.3131 9.68141 13.0527 9.74044 12.8565 9.88945L13.2195 10.3672ZM13.4632 10.3133C13.5577 10.3286 13.6443 10.3837 13.6989 10.4642L14.1954 10.1274C14.0487 9.91107 13.8177 9.76299 13.5594 9.72102L13.4632 10.3133ZM13.6991 10.4645L14.1833 11.1764L14.6794 10.839L14.1952 10.1271L13.6991 10.4645ZM14.5029 11.2991C14.5159 11.2959 14.5315 11.2915 14.5357 11.2904L14.3805 10.7108C14.367 10.7145 14.3647 10.7152 14.3598 10.7164L14.5029 11.2991ZM14.5439 11.2881C14.5444 11.2879 14.5434 11.2883 14.5409 11.2887L14.4409 10.6971C14.4159 10.7013 14.3929 10.707 14.3723 10.7132L14.5439 11.2881ZM14.5481 11.2874C14.5561 11.2859 14.5616 11.2849 14.5657 11.2844L14.4853 10.6898C14.4661 10.6924 14.4483 10.6956 14.4336 10.6984L14.5481 11.2874ZM14.8208 11.0401L14.972 10.1986L14.3814 10.0925L14.2302 10.934L14.8208 11.0401ZM14.9719 10.1993C14.9908 10.0954 15.0446 10.014 15.1205 9.9615L14.7789 9.46825C14.5668 9.61512 14.4278 9.83808 14.3816 10.0917L14.9719 10.1993ZM15.1205 9.96147C15.195 9.90986 15.2881 9.88891 15.388 9.90714L15.4958 9.3169C15.2454 9.27118 14.9894 9.32237 14.7788 9.46828L15.1205 9.96147ZM15.3872 9.907L17.2689 10.2557L17.3782 9.66577L15.4966 9.31704L15.3872 9.907ZM17.2689 10.2557C17.4655 10.2922 17.5923 10.4729 17.5556 10.6773L18.1461 10.7834C18.2404 10.2588 17.9041 9.76321 17.3782 9.66577L17.2689 10.2557ZM17.5556 10.6772L17.4044 11.5172L17.9949 11.6235L18.1461 10.7835L17.5556 10.6772ZM17.5358 11.8217C17.5508 11.8314 17.5651 11.8415 17.5787 11.8518L17.9406 11.3733C17.9167 11.3552 17.891 11.337 17.8635 11.319L17.5358 11.8217ZM17.5944 11.8629L17.6185 11.8788L17.949 11.3781L17.9249 11.3622L17.5944 11.8629ZM17.9563 11.8739L18.6541 11.3832L18.309 10.8924L17.6112 11.3831L17.9563 11.8739ZM18.6632 11.3766C18.7202 11.3332 18.8125 11.3072 18.9067 11.3226L19.003 10.7304C18.7564 10.6902 18.4958 10.75 18.2999 10.8991L18.6632 11.3766ZM18.9067 11.3226C19.0012 11.3379 19.0878 11.393 19.1423 11.4735L19.639 11.137C19.4923 10.9204 19.2613 10.7723 19.003 10.7303L18.9067 11.3226ZM19.142 11.4731L20.2232 13.075L20.7205 12.7393L19.6393 11.1374L19.142 11.4731ZM20.2304 13.0852C20.2734 13.1436 20.2985 13.233 20.2825 13.3324L20.8748 13.4282C20.9148 13.1808 20.8586 12.9262 20.7133 12.7291L20.2304 13.0852ZM20.2826 13.3318C20.2668 13.4282 20.2117 13.5158 20.1339 13.5706L20.4796 14.061C20.6901 13.9127 20.8331 13.6827 20.8747 13.4287L20.2826 13.3318ZM20.1343 13.5703L19.4298 14.0652L19.7747 14.5562L20.4792 14.0613L20.1343 13.5703ZM19.3092 14.375C19.3127 14.391 19.3167 14.4081 19.3213 14.4253L19.9011 14.2707C19.8994 14.2643 19.8974 14.2562 19.8952 14.2464L19.3092 14.375ZM19.3229 14.431C19.3238 14.4342 19.3224 14.4299 19.3213 14.4221L19.9153 14.3373C19.911 14.3074 19.9046 14.2827 19.8995 14.265L19.3229 14.431ZM19.3234 14.435C19.3254 14.4453 19.3268 14.4537 19.3279 14.4613L19.9216 14.3744C19.9189 14.3561 19.9159 14.3393 19.9131 14.3244L19.3234 14.435ZM19.5701 14.7128L20.3943 14.8656L20.5037 14.2756L19.6794 14.1228L19.5701 14.7128ZM20.3941 14.8655C20.5638 14.8971 20.7068 15.0606 20.6998 15.2877L21.2995 15.3061C21.3146 14.8149 20.9947 14.367 20.5038 14.2757L20.3941 14.8655ZM20.6999 15.2849C20.6997 15.2888 20.6995 15.2893 20.6998 15.2874L21.2891 15.4005C21.2954 15.3674 21.2983 15.3364 21.2994 15.3089L20.6999 15.2849ZM20.6992 15.2909L20.3538 17.2132L20.9443 17.3193L21.2897 15.397L20.6992 15.2909ZM20.3538 17.2128C20.3351 17.3161 20.2813 17.3976 20.2055 17.4501L20.5466 17.9437C20.7593 17.7967 20.8984 17.5729 20.9442 17.3197L20.3538 17.2128ZM20.2059 17.4498C20.131 17.5013 20.0377 17.5222 19.9364 17.5041L19.8307 18.0947C20.0797 18.1393 20.3347 18.0896 20.5462 17.9439L20.2059 17.4498ZM19.9383 17.5044L19.1206 17.3524L19.0109 17.9423L19.8287 18.0943L19.9383 17.5044ZM18.8126 17.4865C18.8031 17.5014 18.7935 17.5154 18.7841 17.5283L19.2686 17.8822C19.2857 17.8588 19.3026 17.834 19.3189 17.8083L18.8126 17.4865ZM18.7718 17.5465L18.7514 17.5791L19.2606 17.8965L19.281 17.8639L18.7718 17.5465ZM18.758 17.9065L19.2448 18.6225L19.741 18.2852L19.2541 17.5691L18.758 17.9065ZM19.2512 18.6315C19.2957 18.6922 19.3203 18.7817 19.304 18.8802L19.896 18.9779C19.9371 18.7292 19.8803 18.4745 19.7347 18.2762L19.2512 18.6315ZM19.304 18.8803C19.2881 18.9768 19.2332 19.0638 19.1556 19.1182L19.4998 19.6097C19.7113 19.4615 19.8543 19.2316 19.896 18.9778L19.304 18.8803ZM19.1551 19.1185L17.578 20.2272L17.9231 20.7181L19.5002 19.6094L19.1551 19.1185ZM17.5685 20.2342C17.5115 20.2777 17.4201 20.3036 17.3259 20.2881L17.2288 20.8802C17.4767 20.9209 17.7369 20.8604 17.9325 20.7111L17.5685 20.2342ZM17.3261 20.2882C17.2311 20.2725 17.1443 20.2173 17.0894 20.1368L16.5937 20.4749C16.7408 20.6905 16.9714 20.8379 17.2286 20.8802L17.3261 20.2882ZM17.0897 20.1372L16.6079 19.4281L16.1116 19.7653L16.5934 20.4745L17.0897 20.1372ZM16.3005 19.3027C16.2812 19.3065 16.262 19.3102 16.2423 19.3139L16.3537 19.9035C16.3739 19.8997 16.396 19.8955 16.419 19.8908L16.3005 19.3027ZM16.2493 19.3127C16.2444 19.3135 16.24 19.3143 16.2366 19.3149C16.2349 19.3152 16.2333 19.3155 16.2319 19.3157C16.2305 19.316 16.2294 19.3162 16.2283 19.3164C16.2238 19.3172 16.2233 19.3172 16.224 19.3171L16.3023 19.912C16.315 19.9103 16.3261 19.9084 16.3332 19.9071C16.3423 19.9055 16.3434 19.9053 16.3466 19.9047L16.2493 19.3127ZM15.9679 19.5615L15.8167 20.4027L16.4072 20.5089L16.5584 19.6676L15.9679 19.5615ZM15.8167 20.4028C15.7982 20.5055 15.7446 20.587 15.6688 20.6395L16.0104 21.1327C16.2225 20.9859 16.3617 20.7624 16.4072 20.5088L15.8167 20.4028ZM15.6702 20.6386C15.6112 20.6789 15.5429 20.7 15.4706 20.7V21.3C15.6628 21.3 15.8494 21.243 16.0091 21.1337L15.6702 20.6386ZM12.9983 18.5519C13.0037 18.5519 13.0092 18.5538 13.0139 18.5582L13.4215 18.1179C13.3031 18.0083 13.151 17.9519 12.9983 17.9519V18.5519ZM13.0142 18.5585C13.0701 18.6101 13.1373 18.651 13.1606 18.6665L13.4915 18.1659C13.4396 18.1316 13.4311 18.1268 13.4212 18.1177L13.0142 18.5585ZM13.1603 18.6662L13.2341 18.7152L13.5657 18.2152L13.4919 18.1662L13.1603 18.6662ZM13.2213 18.7062C13.2692 18.7417 13.3344 18.7848 13.4475 18.8371L13.6996 18.2927C13.6255 18.2584 13.5953 18.2366 13.5786 18.2242L13.2213 18.7062ZM13.4477 18.8372C13.4573 18.8417 13.4623 18.8519 13.4605 18.8615L14.051 18.9683C14.1015 18.6887 13.9562 18.4113 13.6994 18.2926L13.4477 18.8372ZM13.4605 18.8618L13.2686 19.9299L13.8592 20.036L14.051 18.9679L13.4605 18.8618ZM13.5064 20.2774L15.4069 20.6486L15.5219 20.0598L13.6214 19.6885L13.5064 20.2774ZM15.7592 20.41L15.9638 19.3287L15.3743 19.2171L15.1697 20.2984L15.7592 20.41ZM15.9643 19.3258C15.9658 19.3175 15.9717 19.3103 15.982 19.3077L15.838 18.7252C15.5998 18.7841 15.4173 18.9766 15.3737 19.22L15.9643 19.3258ZM15.9807 19.308C16.0289 19.2964 16.0793 19.2892 16.141 19.2816L16.0681 18.6861C16.0038 18.694 15.9238 18.7045 15.8394 18.7249L15.9807 19.308ZM16.1437 19.2813C16.1635 19.2787 16.2004 19.2743 16.2339 19.2684L16.1292 18.6776C16.113 18.6805 16.0982 18.6821 16.0654 18.6864L16.1437 19.2813ZM16.2363 19.268C16.2671 19.2623 16.3935 19.2399 16.4873 19.2026L16.2655 18.6451C16.2566 18.6487 16.2354 18.6551 16.2034 18.6625C16.1741 18.6692 16.1462 18.6745 16.1269 18.678L16.2363 19.268ZM16.4876 19.2025C16.4987 19.1981 16.51 19.2023 16.5155 19.2103L17.0117 18.873C16.8473 18.6312 16.5367 18.5369 16.2652 18.6452L16.4876 19.2025ZM16.5155 19.2103L17.1274 20.1106L17.6236 19.7734L17.0117 18.873L16.5155 19.2103ZM17.5475 20.1878L19.1288 19.081L18.7847 18.5894L17.2035 19.6962L17.5475 20.1878ZM19.2067 18.6693L18.5967 17.7499L18.0967 18.0817L18.7068 19.001L19.2067 18.6693ZM18.5949 17.7473C18.5888 17.7382 18.59 17.7269 18.5965 17.7197L18.1499 17.319C17.9582 17.5326 17.9383 17.8483 18.0985 18.0843L18.5949 17.7473ZM18.5965 17.7196C18.6478 17.6624 18.6881 17.5936 18.7034 17.5696L18.1973 17.2473C18.1634 17.3005 18.1587 17.3092 18.1498 17.3191L18.5965 17.7196ZM18.7023 17.5713L18.7507 17.4965L18.2467 17.1708L18.1984 17.2456L18.7023 17.5713ZM18.7422 17.5089C18.7774 17.46 18.8197 17.3932 18.8714 17.2789L18.3248 17.0315C18.2893 17.1099 18.2669 17.1421 18.2552 17.1584L18.7422 17.5089ZM18.8719 17.2778C18.8742 17.2726 18.8773 17.2697 18.881 17.2678C18.8847 17.2658 18.8909 17.264 18.9003 17.2656L19.0022 16.6743C18.7212 16.6259 18.4422 16.7692 18.3243 17.0326L18.8719 17.2778ZM18.8965 17.2649L19.9468 17.4598L20.0562 16.8698L19.0059 16.675L18.8965 17.2649ZM20.2965 17.2194L20.6492 15.3137L20.0592 15.2045L19.7065 17.1102L20.2965 17.2194ZM20.6529 15.2319C20.6482 15.1801 20.6343 15.1303 20.6121 15.0859C20.6013 15.0643 20.5856 15.0382 20.5632 15.0125C20.552 14.9997 20.5354 14.9826 20.5128 14.9658C20.4932 14.9512 20.4517 14.9237 20.3915 14.9113L20.2709 15.4991C20.2122 15.487 20.1725 15.4604 20.1548 15.4473C20.1342 15.4319 20.1197 15.4168 20.1107 15.4066C20.0927 15.3859 20.0818 15.367 20.0756 15.3547C20.0626 15.3286 20.0571 15.3051 20.0554 15.2862L20.6529 15.2319ZM20.3859 14.9102L19.3356 14.7154L19.2262 15.3053L20.2765 15.5002L20.3859 14.9102ZM19.3357 14.7154C19.3271 14.7138 19.3201 14.7072 19.318 14.6984L18.7341 14.8366C18.7909 15.0766 18.9839 15.2603 19.2261 15.3053L19.3357 14.7154ZM19.3177 14.6973C19.3062 14.6496 19.3 14.6009 19.292 14.5362L18.6965 14.6097C18.7039 14.6701 18.7137 14.7518 18.7344 14.8377L19.3177 14.6973ZM19.2922 14.5383C19.2899 14.5183 19.2866 14.4885 19.2823 14.4601L18.6892 14.551C18.6915 14.5658 18.6932 14.5816 18.6962 14.6077L19.2922 14.5383ZM19.276 14.4299C19.2692 14.4038 19.2628 14.3751 19.2566 14.3435L18.6679 14.4597C18.6759 14.4999 18.6849 14.5408 18.6954 14.5812L19.276 14.4299ZM19.2558 14.3398C19.2519 14.3213 19.2393 14.248 19.2149 14.1845L18.6547 14.3994C18.6542 14.398 18.6554 14.4009 18.6582 14.4128C18.6595 14.4186 18.6609 14.4251 18.6626 14.4338C18.6642 14.4413 18.6665 14.453 18.6687 14.4633L19.2558 14.3398ZM19.214 14.1821C19.2105 14.1733 19.2131 14.162 19.2227 14.1552L18.876 13.6654C18.643 13.8304 18.5502 14.1337 18.6557 14.4018L19.214 14.1821ZM19.2218 14.1558L20.1077 13.5333L19.7627 13.0424L18.8769 13.6649L19.2218 14.1558ZM20.1849 13.1216L19.1058 11.5005L18.6064 11.833L19.6855 13.4541L20.1849 13.1216ZM18.6842 11.4209L17.7949 12.0426L18.1387 12.5343L19.028 11.9126L18.6842 11.4209ZM17.7948 12.0426C17.7852 12.0493 17.7735 12.0481 17.7657 12.041L17.3579 12.4811C17.5735 12.6809 17.8985 12.7024 18.1388 12.5342L17.7948 12.0426ZM17.7659 12.0411C17.7096 11.9889 17.6424 11.9481 17.6184 11.9323L17.2885 12.4335C17.3402 12.4675 17.3485 12.4723 17.3578 12.4809L17.7659 12.0411ZM17.6193 11.9329L17.5454 11.8839L17.2138 12.3839L17.2877 12.4329L17.6193 11.9329ZM17.5583 11.8929C17.5109 11.8578 17.4451 11.8139 17.3313 11.7616L17.0808 12.3068C17.1186 12.3242 17.1442 12.3381 17.1616 12.3486C17.1785 12.3587 17.1902 12.3669 17.2009 12.3749L17.5583 11.8929ZM17.3307 11.7613C17.3225 11.7576 17.3169 11.7476 17.3187 11.7377L16.7283 11.6308C16.6778 11.9097 16.8227 12.1889 17.0813 12.3071L17.3307 11.7613ZM17.3187 11.7374L17.511 10.6693L16.9205 10.563L16.7282 11.6311L17.3187 11.7374ZM17.2733 10.3217L15.3819 9.95204L15.2669 10.5409L17.1582 10.9106L17.2733 10.3217ZM15.0296 10.1907L14.8252 11.272L15.4147 11.3835L15.6192 10.3022L15.0296 10.1907ZM14.8247 11.2747C14.8231 11.2835 14.8165 11.2906 14.8077 11.2928L14.9527 11.875C15.1906 11.8158 15.3718 11.6225 15.4152 11.3809L14.8247 11.2747ZM14.8088 11.2925C14.7604 11.3044 14.7106 11.3115 14.6492 11.319L14.7222 11.9146C14.7868 11.9067 14.8665 11.8961 14.9517 11.8753L14.8088 11.2925ZM14.6472 11.3193C14.6277 11.3218 14.6013 11.3251 14.5763 11.3289L14.6669 11.922C14.6831 11.9196 14.6999 11.9175 14.7242 11.9143L14.6472 11.3193ZM14.5446 11.3355C14.5177 11.3427 14.4882 11.3495 14.4566 11.3562L14.5803 11.9433C14.6189 11.9351 14.659 11.9259 14.6985 11.9154L14.5446 11.3355ZM14.4568 11.3561C14.4376 11.3601 14.366 11.3726 14.3027 11.398L14.5256 11.955C14.5223 11.9564 14.5235 11.9555 14.534 11.953C14.539 11.9519 14.5448 11.9506 14.5527 11.949C14.5567 11.9481 14.5607 11.9473 14.5653 11.9464C14.5698 11.9455 14.5749 11.9444 14.58 11.9433L14.4568 11.3561ZM14.2991 11.3995C14.2922 11.4023 14.2809 11.401 14.2736 11.3903L13.7779 11.7284C13.9423 11.9694 14.2548 12.0676 14.5292 11.9535L14.2991 11.3995ZM14.2738 11.3907L13.6619 10.4904L13.1657 10.8276L13.7776 11.728L14.2738 11.3907ZM13.2418 10.4132L11.6606 11.5197L12.0046 12.0113L13.5858 10.9048L13.2418 10.4132ZM11.5826 11.9314L12.1926 12.8508L12.6926 12.519L12.0825 11.5996L11.5826 11.9314ZM12.1945 12.8535C12.2005 12.8624 12.1994 12.8737 12.1928 12.8809L12.6382 13.283C12.8307 13.0698 12.8516 12.7531 12.6907 12.5163L12.1945 12.8535ZM12.192 12.8818C12.141 12.9388 12.1015 13.0064 12.0859 13.031L12.5927 13.3522C12.6256 13.3003 12.6305 13.2916 12.639 13.2821L12.192 12.8818ZM12.087 13.0292L12.0383 13.1048L12.5428 13.4296L12.5915 13.354L12.087 13.0292ZM12.0475 13.0914C12.0119 13.1406 11.9696 13.2076 11.9179 13.3218L12.4645 13.5692C12.5001 13.4906 12.5223 13.4587 12.5337 13.443L12.0475 13.0914ZM11.9174 13.3229C11.9149 13.3286 11.9117 13.3313 11.9085 13.333C11.9053 13.3347 11.8991 13.3368 11.8887 13.335L11.7874 13.9264C12.0694 13.9747 12.3472 13.8313 12.465 13.5681L11.9174 13.3229ZM11.8928 13.3358L10.8424 13.1409L10.7329 13.7309L11.7834 13.9257L11.8928 13.3358ZM10.4926 13.3814L10.1349 15.3169L10.7249 15.4259L11.0826 13.4904L10.4926 13.3814ZM10.3701 15.6653L11.4117 15.8775L11.5314 15.2896L10.4898 15.0774L10.3701 15.6653ZM11.4166 15.8785C11.4252 15.8801 11.4326 15.8867 11.4348 15.896L12.018 15.755C11.9604 15.5166 11.7683 15.3336 11.5265 15.2886L11.4166 15.8785ZM11.4346 15.895C11.4463 15.9444 11.4532 15.9949 11.4609 16.058L12.0565 15.9852C12.0487 15.9219 12.0386 15.8414 12.0182 15.7559L11.4346 15.895ZM11.4607 16.0562C11.464 16.0845 11.4679 16.1161 11.473 16.1482L12.0654 16.0531C12.0624 16.0342 12.0597 16.0129 12.0567 15.9869L11.4607 16.0562ZM11.4738 16.1527C11.4791 16.1826 11.5006 16.3127 11.5383 16.41L12.0978 16.1933C12.0938 16.1828 12.0871 16.1599 12.0798 16.1268C12.0731 16.0964 12.0681 16.0679 12.0647 16.0486L11.4738 16.1527ZM11.5389 16.4114C11.5424 16.4204 11.5395 16.4311 11.5311 16.4372L11.8817 16.924C12.112 16.7581 12.2015 16.457 12.0973 16.1919L11.5389 16.4114ZM11.5308 16.4373L10.6634 17.0633L11.0145 17.5498L11.8819 16.9239L11.5308 16.4373ZM10.5895 17.4731L11.6736 19.0972L12.1726 18.7641L11.0885 17.14L10.5895 17.4731ZM12.0947 19.1767L12.9848 18.5561L12.6416 18.064L11.7515 18.6845L12.0947 19.1767ZM12.9844 18.5564C12.9889 18.5533 12.9938 18.5519 12.9983 18.5519V17.9519C12.8739 17.9519 12.7491 17.9893 12.642 18.0637L12.9844 18.5564Z" fill="#333333" mask="url(#path-1-outside-1_1482_22675)"/>
</svg>
