<svg width="20" height="22" viewBox="0 0 20 22" fill="none" xmlns="http://www.w3.org/2000/svg">
<path d="M14.1963 12.8061C13.3605 11.5459 12.1352 10.6003 10.7107 10.0817C12.9282 8.73903 13.754 5.87032 12.5249 3.5326C11.2429 1.0942 8.24982 0.137246 5.80903 1.42051C3.36945 2.70314 2.43917 5.6962 3.69638 8.13522L3.69638 8.13522L3.69706 8.13651C4.12169 8.94106 4.74527 9.60678 5.51436 10.0802C2.72459 11.0944 0.85 13.7482 0.85 16.7264V18.8975C0.85 19.2187 1.10679 19.4867 1.41469 19.4867H11.4629C12.8415 21.3062 15.4344 21.6867 17.2851 20.3612L17.2862 20.3604C19.1585 18.9941 19.5626 16.3638 18.2223 14.4925L18.2217 14.4917C17.3049 13.228 15.757 12.571 14.1963 12.8061ZM14.0617 14.0181L14.0617 14.0181L14.0638 14.0176C15.6894 13.5996 17.341 14.5979 17.7599 16.2271C18.1778 17.8524 17.18 19.5037 15.5512 19.923C13.6464 20.3869 11.7859 18.9228 11.7859 16.946C11.7859 15.5497 12.716 14.343 14.0617 14.0181ZM4.29686 5.87102C4.29686 3.75719 5.98728 2.04477 8.09871 2.04477C10.2125 2.04477 11.925 3.73519 11.925 5.84662C11.925 7.95985 10.2351 9.67287 8.09871 9.67287C6.01048 9.67287 4.29686 7.9593 4.29686 5.87102ZM2.00379 16.7264C2.00379 13.468 4.64376 10.8263 7.92853 10.8023H8.34266C10.1848 10.8023 11.9386 11.6718 13.0634 13.1523C11.6385 13.8251 10.6565 15.2914 10.6565 16.9459C10.6565 17.3882 10.7335 17.8669 10.8869 18.3328H2.00379V16.7264ZM13.1727 17.5351H14.2424V18.6048C14.2424 18.9316 14.5047 19.1939 14.8315 19.1939C15.1583 19.1939 15.4206 18.9316 15.4206 18.6048V17.5351H16.4904C16.8171 17.5351 17.0795 17.2728 17.0795 16.946C17.0795 16.6192 16.8171 16.3569 16.4904 16.3569H15.4206V15.3116C15.4206 14.9848 15.1583 14.7225 14.8315 14.7225C14.5047 14.7225 14.2424 14.9848 14.2424 15.3116V16.3569H13.1727C12.8459 16.3569 12.5836 16.6192 12.5836 16.946C12.5836 17.2728 12.8459 17.5351 13.1727 17.5351Z" fill="#333333" stroke="#333333" stroke-width="0.3"/>
</svg>
