<svg width="130" height="130" viewBox="0 0 130 130" fill="none" xmlns="http://www.w3.org/2000/svg">
<path d="M65 24.5642C42.7037 24.5642 24.5642 42.7037 24.5642 65C24.5642 87.2963 42.7037 105.436 65 105.436C87.2963 105.436 105.436 87.2963 105.436 65C105.436 42.7037 87.2963 24.5642 65 24.5642ZM65 100.358C45.5036 100.358 29.6423 84.4964 29.6423 65C29.6423 45.5036 45.5036 29.6423 65 29.6423C84.4964 29.6423 100.358 45.5036 100.358 65C100.358 84.4964 84.4964 100.358 65 100.358Z" fill="#4285F4"/>
<path d="M65 17.0861C65.6734 17.0861 66.3192 16.8186 66.7954 16.3424C67.2716 15.8663 67.5391 15.2205 67.5391 14.5471V2.53906C67.5391 1.86566 67.2716 1.21984 66.7954 0.743674C66.3192 0.267508 65.6734 0 65 0C64.3266 0 63.6808 0.267508 63.2046 0.743674C62.7284 1.21984 62.4609 1.86566 62.4609 2.53906V14.5471C62.4609 15.2205 62.7284 15.8663 63.2046 16.3424C63.6808 16.8186 64.3266 17.0861 65 17.0861Z" fill="#4285F4"/>
<path d="M65 112.914C64.3266 112.914 63.6808 113.181 63.2046 113.658C62.7284 114.134 62.4609 114.78 62.4609 115.453V127.461C62.4609 128.134 62.7284 128.78 63.2046 129.256C63.6808 129.732 64.3266 130 65 130C65.6734 130 66.3192 129.732 66.7954 129.256C67.2716 128.78 67.5391 128.134 67.5391 127.461V115.453C67.5391 114.78 67.2716 114.134 66.7954 113.658C66.3192 113.181 65.6734 112.914 65 112.914Z" fill="#4285F4"/>
<path d="M37.5746 22.5761C37.9113 23.1593 38.4659 23.5848 39.1163 23.7591C39.7668 23.9334 40.4599 23.8422 41.0431 23.5055C41.6263 23.1688 42.0518 22.6142 42.2261 21.9637C42.4004 21.3133 42.3092 20.6202 41.9725 20.037L35.9684 9.63777C35.8029 9.34668 35.5814 9.0912 35.3168 8.88604C35.0521 8.68088 34.7495 8.53009 34.4264 8.44236C34.1032 8.35462 33.7659 8.33167 33.4338 8.37483C33.1018 8.41799 32.7815 8.52641 32.4916 8.69384C32.2016 8.86127 31.9476 9.0844 31.7442 9.3504C31.5408 9.6164 31.392 9.92 31.3064 10.2437C31.2208 10.5675 31.2001 10.9049 31.2455 11.2367C31.2908 11.5684 31.4014 11.888 31.5707 12.1768L37.5746 22.5761Z" fill="#4285F4"/>
<path d="M92.4254 107.424C92.0887 106.841 91.5341 106.415 90.8837 106.241C90.2332 106.067 89.5401 106.158 88.9569 106.494C88.3737 106.831 87.9482 107.386 87.7739 108.036C87.5996 108.687 87.6908 109.38 88.0275 109.963L94.0316 120.362C94.1971 120.653 94.4186 120.909 94.6832 121.114C94.9479 121.319 95.2505 121.47 95.5736 121.558C95.8968 121.645 96.2341 121.668 96.5662 121.625C96.8982 121.582 97.2185 121.474 97.5084 121.306C97.7984 121.139 98.0524 120.916 98.2558 120.65C98.4592 120.384 98.608 120.08 98.6936 119.756C98.7792 119.433 98.7999 119.095 98.7545 118.763C98.7092 118.432 98.5986 118.112 98.4293 117.823L92.4254 107.424Z" fill="#4285F4"/>
<path d="M22.5761 37.5746L12.1768 31.5707C11.888 31.4014 11.5684 31.2908 11.2367 31.2455C10.9049 31.2001 10.5675 31.2208 10.2437 31.3064C9.92 31.392 9.6164 31.5408 9.3504 31.7442C9.08441 31.9476 8.86127 32.2016 8.69384 32.4916C8.52641 32.7815 8.418 33.1018 8.37484 33.4338C8.33168 33.7659 8.35462 34.1032 8.44236 34.4264C8.53009 34.7495 8.68088 35.0521 8.88604 35.3168C9.0912 35.5814 9.34668 35.8029 9.63777 35.9684L20.037 41.9725C20.6202 42.3092 21.3133 42.4004 21.9637 42.2261C22.6142 42.0518 23.1688 41.6263 23.5055 41.0431C23.8422 40.4599 23.9334 39.7668 23.7591 39.1163C23.5848 38.4659 23.1593 37.9113 22.5761 37.5746Z" fill="#4285F4"/>
<path d="M120.362 94.0316L109.963 88.0275C109.38 87.6908 108.687 87.5996 108.036 87.7739C107.386 87.9482 106.831 88.3737 106.494 88.9569C106.158 89.5401 106.067 90.2332 106.241 90.8837C106.415 91.5341 106.841 92.0887 107.424 92.4254L117.823 98.4293C118.112 98.5987 118.432 98.7092 118.763 98.7545C119.095 98.7999 119.433 98.7792 119.756 98.6936C120.08 98.608 120.384 98.4592 120.65 98.2558C120.916 98.0524 121.139 97.7984 121.306 97.5084C121.474 97.2185 121.582 96.8982 121.625 96.5662C121.668 96.2341 121.645 95.8968 121.558 95.5736C121.47 95.2505 121.319 94.9479 121.114 94.6832C120.909 94.4186 120.653 94.1972 120.362 94.0316Z" fill="#4285F4"/>
<path d="M17.0861 65C17.0861 64.3266 16.8186 63.6808 16.3424 63.2046C15.8663 62.7284 15.2205 62.4609 14.5471 62.4609H2.53906C1.86566 62.4609 1.21984 62.7284 0.743674 63.2046C0.267508 63.6808 0 64.3266 0 65C0 65.6734 0.267508 66.3192 0.743674 66.7954C1.21984 67.2716 1.86566 67.5391 2.53906 67.5391H14.5471C15.2205 67.5391 15.8663 67.2716 16.3424 66.7954C16.8186 66.3192 17.0861 65.6734 17.0861 65Z" fill="#4285F4"/>
<path d="M127.461 62.4609H115.453C114.78 62.4609 114.134 62.7284 113.658 63.2046C113.181 63.6808 112.914 64.3266 112.914 65C112.914 65.6734 113.181 66.3192 113.658 66.7954C114.134 67.2716 114.78 67.5391 115.453 67.5391H127.461C128.134 67.5391 128.78 67.2716 129.256 66.7954C129.732 66.3192 130 65.6734 130 65C130 64.3266 129.732 63.6808 129.256 63.2046C128.78 62.7284 128.134 62.4609 127.461 62.4609Z" fill="#4285F4"/>
<path d="M20.037 88.0275L9.63777 94.0316C9.34668 94.1972 9.0912 94.4186 8.88604 94.6832C8.68088 94.9479 8.53009 95.2505 8.44236 95.5736C8.35462 95.8968 8.33168 96.2341 8.37484 96.5662C8.418 96.8982 8.52641 97.2185 8.69384 97.5084C8.86127 97.7984 9.08441 98.0524 9.3504 98.2558C9.6164 98.4592 9.92 98.608 10.2437 98.6936C10.5675 98.7792 10.9049 98.7999 11.2367 98.7545C11.5684 98.7092 11.888 98.5987 12.1768 98.4293L22.5761 92.4254C23.1593 92.0887 23.5848 91.5341 23.7591 90.8837C23.9334 90.2332 23.8422 89.5401 23.5055 88.9569C23.1688 88.3737 22.6142 87.9482 21.9637 87.7739C21.3133 87.5996 20.6202 87.6908 20.037 88.0275Z" fill="#4285F4"/>
<path d="M108.697 42.313C109.142 42.313 109.579 42.1955 109.964 41.9725L120.363 35.9684C120.655 35.8029 120.91 35.5814 121.115 35.3168C121.32 35.0521 121.471 34.7495 121.559 34.4264C121.647 34.1032 121.67 33.7659 121.626 33.4338C121.583 33.1018 121.475 32.7815 121.307 32.4916C121.14 32.2016 120.917 31.9476 120.651 31.7442C120.385 31.5408 120.081 31.392 119.758 31.3064C119.434 31.2208 119.096 31.2001 118.765 31.2455C118.433 31.2908 118.113 31.4014 117.824 31.5707L107.425 37.5746C106.941 37.8541 106.562 38.2857 106.348 38.8024C106.134 39.3191 106.097 39.8921 106.242 40.4322C106.387 40.9724 106.706 41.4496 107.15 41.7897C107.594 42.1297 108.138 42.3137 108.697 42.313Z" fill="#4285F4"/>
<path d="M41.0429 106.495C40.4598 106.158 39.7667 106.067 39.1163 106.241C38.4659 106.415 37.9113 106.841 37.5746 107.424L31.5707 117.823C31.4014 118.112 31.2908 118.432 31.2455 118.763C31.2001 119.095 31.2208 119.433 31.3064 119.756C31.392 120.08 31.5408 120.384 31.7442 120.65C31.9476 120.916 32.2016 121.139 32.4916 121.306C32.7815 121.474 33.1018 121.582 33.4338 121.625C33.7659 121.668 34.1032 121.645 34.4264 121.558C34.7495 121.47 35.0521 121.319 35.3168 121.114C35.5814 120.909 35.8029 120.653 35.9684 120.362L41.9725 109.963C42.3091 109.38 42.4003 108.687 42.226 108.036C42.0517 107.386 41.6261 106.831 41.0429 106.495Z" fill="#4285F4"/>
<path d="M88.9571 23.5054C89.5402 23.8421 90.2333 23.9333 90.8837 23.759C91.5341 23.5847 92.0887 23.1592 92.4254 22.5761L98.4293 12.1768C98.5986 11.888 98.7092 11.5684 98.7545 11.2367C98.7999 10.9049 98.7792 10.5675 98.6936 10.2437C98.608 9.92 98.4592 9.6164 98.2558 9.3504C98.0524 9.0844 97.7984 8.86127 97.5084 8.69384C97.2185 8.52641 96.8982 8.41799 96.5662 8.37483C96.2341 8.33167 95.8968 8.35462 95.5736 8.44236C95.2505 8.53009 94.9479 8.68088 94.6832 8.88604C94.4186 9.0912 94.1971 9.34668 94.0316 9.63777L88.0275 20.037C87.6909 20.6202 87.5996 21.3133 87.774 21.9637C87.9483 22.6141 88.3739 23.1687 88.9571 23.5054Z" fill="#4285F4"/>
</svg>
