<svg width="121" height="120" viewBox="0 0 121 120" fill="none" xmlns="http://www.w3.org/2000/svg">
<path d="M1.05263 61.0526C0.471834 61.0526 0 60.5808 0 60C0 26.9161 26.9161 0 60 0C60.5808 0 61.0526 0.471834 61.0526 1.05263C61.0526 1.63343 60.5808 2.10526 60 2.10526C28.0757 2.10526 2.10526 28.0757 2.10526 60C2.10526 60.5808 1.63343 61.0526 1.05263 61.0526Z" fill="#00C2CB"/>
<path d="M66.3181 2.10526H64.2128C63.632 2.10526 63.1602 1.63343 63.1602 1.05263C63.1602 0.471834 63.632 0 64.2128 0H66.3181C66.8988 0 67.3707 0.471834 67.3707 1.05263C67.3707 1.63343 66.8988 2.10526 66.3181 2.10526Z" fill="#00C2CB"/>
<path d="M59.9979 120C59.4171 120 58.9453 119.528 58.9453 118.947C58.9453 118.367 59.4171 117.895 59.9979 117.895C91.9202 117.895 117.893 91.9243 117.893 60C117.893 59.4192 118.365 58.9474 118.945 58.9474C119.526 58.9474 119.998 59.4192 119.998 60C119.998 93.0839 93.0818 120 59.9979 120Z" fill="#00C2CB"/>
<path d="M55.7907 120H53.6854C53.1046 120 52.6328 119.528 52.6328 118.947C52.6328 118.367 53.1046 117.895 53.6854 117.895H55.7907C56.3715 117.895 56.8433 118.367 56.8433 118.947C56.8433 119.528 56.3715 120 55.7907 120Z" fill="#00C2CB"/>
<path d="M60.0008 111.579C31.5613 111.579 8.42188 88.4396 8.42188 60C8.42188 31.5604 31.5613 8.42105 60.0008 8.42105C88.4424 8.42105 111.58 31.5604 111.58 60C111.58 88.4396 88.4424 111.579 60.0008 111.579ZM60.0008 10.5263C32.7208 10.5263 10.5271 32.72 10.5271 60C10.5271 87.28 32.7208 109.474 60.0008 109.474C87.2808 109.474 109.475 87.28 109.475 60C109.475 32.72 87.2808 10.5263 60.0008 10.5263Z" fill="#00C2CB"/>
<path d="M60.0002 22.1053C39.072 22.1053 22.1055 39.0717 22.1055 60C22.1055 80.9282 39.072 97.8947 60.0002 97.8947C80.9285 97.8947 97.8949 80.9282 97.8949 60C97.8949 39.0717 80.9285 22.1053 60.0002 22.1053Z" fill="#00C2CB"/>
<path d="M60.0021 98.9474C38.5259 98.9474 21.0547 81.4762 21.0547 60C21.0547 38.5239 38.5259 21.0526 60.0021 21.0526C81.4782 21.0526 98.9494 38.5239 98.9494 60C98.9494 81.4762 81.4782 98.9474 60.0021 98.9474ZM60.0021 23.1579C39.6885 23.1579 23.16 39.6865 23.16 60C23.16 80.3135 39.6885 96.8421 60.0021 96.8421C80.3156 96.8421 96.8442 80.3135 96.8442 60C96.8442 39.6865 80.3156 23.1579 60.0021 23.1579Z" fill="#00C2CB"/>
<path d="M104.212 6.31577H95.7909C95.2101 6.31577 94.7383 5.84394 94.7383 5.26314C94.7383 4.68234 95.2101 4.21051 95.7909 4.21051H104.212C104.793 4.21051 105.265 4.68234 105.265 5.26314C105.265 5.84394 104.793 6.31577 104.212 6.31577Z" fill="#00C2CB"/>
<path d="M99.9979 10.5263C99.4171 10.5263 98.9453 10.0545 98.9453 9.47368V1.05263C98.9453 0.471834 99.4171 0 99.9979 0C100.579 0 101.051 0.471834 101.051 1.05263V9.47368C101.051 10.0545 100.579 10.5263 99.9979 10.5263Z" fill="#00C2CB"/>
<path d="M118.95 20H110.529C109.948 20 109.477 19.5282 109.477 18.9474C109.477 18.3666 109.948 17.8947 110.529 17.8947H118.95C119.531 17.8947 120.003 18.3666 120.003 18.9474C120.003 19.5282 119.531 20 118.95 20Z" fill="#00C2CB"/>
<path d="M114.736 24.2105C114.155 24.2105 113.684 23.7387 113.684 23.1579V14.7368C113.684 14.156 114.155 13.6842 114.736 13.6842C115.317 13.6842 115.789 14.156 115.789 14.7368V23.1579C115.789 23.7387 115.317 24.2105 114.736 24.2105Z" fill="#00C2CB"/>
<path d="M53.6737 76.5553C52.8647 76.5553 52.0567 76.248 51.44 75.6312L37.2963 61.4905C36.0627 60.2591 36.0627 58.2586 37.2963 57.0251C38.5298 55.7915 40.5282 55.7915 41.7617 57.0251L53.6717 68.935L78.2338 44.3729C79.4673 43.1394 81.4646 43.1394 82.6992 44.3729C83.9328 45.6044 83.9328 47.6059 82.6992 48.8384L55.9075 75.6291C55.2907 76.2459 54.4817 76.5553 53.6737 76.5553Z" fill="white"/>
<path d="M53.6745 77.6079C52.55 77.6079 51.4932 77.17 50.6976 76.3744L36.5539 62.2338C35.7582 61.4402 35.3203 60.3834 35.3203 59.2568C35.3203 58.1322 35.7582 57.0755 36.5539 56.2798C38.1462 54.6885 40.9165 54.6885 42.5078 56.2798L53.6745 67.4445L77.4914 43.6277C79.0826 42.0354 81.853 42.0354 83.4453 43.6277C84.241 44.4213 84.6789 45.4801 84.6789 46.6046C84.6789 47.7282 84.241 48.787 83.4453 49.5806L56.6515 76.3744C55.8549 77.17 54.7981 77.6079 53.6745 77.6079ZM39.5308 57.1495C38.9685 57.1495 38.4402 57.3684 38.0424 57.7662C37.6445 58.1641 37.4256 58.6924 37.4256 59.2547C37.4256 59.817 37.6445 60.3454 38.0424 60.7432L52.1861 74.8838C52.9817 75.6805 54.3674 75.6805 55.163 74.8838L81.9589 48.0901C82.3546 47.6922 82.5757 47.1639 82.5757 46.6026C82.5757 46.0403 82.3567 45.5119 81.9589 45.1141C81.1355 44.2928 79.8053 44.2928 78.9819 45.1141L54.4198 69.6762C54.0086 70.0864 53.3415 70.0864 52.9313 69.6762L41.0214 57.7662C40.6215 57.3684 40.0931 57.1495 39.5308 57.1495Z" fill="#00C2CB"/>
</svg>
