<svg width="49" height="57" viewBox="0 0 49 57" fill="none" xmlns="http://www.w3.org/2000/svg">
<path d="M24.3625 56.1374C12.504 56.1374 0.5 53.5546 0.5 48.6182C0.5 45.0265 6.39523 43.1535 11.3407 42.2155C11.9922 42.0858 12.6102 42.5445 12.7265 43.2256C12.8435 43.9067 12.4134 44.5584 11.7649 44.6812C5.29696 45.9094 2.88625 47.7472 2.88625 48.6182C2.88625 50.3194 10.4668 53.631 24.3625 53.631C38.2582 53.631 45.8387 50.3194 45.8387 48.6182C45.8387 47.7472 43.428 45.9094 36.9601 44.6818C36.3116 44.559 35.8809 43.9073 35.9985 43.2262C36.1148 42.5451 36.7364 42.0889 37.3843 42.2161C42.3298 43.1535 48.225 45.0265 48.225 48.6182C48.225 53.5546 36.221 56.1374 24.3625 56.1374ZM43.4525 21.0475C43.4525 36.5779 25.777 49.1339 25.0241 49.6608C24.8236 49.8012 24.5934 49.8714 24.3625 49.8714C24.1316 49.8714 23.9014 49.8012 23.7009 49.6608C22.948 49.1339 5.2725 36.5779 5.2725 21.0475C5.2725 9.99103 13.8362 0.996094 24.3625 0.996094C34.8888 0.996094 43.4525 9.99103 43.4525 21.0475ZM32.7144 21.0475C32.7144 16.2026 28.9751 12.275 24.3625 12.275C19.7499 12.275 16.0106 16.2026 16.0106 21.0475C16.0106 25.8924 19.7499 29.82 24.3625 29.82C28.9751 29.82 32.7144 25.8924 32.7144 21.0475Z" fill="white"/>
</svg>
