<svg width="17" height="10" viewBox="0 0 17 10" fill="none" xmlns="http://www.w3.org/2000/svg">
<path d="M16.5484 4.65722C16.3995 4.46722 12.8478 0 8.33335 0C3.81891 0 0.267243 4.46722 0.118354 4.65722C0.0416724 4.75503 0 4.87572 0 5C0 5.12428 0.0416724 5.24497 0.118354 5.34278C0.267243 5.53278 3.81891 10 8.33335 10C12.8478 10 16.3995 5.53278 16.5484 5.34278C16.625 5.24497 16.6667 5.12428 16.6667 5C16.6667 4.87572 16.625 4.75503 16.5484 4.65722ZM8.33335 7.77778C7.78396 7.77778 7.24691 7.61486 6.7901 7.30964C6.3333 7.00441 5.97726 6.57058 5.76702 6.06301C5.55678 5.55544 5.50177 4.99692 5.60895 4.45808C5.71613 3.91925 5.98069 3.42429 6.36917 3.03581C6.75765 2.64734 7.2526 2.38278 7.79144 2.2756C8.33027 2.16842 8.88879 2.22342 9.39636 2.43367C9.90394 2.64391 10.3378 2.99995 10.643 3.45675C10.9482 3.91355 11.1111 4.45061 11.1111 5C11.1102 5.73644 10.8173 6.44247 10.2966 6.96321C9.77582 7.48396 9.0698 7.7769 8.33335 7.77778Z" fill="#6D6D6D"/>
</svg>
