<svg width="12" height="20" viewBox="0 0 12 20" fill="none" xmlns="http://www.w3.org/2000/svg">
<path d="M6.49023 13.5182L5.96508 12.4541L5.43992 13.5182L4.26562 13.6889L5.11535 14.5171L4.91473 15.6867L5.96508 15.1345L7.01543 15.6867L6.8148 14.5171L7.66453 13.6889L6.49023 13.5182Z" fill="#6D6D6D"/>
<path d="M5.96582 8.22925C6.50516 8.22925 6.94238 7.79203 6.94238 7.25269C6.94238 6.71334 6.50516 6.27612 5.96582 6.27612C5.42648 6.27612 4.98926 6.71334 4.98926 7.25269C4.98926 7.79203 5.42648 8.22925 5.96582 8.22925Z" fill="#6D6D6D"/>
<path d="M5.96523 5.10418C6.93762 5.10418 7.7607 5.75371 8.02465 6.64156L10.5858 4.93414V0H7.89605V3.8616H6.72418V0H5.20633V3.8616H4.03445V0H1.34473V4.9341L3.90586 6.64152C4.16977 5.75371 4.99285 5.10418 5.96523 5.10418Z" fill="#6D6D6D"/>
<path d="M7.80559 8.36011C7.42906 8.98335 6.74512 9.40097 5.96539 9.40097C5.18566 9.40097 4.50172 8.98335 4.1252 8.36011C1.73367 9.13749 0 11.3871 0 14.0346C0 17.3239 2.67605 20 5.96539 20C9.25473 20 11.9308 17.3239 11.9308 14.0346C11.9308 11.3871 10.1971 9.13749 7.80559 8.36011ZM8.40207 16.8375L7.68168 17.3608L5.96539 16.4585L4.2491 17.3608L3.52871 16.8374L3.85652 14.9262L2.46797 13.5728L2.74316 12.7259L4.66203 12.4471L5.5202 10.7083H6.41062L7.26879 12.4471L9.18766 12.7259L9.46285 13.5728L8.0743 14.9262L8.40207 16.8375Z" fill="#6D6D6D"/>
</svg>
